<?xml version="1.0" standalone="no"?>
<!DOCTYPE svg PUBLIC "-//W3C//DTD SVG 1.1//EN" "http://www.w3.org/Graphics/SVG/1.1/DTD/svg11.dtd" >
<svg>
<metadata>
Created by FontForge 20090914 at Fri May 12 23:45:15 2017
 By www-data
Copyright (c) 2010-2012 by Claus Eggers S&#195;&#184;rensen (es@forthehearts.net), with Reserved Font Name 'Playfair'.
</metadata>
<defs>
<font id="PlayfairDisplaySC-Bold" horiz-adv-x="1364" >
  <font-face 
    font-family="Playfair Display SC"
    font-weight="700"
    font-stretch="normal"
    units-per-em="2048"
    panose-1="0 0 8 0 0 0 0 0 0 0"
    ascent="1638"
    descent="-410"
    x-height="1245"
    cap-height="1450"
    bbox="-553 -498.002 2272 2029"
    underline-thickness="0"
    underline-position="0"
    unicode-range="U+000D-U+25CA"
  />
<missing-glyph horiz-adv-x="1151" 
d="M122 0v1581h905v-1581h-905zM196 61h757v1459h-757v-1459z" />
    <glyph glyph-name=".notdef" horiz-adv-x="1151" 
d="M122 0v1581h905v-1581h-905zM196 61h757v1459h-757v-1459z" />
    <glyph glyph-name="CR" unicode="&#xd;" horiz-adv-x="0" 
 />
    <glyph glyph-name="space" unicode=" " horiz-adv-x="478" 
 />
    <glyph glyph-name="exclam" unicode="!" horiz-adv-x="591" 
d="M377.5 1578c25.667 -16 46.1709 -39.332 61.5039 -69.999s23 -66.334 23 -107.001c0 -48 -4.83301 -100.667 -14.5 -158s-24.834 -134.333 -45.501 -231c-26.667 -128 -47.334 -237.5 -62.001 -328.5s-23.667 -185.167 -27 -282.5h-37
c-3.33301 98 -12.5 193.333 -27.5 286s-35.833 201 -62.5 325c-20.667 96.667 -35.834 173.667 -45.501 231s-14.5 110 -14.5 158c0 62 15.667 111 47 147s71.666 54 120.999 54c30 0 57.833 -8 83.5 -24zM422.004 245.501c31.333 -28.333 47 -67.166 47 -116.499
c0 -48.667 -15.667 -87.167 -47 -115.5s-74 -42.5 -128 -42.5c-53.333 0 -95.666 14.167 -126.999 42.5s-47 66.833 -47 115.5c0 49.333 15.667 88.166 47 116.499s73.666 42.5 126.999 42.5c54 0 96.667 -14.167 128 -42.5z" />
    <glyph glyph-name="quotedbl" unicode="&#x22;" horiz-adv-x="757" 
d="M634.5 1458c24.333 -24.667 36.502 -57.667 36.502 -99c0 -33.333 -3.66699 -63.833 -11 -91.5s-20 -65.167 -38 -112.5c-27.333 -71.333 -49 -137 -65 -197h-29c-14 50.667 -34.667 112 -62 184c-18.667 48.667 -32.167 88 -40.5 118s-12.5 62.333 -12.5 97
c0 41.333 12.167 74.5 36.5 99.5s55.166 37.833 92.499 38.5c37.333 0 68.166 -12.333 92.499 -37zM305.502 1458c24.333 -24.667 36.502 -57.667 36.502 -99c0 -33.333 -3.66699 -63.833 -11 -91.5s-20 -65.167 -38 -112.5c-27.333 -71.333 -49 -137 -65 -197h-29
c-14 50.667 -34.667 112 -62 184c-18.667 48.667 -32.167 88 -40.5 118s-12.5 62.333 -12.5 97c0 41.333 12.167 74.5 36.5 99.5s55.166 37.833 92.499 38.5c37.333 0 68.166 -12.333 92.499 -37z" />
    <glyph glyph-name="numbersign" unicode="#" horiz-adv-x="1270" 
d="M814 547h300l-8 -41h-300l-58 -299h-41l58 299h-342l-58 -299h-41l58 299h-302l8 41h302l66 342h-300l6 41h302l58 303h41l-58 -303h342l58 303h41l-58 -303h300l-6 -41h-302zM497 889l-66 -342h342l66 342h-342z" />
    <glyph glyph-name="dollar" unicode="$" horiz-adv-x="1176" 
d="M1051 179.5c-32.667 -54.333 -77.3369 -98 -134.004 -131s-121.667 -55.5 -195 -67.5v-251h-41v246c-32 -3.33301 -61.333 -5 -88 -5c-24.667 0 -48 1 -70 3v-244h-41v249c-43.333 6 -78.833 14.167 -106.5 24.5s-59.5 24.5 -95.5 42.5c-40 20 -69 30 -87 30
c-12.667 0 -22.334 -7.16699 -29.001 -21.5s-12 -37.166 -16 -68.499h-47c5.33301 85.333 8 269.666 8 552.999h47c8.66699 -110 25.334 -200.5 50.001 -271.5s59.334 -126.333 104.001 -166s102 -65.167 172 -76.5v601l-6 4c-80 50.667 -145 96.667 -195 138
s-90.833 89.5 -122.5 144.5s-47.5 118.167 -47.5 189.5c0 72.667 16.333 135.167 49 187.5s76.834 93.333 132.501 123s118.834 49.167 189.501 58.5v249h41v-246c21.333 1.33301 37 2 47 2c40 0 77 -2.66699 111 -8v252h41v-260c44.667 -10.667 93.667 -31.667 147 -63
c32 -19.333 55.333 -29 70 -29c12 0 21.333 7 28 21s12.334 37 17.001 69h47c-6.66699 -90 -10 -245.667 -10 -467h-48c-13.333 114 -39.5 207 -78.5 279s-96.5 120 -172.5 144v-561l32 -21c77.333 -48.667 140 -93.5 188 -134.5s86.333 -88.333 115 -142
s43 -115.5 43 -185.5c0 -72.667 -16.333 -136.167 -49 -190.5zM522.997 1424v-433.999c40 -30.667 92.667 -67.334 158 -110.001v544c-22.667 4.66699 -48.667 7 -78 7c-25.333 0 -52 -2.33301 -80 -7zM383.997 1130.5c17.333 -31.667 50 -67.499 98 -107.499v389
c-40.667 -14.667 -71.5 -37 -92.5 -67s-31.5 -65.333 -31.5 -106s8.66699 -76.834 26 -108.501zM680.997 25.002v460c-39.333 30 -92 67.667 -158 113v-578c20 -2 41 -3 63 -3c33.333 0 65 2.66699 95 8zM861.997 228.002c0 27.333 -3.83301 52 -11.5 74s-21.5 45 -41.5 69
s-49 51.333 -87 82v-417c93.333 29.333 140 93.333 140 192z" />
    <glyph glyph-name="percent" unicode="%" horiz-adv-x="1491" 
d="M174 -113l-39 27l1198 1774l39 -27zM574 1519c50 -26.667 89 -64.998 117 -114.998s42 -109.667 42 -179c0 -68 -14.333 -128 -43 -180s-68.334 -92.333 -119.001 -121s-107.667 -43 -171 -43c-66 0 -124 13.167 -174 39.5s-89 64.666 -117 114.999
s-42 109.833 -42 178.5c0 67.333 14.5 127.166 43.5 179.499s68.833 93 119.5 122s107.334 43.5 170.001 43.5c66 0 124 -13.333 174 -40zM263 1217c0 -98 12.5 -172.333 37.5 -223s59.833 -76 104.5 -76c87.333 0 131 101 131 303c0 98.667 -12.167 173.5 -36.5 224.5
s-58.833 76.5 -103.5 76.5c-88.667 0 -133 -101.667 -133 -305zM1263 609.002c50 -26.667 88.835 -65.001 116.502 -115.001s41.5 -109.667 41.5 -179c0 -67.333 -14.333 -127.166 -43 -179.499s-68.334 -92.833 -119.001 -121.5s-107.334 -43 -170.001 -43
c-66 0 -124.167 13.333 -174.5 40s-89.5 65 -117.5 115s-42 109.667 -42 179c0 67.333 14.5 127 43.5 179s68.833 92.5 119.5 121.5s107.667 43.5 171 43.5c66 0 124 -13.333 174 -40zM951.002 307.001c0 -97.333 12.5 -171.5 37.5 -222.5s59.833 -76.5 104.5 -76.5
c87.333 0 131 101 131 303c0 99.333 -12.167 174.333 -36.5 225s-58.833 76 -103.5 76c-88.667 0 -133 -101.667 -133 -305z" />
    <glyph glyph-name="ampersand" unicode="&#x26;" horiz-adv-x="1838" 
d="M1699.5 953c-71 -57.333 -174.16 -100.002 -309.493 -128.002l-38 -13c61.333 -27.333 108.666 -71 141.999 -131s50 -129.333 50 -208c0 -94.667 -29.5 -180.167 -88.5 -256.5s-142.167 -136.333 -249.5 -180s-230.333 -65.5 -369 -65.5
c-150 0 -281.833 20.667 -395.5 62s-201.667 100.333 -264 177s-93.5 167 -93.5 271c0 92.667 24.5 170.834 73.5 234.501s104.833 112 167.5 145s121 56.167 175 69.5c-154.667 60.667 -232 146.667 -232 258c0 56 19.167 104.167 57.5 144.5s88.666 70.666 150.999 90.999
s128.833 30.5 199.5 30.5c86 0 157 -14 213 -42c35.333 -18 64.666 -40.833 87.999 -68.5s35 -60.167 35 -97.5c0 -27.333 -7.16699 -51.333 -21.5 -72s-33.5 -36.667 -57.5 -48s-50 -17 -78 -17c-42.667 0 -78.167 11 -106.5 33s-42.5 53.333 -42.5 94
c0 34.667 12.167 65.834 36.5 93.501s55.833 45.5 94.5 53.5c-11.333 10 -29.333 18.5 -54 25.5s-51.667 10.5 -81 10.5c-48.667 0 -92.334 -10 -131.001 -30s-69.167 -50.167 -91.5 -90.5s-33.5 -89.5 -33.5 -147.5c0 -78.667 26.667 -148.334 80 -209.001
c44.667 10.667 83 16 115 16c24 0 42.667 -4.83301 56 -14.5s20 -22.834 20 -39.501c0 -13.333 -5.5 -23.833 -16.5 -31.5s-24.833 -11.5 -41.5 -11.5c-34.667 0 -78.334 17.333 -131.001 52c-69.333 -35.333 -122.833 -79.166 -160.5 -131.499s-56.5 -118.833 -56.5 -199.5
c0 -132 52.667 -231.333 158 -298s251.666 -100 438.999 -100c94.667 0 185.167 13.833 271.5 41.5s156.666 68.5 210.999 122.5s81.5 118.333 81.5 193c0 124.667 -51.667 211.334 -155 260.001l-121 -34c-85.333 -24.667 -127.666 -37 -126.999 -37
c-75.333 -16.667 -136.833 -33.667 -184.5 -51s-84 -37.833 -109 -61.5s-37.5 -52.167 -37.5 -85.5c0 -32.667 11 -61.5 33 -86.5s50.167 -44.333 84.5 -58s69.166 -20.5 104.499 -20.5c15.333 0 31.333 1.83301 48 5.5s28 8.83398 34 15.501
c-34 10.667 -59.833 27.667 -77.5 51s-26.5 51 -26.5 83c0 42 15.333 75 46 99s70 36 118 36c49.333 0 88 -12.5 116 -37.5s42 -58.833 42 -101.5c0 -61.333 -27 -107.666 -81 -138.999s-123.667 -47 -209 -47c-56.667 0 -108 9.66699 -154 29s-82.667 48.833 -110 88.5
s-41 88.167 -41 145.5c0 102 39 182.833 117 242.5s191.667 104.167 341 133.5c38 8.66699 56.333 13 55 13c108.667 26.667 192.334 49.667 251.001 69c106 26 183.833 54.167 233.5 84.5s74.5 69.833 74.5 118.5c0 35.333 -11 67.166 -33 95.499s-50.833 50.5 -86.5 66.5
s-72.834 24 -111.501 24c-25.333 0 -44.666 -3.33301 -57.999 -10c31.333 -12.667 55.666 -31 72.999 -55s26 -49 26 -75c0 -40.667 -15.333 -72.667 -46 -96s-69.667 -35 -117 -35c-48 0 -86.667 12.167 -116 36.5s-44 57.5 -44 99.5c0 54 23 96.167 69 126.5
s108.333 45.5 187 45.5c64 0 120.5 -11.5 169.5 -34.5s87.333 -56.167 115 -99.5s41.5 -95 41.5 -155c0 -100.667 -35.5 -179.667 -106.5 -237z" />
    <glyph glyph-name="quotesingle" unicode="'" horiz-adv-x="428" 
d="M305.5 1458c24.333 -24.667 36.502 -57.667 36.502 -99c0 -33.333 -3.66699 -63.833 -11 -91.5s-20 -65.167 -38 -112.5c-27.333 -71.333 -49 -137 -65 -197h-29c-14 50.667 -34.667 112 -62 184c-18.667 48.667 -32.167 88 -40.5 118s-12.5 62.333 -12.5 97
c0 41.333 12.167 74.5 36.5 99.5s55.166 37.833 92.499 38.5c37.333 0 68.166 -12.333 92.499 -37z" />
    <glyph glyph-name="parenleft" unicode="(" horiz-adv-x="651" 
d="M202.5 1216.5c-87 -166.333 -130.5 -358.834 -130.5 -577.501s43.5 -411.167 130.5 -577.5s214.167 -311.166 381.5 -434.499l30 26c-90.667 144.667 -156.5 295.334 -197.5 452.001s-61.5 334.667 -61.5 534s20.667 378.166 62 536.499s107 308.166 197 449.499l-30 26
c-167.333 -123.333 -294.5 -268.166 -381.5 -434.499z" />
    <glyph glyph-name="parenright" unicode=")" horiz-adv-x="651" 
d="M448.5 1216.5c87 -166.333 130.5 -358.834 130.5 -577.501s-43.5 -411.167 -130.5 -577.5s-214.167 -311.166 -381.5 -434.499l-30 26c90.667 144.667 156.5 295.334 197.5 452.001s61.5 334.667 61.5 534s-20.667 378.166 -62 536.499s-107 308.166 -197 449.499l30 26
c167.333 -123.333 294.5 -268.166 381.5 -434.499z" />
    <glyph glyph-name="asterisk" unicode="*" horiz-adv-x="984" 
d="M881 898c0 -17.333 -4.99902 -35 -14.999 -53c-19.333 -33.333 -45.666 -50 -78.999 -50c-20 0 -42 6.66699 -66 20c-21.333 12 -42 28.5 -62 49.5s-47.667 52.5 -83 94.5l-76 90c12 -36.667 25.667 -75.334 41 -116.001c18 -49.333 31 -88.166 39 -116.499
s12.333 -54.166 13 -77.499c-0.666992 -38 -10.667 -65.833 -30 -83.5s-43 -26.5 -71 -26.5s-51.5 8.83301 -70.5 26.5s-28.5 45.5 -28.5 83.5c0 24.667 4.16699 51 12.5 79s21.833 67.333 40.5 118c21.333 58.667 34.666 96 39.999 112l-79 -92
c-33.333 -39.333 -60.333 -70 -81 -92s-41.334 -39 -62.001 -51c-22 -12.667 -43.333 -19 -64 -19c-36 0 -63.333 17 -82 51c-10.667 17.333 -16 34.666 -16 51.999c0 34.667 20.667 64 62 88c20.667 12 44.334 21.167 71.001 27.5s67.667 14.5 123 24.5
c48 8 88 15.667 120 23l-119 22c-54.667 9.33301 -95.834 17.5 -123.501 24.5s-51.834 16.167 -72.501 27.5c-40.667 24 -61 53.667 -61 89c0 18.667 5.33301 36.667 16 54c19.333 33.333 45.666 50 78.999 50c20.667 0 42.334 -6.66699 65.001 -20
c21.333 -12 42 -28.5 62 -49.5s47.333 -52.167 82 -93.5l79 -93c-6.66699 21.333 -20.667 60.333 -42 117c-18.667 51.333 -32 90.666 -40 117.999s-12 52.666 -12 75.999c0 38 9.83301 66 29.5 84s43.5 27 71.5 27c27.333 0 50.5 -9 69.5 -27s28.5 -46 28.5 -84
c0 -23.333 -3.83301 -48.666 -11.5 -75.999s-20.5 -64.666 -38.5 -111.999l-42 -120c1.33301 2 27.666 32.667 78.999 92c32.667 39.333 59.5 70 80.5 92s41.5 39 61.5 51c22 12.667 43.667 19 65 19c36.667 0 63.667 -17 81 -51c10.667 -17.333 16 -35 16 -53
c0 -34.667 -20.667 -64 -62 -88c-20.667 -12 -44.667 -21.333 -72 -28s-65.666 -14.334 -114.999 -23.001c-48 -8 -89.333 -15.667 -124 -23c35.333 -7.33301 74.333 -14.666 117 -21.999c54.667 -9.33301 95.834 -17.5 123.501 -24.5s51.5 -16.167 71.5 -27.5
c40.667 -23.333 61 -53.333 61 -90z" />
    <glyph glyph-name="plus" unicode="+" horiz-adv-x="1175" 
d="M1100 758v-62h-476v-481h-73v481h-477v62h477v483h73v-483h476z" />
    <glyph glyph-name="comma" unicode="," horiz-adv-x="555" 
d="M414 216c14 -20.667 24.832 -46.1631 32.499 -76.4961s11.5 -61.833 11.5 -94.5c0 -70.667 -18 -134.834 -54 -192.501s-89.333 -102.834 -160 -135.501l-19 37c38.667 17.333 72.5 42.833 101.5 76.5s46.833 68.5 53.5 104.5c3.33301 13.333 5 28.666 5 45.999
c0 14.667 -1.33301 27.667 -4 39c-30.667 -32.667 -70.667 -49 -120 -49c-48 0 -86.833 14 -116.5 42s-44.5 66.667 -44.5 116c0 47.333 15.833 85.666 47.5 114.999s71.834 44 120.501 44c65.333 0 114 -24 146 -72z" />
    <glyph glyph-name="hyphen" unicode="-" horiz-adv-x="985" 
d="M122 469v170h739v-170h-739z" />
    <glyph glyph-name="period" unicode="." horiz-adv-x="553" 
d="M403 245.5c31.333 -28.333 47 -67.166 47 -116.499c0 -48.667 -15.667 -87.167 -47 -115.5s-74 -42.5 -128 -42.5c-53.333 0 -95.666 14.167 -126.999 42.5s-47 66.833 -47 115.5c0 49.333 15.667 88.166 47 116.499s73.666 42.5 126.999 42.5
c54 0 96.667 -14.167 128 -42.5z" />
    <glyph glyph-name="slash" unicode="/" horiz-adv-x="754" 
d="M65 -29l557 1508h68l-557 -1508h-68z" />
    <glyph glyph-name="zero" unicode="0" horiz-adv-x="1321" 
d="M958.5 1020.5c84.333 -45 150.17 -108.334 197.503 -190.001s71 -176.167 71 -283.5c0 -108.667 -24.333 -206.667 -73 -294s-116.834 -156.166 -204.501 -206.499s-188.167 -75.5 -301.5 -75.5c-106.667 0 -202.334 22.5 -287.001 67.5s-150.834 108.5 -198.501 190.5
s-71.5 177 -71.5 285s24 205.5 72 292.5s116 155.667 204 206s189 75.5 303 75.5c108 0 204.167 -22.5 288.5 -67.5zM521.004 987.499c-38 -42.333 -67.667 -103.499 -89 -183.499s-32 -174.333 -32 -283c0 -118 11.833 -215.333 35.5 -292s55.5 -132.667 95.5 -168
s85 -53 135 -53c49.333 0 93 21.333 131 64s67.667 104.167 89 184.5s32 175.166 32 284.499c0 117.333 -11.833 214 -35.5 290s-55.5 131.667 -95.5 167s-85 53 -135 53c-49.333 0 -93 -21.167 -131 -63.5z" />
    <glyph glyph-name="one" unicode="1" horiz-adv-x="785" 
d="M591.5 104.5c9.66699 -22.333 25.166 -38.166 46.499 -47.499s50.333 -14 87 -14v-43c-5.33301 0 -18.666 0.666992 -39.999 2c-122 4 -203 6 -243 6c-45.333 0 -144 -2 -296 -6c-28 -1.33301 -46.667 -2 -56 -2v43c64.667 0 112.834 12.167 144.501 36.5
s47.5 68.166 47.5 131.499v500c0 66 -5.83301 114.5 -17.5 145.5s-31 51.5 -58 61.5s-68.5 15 -124.5 15v45c119.333 2 217.166 10.833 293.499 26.5s143.5 41.5 201.5 77.5v-883c0 -40.667 4.83301 -72.167 14.5 -94.5z" />
    <glyph glyph-name="two" unicode="2" horiz-adv-x="1072" 
d="M812.5 1019.5c61 -45.667 91.5029 -109.499 91.5029 -191.499c0 -56 -16 -108.167 -48 -156.5s-70.5 -91.333 -115.5 -129s-105.167 -83.167 -180.5 -136.5c-100 -69.333 -168.333 -123.333 -205 -162h444c37.333 0 65 2.83301 83 8.5s30.667 14.667 38 27
s12.666 31.166 15.999 56.499h42c0 -161.333 2.66699 -276.666 8 -345.999c-30.667 6.66699 -132.334 10 -305.001 10h-596v40c17.333 17.333 51.333 49.333 102 96c78.667 71.333 144.667 135.666 198 192.999s99.666 123.333 138.999 198s59 152.667 59 234
c0 139.333 -64 209 -192 209c-56.667 0 -107.167 -13.5 -151.5 -40.5s-85.166 -66.833 -122.499 -119.5l-34 22c101.333 170.667 260.666 256 477.999 256c106.667 0 190.5 -22.833 251.5 -68.5z" />
    <glyph glyph-name="three" unicode="3" horiz-adv-x="999" 
d="M683.5 1059.5c53 -19 94.5029 -46.332 124.503 -81.999s45 -77.5 45 -125.5c0 -51.333 -16.833 -99.666 -50.5 -144.999s-81.834 -84.666 -144.501 -117.999s-136 -58.333 -220 -75l37 1c87.333 0 165.166 -12.167 233.499 -36.5s121.833 -60 160.5 -107
s58 -103.5 58 -169.5c0 -100 -43 -188.833 -129 -266.5s-196.167 -137.834 -330.5 -180.501s-270.5 -64 -408.5 -64v40c90 3.33301 178.333 23.666 265 60.999s158 91 214 161s84 152.667 84 248c0 52.667 -8.66699 100 -26 142s-42.166 75.333 -74.499 100
s-70.5 38.667 -114.5 42c-26.667 -12 -47.5 -20.5 -62.5 -25.5s-29.5 -7.5 -43.5 -7.5c-24.667 0 -37 10 -37 30c0 14.667 6.16699 25.667 18.5 33s27.833 11 46.5 11c9.33301 0 22.666 -1.33301 39.999 -4l32 -3c105.333 73.333 158 164.666 158 273.999
c0 60.667 -16 106 -48 136s-76.667 45 -134 45c-54.667 0 -105 -13.667 -151 -41s-85 -67.333 -117 -120l-36 19c42.667 77.333 97.667 139.333 165 186s155.666 70 264.999 70c67.333 0 127.5 -9.5 180.5 -28.5z" />
    <glyph glyph-name="four" unicode="4" horiz-adv-x="1081" 
d="M812 73v-361.998h-238v363h-559v43l764 971h33v-803h17c37.333 0 65 2.83301 83 8.5s30.5 14.667 37.5 27s12.5 31.166 16.5 56.499h43c0 -145.333 2.66699 -250 8 -314c-22 5.33301 -90.333 8.66602 -205 9.99902zM574 761.002l-371 -476h371v476z" />
    <glyph glyph-name="five" unicode="5" horiz-adv-x="941" 
d="M796 793c-29.333 6.66699 -124.332 10 -284.999 10h-315l-34 -350c81.333 54.667 184.666 82 309.999 82c88 0 162 -14 222 -42s104.5 -66.333 133.5 -115s43.5 -104 43.5 -166c0 -101.333 -39.5 -191.166 -118.5 -269.499s-181.167 -138.833 -306.5 -181.5
s-254 -64 -386 -64v37c86.667 0.666992 168.667 19.334 246 56.001s140 90 188 160s72 153 72 249c0 85.333 -20 151.166 -60 197.499s-98 69.5 -174 69.5c-37.333 0 -70 -4.83301 -98 -14.5s-57.333 -24.834 -88 -45.501l-27 19l64 641c27.333 -5.33301 64.333 -8 111 -8
h337c40 0 67.833 5.66699 83.5 17s25.5 32 29.5 62h43c0 -152 3 -266.667 9 -344z" />
    <glyph glyph-name="six" unicode="6" horiz-adv-x="1150" 
d="M887 848c61.333 -36 110.001 -87.5029 146.001 -154.503s54 -145.5 54 -235.5c0 -100.667 -23 -187.834 -69 -261.501s-107.833 -129.667 -185.5 -168s-163.167 -57.5 -256.5 -57.5c-99.333 0 -185 22.833 -257 68.5s-127.167 112.334 -165.5 200.001
s-57.5 192.5 -57.5 314.5c0 190.667 42.833 352.334 128.5 485.001s190.667 234.334 315 305.001s248.833 116.334 373.5 137.001l8 -41c-88 -28 -164.833 -63.833 -230.5 -107.5s-123.667 -111 -174 -202s-83.833 -212.167 -100.5 -363.5c28 46 66.167 80 114.5 102
s99.833 33 154.5 33c73.333 0 140.666 -18 201.999 -54zM687.501 56.4971c27 29.667 48.833 76.665 65.5 140.998s25 145.5 25 243.5c0 138.667 -16.167 240.334 -48.5 305.001s-74.5 97 -126.5 97c-35.333 0 -71.5 -12.667 -108.5 -38s-65.167 -64 -84.5 -116
c-3.33301 -51.333 -5 -99.666 -5 -144.999c0 -128 9.33301 -231.667 28 -311s42.5 -136 71.5 -170s60.167 -51 93.5 -51c32.667 0 62.5 14.833 89.5 44.5z" />
    <glyph glyph-name="seven" unicode="7" horiz-adv-x="932" 
d="M829 820c-54.667 -100 -99.1689 -186.835 -133.502 -260.502s-64 -157.667 -89 -252s-37.5 -192.833 -37.5 -295.5c0 -5.33301 1.33301 -28 4 -68c4 -48 6 -80.333 6 -97c0 -42 -13 -77.5 -39 -106.5s-63.333 -43.5 -112 -43.5s-85.5 16.333 -110.5 49
s-37.5 76.334 -37.5 131.001c0 84.667 18.167 170.834 54.5 258.501s80 169.334 131 245.001s117.167 167.167 198.5 274.5l114 153h-543c-37.333 0 -65.166 -2.83301 -83.499 -8.5s-31 -14.5 -38 -26.5s-12.5 -31 -16.5 -57h-42c0 165.333 -2.66699 282.666 -8 351.999
c30.667 -6.66699 132.334 -10 305.001 -10h578v-43c-20 -44.667 -53.667 -109.667 -101 -195z" />
    <glyph glyph-name="eight" unicode="8" horiz-adv-x="1149" 
d="M732 840c72.667 -62 130.995 -114.831 174.995 -158.498s81.167 -93 111.5 -148s45.5 -113.5 45.5 -175.5c0 -74.667 -21.667 -141.334 -65 -200.001s-103.166 -104.5 -179.499 -137.5s-162.5 -49.5 -258.5 -49.5c-86 0 -165 13.5 -237 40.5s-129.5 66.833 -172.5 119.5
s-64.5 116.334 -64.5 191.001c0 166.667 111 299 333 397c-55.333 47.333 -101.666 91.666 -138.999 132.999s-67.666 86.5 -90.999 135.5s-35 101.833 -35 158.5c0 70.667 19.667 131.167 59 181.5s91.833 88.166 157.5 113.499s137.834 38 216.501 38
c78 0 147.333 -11.833 208 -35.5s108.167 -57.334 142.5 -101.001s51.5 -93.834 51.5 -150.501c0 -67.333 -23.667 -127.166 -71 -179.499s-117.666 -103.166 -210.999 -152.499c10.667 -9.33301 18.667 -16 24 -20zM464.495 1395.5
c-26.333 -31 -39.502 -72.167 -39.502 -123.5c0 -47.333 11 -92.833 33 -136.5s50.833 -84.667 86.5 -123s79.834 -80.166 132.501 -125.499c26 36.667 45.167 81.5 57.5 134.5s18.5 104.167 18.5 153.5c0 83.333 -16 148.666 -48 195.999s-76.333 71 -133 71
c-45.333 0 -81.166 -15.5 -107.499 -46.5zM723.493 68.502c37 40.333 55.5 93.832 55.5 160.499c0 58 -13.833 112.333 -41.5 163s-61.834 96.167 -102.501 136.5s-94.667 88.833 -162 145.5l-21 18c-74 -77.333 -111 -188.666 -111 -333.999
c0 -104 18.333 -188.333 55 -253s95.334 -97 176.001 -97c64 0 114.5 20.167 151.5 60.5z" />
    <glyph glyph-name="nine" unicode="9" horiz-adv-x="1132" 
d="M826 1021.5c72 -44.333 127.168 -108.998 165.501 -193.998s57.5 -186.833 57.5 -305.5c0 -170.667 -42.167 -315.834 -126.5 -435.501s-188.166 -211.667 -311.499 -276s-245.666 -104.5 -366.999 -120.5l-8 40c81.333 23.333 153.166 53.5 215.499 90.5
s118 92.667 167 167s83.5 172.833 103.5 295.5c-28.667 -42.667 -66.334 -74.167 -113.001 -94.5s-96.667 -30.5 -150 -30.5c-73.333 0 -140.5 18 -201.5 54s-109.5 87.5 -145.5 154.5s-54 145.5 -54 235.5c0 100.667 23 187.667 69 261s107.667 129.166 185 167.499
s162.666 57.5 255.999 57.5c100 0 186 -22.167 258 -66.5zM646.501 253.502c36.333 24.333 64.832 61.167 85.499 110.5c5.33301 55.333 8 111.333 8 168c0 124 -9.33301 224.333 -28 301s-42.5 131.5 -71.5 164.5s-60.167 49.5 -93.5 49.5
c-32.667 0 -62.667 -14.833 -90 -44.5s-49.166 -76.667 -65.499 -141s-24.5 -145.5 -24.5 -243.5c0 -138 16 -239.333 48 -304s74 -97 126 -97c34 0 69.167 12.167 105.5 36.5z" />
    <glyph glyph-name="colon" unicode=":" horiz-adv-x="594" 
d="M423 245.5c31.333 -28.333 47 -67.166 47 -116.499c0 -48.667 -15.667 -87.167 -47 -115.5s-74 -42.5 -128 -42.5c-53.333 0 -95.666 14.167 -126.999 42.5s-47 66.833 -47 115.5c0 49.333 15.667 88.166 47 116.499s73.666 42.5 126.999 42.5
c54 0 96.667 -14.167 128 -42.5zM423 1045.5c31.333 -28.333 47 -67.166 47 -116.499c0 -48.667 -15.667 -87.167 -47 -115.5s-74 -42.5 -128 -42.5c-53.333 0 -95.666 14.167 -126.999 42.5s-47 66.833 -47 115.5c0 49.333 15.667 88.166 47 116.499
s73.666 42.5 126.999 42.5c54 0 96.667 -14.167 128 -42.5z" />
    <glyph glyph-name="semicolon" unicode=";" horiz-adv-x="607" 
d="M438 216c14 -20.667 24.832 -46.1631 32.499 -76.4961s11.5 -61.833 11.5 -94.5c0 -70.667 -18 -134.834 -54 -192.501s-89.333 -102.834 -160 -135.501l-19 37c38.667 17.333 72.5 42.833 101.5 76.5s46.833 68.5 53.5 104.5c3.33301 13.333 5 28.666 5 45.999
c0 14.667 -1.33301 27.667 -4 39c-30.667 -32.667 -70.667 -49 -120 -49c-48 0 -86.833 14 -116.5 42s-44.5 66.667 -44.5 116c0 47.333 15.833 85.666 47.5 114.999s71.834 44 120.501 44c65.333 0 114 -24 146 -72zM430.999 1045.5c31.333 -28.333 47 -67.166 47 -116.499
c0 -48.667 -15.667 -87.167 -47 -115.5s-74 -42.5 -128 -42.5c-53.333 0 -95.666 14.167 -126.999 42.5s-47 66.833 -47 115.5c0 49.333 15.667 88.166 47 116.499s73.666 42.5 126.999 42.5c54 0 96.667 -14.167 128 -42.5z" />
    <glyph glyph-name="less" unicode="&#x3c;" horiz-adv-x="1233" 
d="M251 727l838 -391l-35 -74l-997 465l997 465l35 -74z" />
    <glyph glyph-name="equal" unicode="=" horiz-adv-x="1300" 
d="M136 840v61h1026v-61h-1026zM136 553v61h1026v-61h-1026z" />
    <glyph glyph-name="greater" unicode="&#x3e;" horiz-adv-x="1233" 
d="M982 727l-838 -391l35 -74l997 465l-997 465l-35 -74z" />
    <glyph glyph-name="question" unicode="?" horiz-adv-x="1040" 
d="M741 1557.5c74 -29.667 131.499 -72.332 172.499 -127.999s61.5 -121.167 61.5 -196.5c0 -112 -46.667 -206.667 -140 -284s-220.666 -134.333 -381.999 -171v-299h-41v318c73.333 32 129.666 68.167 168.999 108.5s66 83.666 80 129.999s21 99.166 21 158.499
c0 124 -22.5 216.167 -67.5 276.5s-106.167 90.5 -183.5 90.5c-39.333 0 -74.666 -4.33301 -105.999 -13s-55 -22 -71 -40c76 -24.667 114 -74.667 114 -150c0 -43.333 -15.167 -78.833 -45.5 -106.5s-69.5 -41.5 -117.5 -41.5c-28 0 -53 6.33301 -75 19
s-39 29.834 -51 51.501s-18 45.5 -18 71.5c0 71.333 39 130.333 117 177c81.333 48.667 183.333 73 306 73c97.333 0 183 -14.833 257 -44.5zM562.999 245.502c31.333 -28.333 47 -67.166 47 -116.499c0 -48.667 -15.667 -87.167 -47 -115.5s-74 -42.5 -128 -42.5
c-53.333 0 -95.666 14.167 -126.999 42.5s-47 66.833 -47 115.5c0 49.333 15.667 88.166 47 116.499s73.666 42.5 126.999 42.5c54 0 96.667 -14.167 128 -42.5z" />
    <glyph glyph-name="at" unicode="@" horiz-adv-x="1810" 
d="M976 194c0 26.667 3.99609 56.6709 11.9961 90.0039c-36 -80.667 -78.167 -139.334 -126.5 -176.001s-103.166 -55 -164.499 -55c-74 0 -132 22.667 -174 68s-63 111.333 -63 198c0 96.667 23.333 196.667 70 300s107.834 189.166 183.501 257.499
s154.5 102.5 236.5 102.5c42.667 0 77.5 -11.167 104.5 -33.5s44.833 -51.833 53.5 -88.5l19 93c108.667 0 195 9.66699 259 29l-162 -739c-6.66699 -26.667 -10.334 -48.334 -11.001 -65.001v-10c0 -31.333 11 -47 33 -47c6 0 14.667 1.66699 26 5
c62 18 126.333 57 193 117s123 138.667 169 236s69 207.666 69 330.999c0 121.333 -27 221 -81 299s-126.667 135 -218 171s-194.666 54 -309.999 54c-166.667 0 -324 -47.5 -472 -142.5s-266.667 -222 -356 -381s-134 -329.167 -134 -510.5c0 -136 26.5 -248 79.5 -336
s126.333 -152.333 220 -193s202.5 -61 326.5 -61c158 0 298.667 37 422 111l15 -27c-53.333 -37.333 -117.666 -66.833 -192.999 -88.5s-157.333 -32.5 -246 -32.5c-132.667 0 -248.834 22.167 -348.501 66.5s-177.334 113 -233.001 206s-83.5 209.833 -83.5 350.5
c0 182 44.833 356 134.5 522s211.334 299.667 365.001 401s320.834 152 501.501 152c126 0 237.833 -19.833 335.5 -59.5s174.667 -101.5 231 -185.5s84.5 -190 84.5 -318c0 -145.333 -31 -275.333 -93 -390s-140.167 -203.667 -234.5 -267s-187.166 -95 -278.499 -95
c-107.333 0 -161 47 -161 141zM925.496 232.004c37.667 53.333 71.832 130.001 102.499 230.001l64 316c0 35.333 -8 65.666 -24 90.999s-38.667 38 -68 38c-43.333 0 -86.666 -29 -129.999 -87s-78.833 -132.5 -106.5 -223.5s-41.5 -182.5 -41.5 -274.5
c0 -61.333 7.16699 -105 21.5 -131s35.5 -39 63.5 -39c41.333 0 80.833 26.667 118.5 80z" />
    <glyph glyph-name="A" unicode="A" horiz-adv-x="1366" 
d="M1311.5 73.5c23 -20.333 45.834 -31.1709 68.501 -32.5039v-41c-81.333 4 -185 6 -311 6c-140 0 -244 -2 -312 -6v41c51.333 2 88.166 8.33301 110.499 19s33.5 29.334 33.5 56.001c0 24 -8 56.333 -24 97l-123 336h-445l-55 -142c-37.333 -96 -56 -171.667 -56 -227
c0 -50.667 15.167 -86.167 45.5 -106.5s75.833 -31.166 136.5 -32.499v-41c-93.333 4 -178.333 6 -255 6c-64 0 -116.333 -2 -157 -6v41c68.667 12.667 128 84.334 178 215.001l466 1198c22 -2 45.667 -3 71 -3s49 1 71 3l497 -1282
c17.333 -45.333 37.5 -78.166 60.5 -98.499zM536.001 1141l-212 -551h415z" />
    <glyph glyph-name="B" unicode="B" horiz-adv-x="1375" 
d="M1095 694.5c76.667 -35.667 132.17 -79.3271 166.503 -130.994s51.5 -107.167 51.5 -166.5c0 -84.667 -22.5 -156.834 -67.5 -216.501s-109.833 -104.667 -194.5 -135s-185.667 -45.5 -303 -45.5l-99 2c-90.667 2.66699 -179.334 4 -266.001 4
c-140.667 0 -245.667 -2 -315 -6v41c46 2 79.167 7.33301 99.5 16s34.333 24.667 42 48s11.5 60.666 11.5 111.999v1016c0 51.333 -3.83301 88.666 -11.5 111.999s-21.834 39.333 -42.501 48s-53.667 14 -99 16v41c69.333 -4 173 -6 311 -6c25.333 0 102 1 230 3l92 1
c110 0 202.833 -13.5 278.5 -40.5s132.5 -64.667 170.5 -113s57 -104.5 57 -168.5c0 -50.667 -14.667 -100.334 -44 -149.001s-74.833 -91.834 -136.5 -129.501s-137.834 -64.834 -228.501 -81.501v-4c121.333 -9.33301 220.333 -31.833 297 -67.5zM593.503 1394.51
c-17.667 -9.66699 -29.8311 -26.832 -36.498 -51.499s-10 -61.334 -10 -110.001v-463h88c89.333 0 151.666 30.333 186.999 91s53 141.667 53 243c0 102.667 -15.833 179.167 -47.5 229.5s-82.834 75.5 -153.501 75.5c-36 0 -62.833 -4.83301 -80.5 -14.5zM904.006 138.009
c46 60.667 69.001 149.999 69.001 267.999c0 107.333 -27.167 189 -81.5 245s-140.5 84 -258.5 84h-86v-518c0 -49.333 3.66699 -85.666 11 -108.999s20.666 -39.333 39.999 -48s49.333 -13 90 -13c98 0 170 30.333 216 91z" />
    <glyph glyph-name="C" unicode="C" horiz-adv-x="1445" 
d="M1020 1444c57.333 -23.333 113.334 -56.002 168.001 -98.002c14.667 -12 28 -18 40 -18c27.333 0 45 40.667 53 122h47c-5.33301 -93.333 -8 -258.666 -8 -495.999h-48c-8 68.667 -17.167 124.334 -27.5 167.001s-25.333 80.5 -45 113.5s-46.834 63.167 -81.501 90.5
c-33.333 32.667 -72.5 57.667 -117.5 75s-92.167 26 -141.5 26c-93.333 0 -170.5 -32.333 -231.5 -97s-105.667 -150.167 -134 -256.5s-42.5 -223.5 -42.5 -351.5s14.833 -244.833 44.5 -350.5s75.667 -190.334 138 -254.001s140.166 -95.5 233.499 -95.5
c46.667 0 92.834 8.5 138.501 25.5s84.5 41.5 116.5 73.5c34.667 26.667 61.667 57.667 81 93s34 76.333 44 123s18.333 106.667 25 180h48c0 -247.333 2.66699 -419.333 8 -516h-47c-4 42.667 -9.83301 73.5 -17.5 92.5s-18.5 28.5 -32.5 28.5
c-11.333 0 -25.666 -5.66699 -42.999 -17c-40 -28.667 -77.167 -52.167 -111.5 -70.5s-73.5 -33.333 -117.5 -45s-93.667 -17.5 -149 -17.5c-144.667 0 -271.5 29.333 -380.5 88s-193.333 143.834 -253 255.501s-89.5 244.5 -89.5 398.5c0 150.667 30.667 284 92 400
s147 206 257 270s235.333 96 376 96c81.333 0 150.666 -11.667 207.999 -35z" />
    <glyph glyph-name="D" unicode="D" horiz-adv-x="1589" 
d="M1298.5 1269c132.333 -120.667 198.5 -296.664 198.5 -527.997c0 -148.667 -32.333 -278.834 -97 -390.501s-158.167 -198 -280.5 -259s-268.166 -91.5 -437.499 -91.5c-33.333 0 -74.666 1 -123.999 3c-120 2 -178.333 3 -175 3c-140.667 0 -245.667 -2 -315 -6v41
c46 2 79.167 7.33301 99.5 16s34.333 24.667 42 48s11.5 60.666 11.5 111.999v1016c0 51.333 -3.83301 88.666 -11.5 111.999s-21.834 39.333 -42.501 48s-53.667 14 -99 16v41c87.333 -4.66699 169.666 -7 246.999 -7l64 1l88 2c110.667 2.66699 188.667 4 234 4
c266 0 465.167 -60.333 597.5 -181zM603 1398.5c-21.333 -9.66699 -36.001 -26.833 -44.001 -51.5s-12 -61.334 -12 -110.001v-1024c0 -49.333 4 -86.166 12 -110.499s22.833 -41.333 44.5 -51s54.167 -14.5 97.5 -14.5c112.667 0 202.5 26.5 269.5 79.5
s114.833 130.333 143.5 232s43 229.834 43 384.501c0 156 -15.333 283.667 -46 383s-79.667 173.666 -147 222.999s-155.666 74 -264.999 74c-42.667 0 -74.667 -4.83301 -96 -14.5z" />
    <glyph glyph-name="E" unicode="E" horiz-adv-x="1298" 
d="M1204 0c-92.667 4 -248.999 5.99902 -468.999 5.99902c-296 0 -518.333 -2 -667 -6v41c46 2 79.167 7.33301 99.5 16s34.333 24.667 42 48s11.5 60.666 11.5 111.999v1016c0 51.333 -3.83301 88.666 -11.5 111.999s-21.834 39.333 -42.501 48s-53.667 14 -99 16v41
c148.667 -4 371 -6 667 -6c201.333 0 344 2 428 6c-9.33301 -112.667 -14 -213.667 -14 -303c0 -59.333 2 -105.666 6 -138.999h-47c-13.333 98.667 -34.333 176.834 -63 234.501s-65.167 98.834 -109.5 123.501s-98.833 37 -163.5 37h-84c-42 0 -72.5 -3.33301 -91.5 -10
s-32 -20 -39 -40s-10.5 -52 -10.5 -96v-507h66c73.333 0 128.666 26.667 165.999 80s63.333 116.666 78 189.999h47c-4.66699 -67.333 -7 -131.666 -7 -192.999l1 -98c0 -69.333 4 -166.333 12 -291h-47c-26.667 180.667 -110 271 -250 271h-66v-516c0 -44 3.5 -76 10.5 -96
s20 -33.333 39 -40s49.5 -10 91.5 -10h101c64 0 119.5 13.833 166.5 41.5s86.833 73.5 119.5 137.5s57.334 149.667 74.001 257h47c-4 -44 -6 -101.333 -6 -172c0 -111.333 4.66699 -215 14 -311z" />
    <glyph glyph-name="F" unicode="F" horiz-adv-x="1213" 
d="M1149 1139c0 -66 2.00293 -117.997 6.00293 -155.997h-47c-18 105.333 -42.167 188.5 -72.5 249.5s-68 104.667 -113 131s-100.5 39.5 -166.5 39.5h-68c-42 0 -72.5 -3.33301 -91.5 -10s-32 -20 -39 -40s-10.5 -52 -10.5 -96v-516h72
c73.333 0 128.666 26.833 165.999 80.5s63 117.167 77 190.5h48c-5.33301 -80 -8 -146.333 -8 -199l1 -92c0 -71.333 4.33301 -168.333 13 -291h-47c-28 180 -111.333 270 -250 270h-72v-471c0 -54.667 5.66699 -94.5 17 -119.5s31.666 -41.833 60.999 -50.5
s76.333 -13.334 141 -14.001v-45c-112 4 -236.333 6 -373 6c-98 0 -206.333 -2 -325 -6v41c46 2 79.167 7.33301 99.5 16s34.333 24.667 42 48s11.5 60.666 11.5 111.999v1016c0 51.333 -3.83301 88.666 -11.5 111.999s-21.834 39.333 -42.501 48s-53.667 14 -99 16v41
c148.667 -4 371 -6 667 -6c201.333 0 344 2 428 6c-9.33301 -116 -14 -219.667 -14 -311z" />
    <glyph glyph-name="G" unicode="G" horiz-adv-x="1505" 
d="M1043 1444.5c58.667 -23 115.663 -55.834 170.996 -98.501c15.333 -13.333 29 -20 41 -20c14 0 25 10 33 30s14 51.333 18 94h47c-5.33301 -93.333 -8 -258.666 -8 -495.999h-47c-10.667 92.667 -26.667 167.667 -48 225s-56.666 106 -105.999 146
c-33.333 31.333 -74 56 -122 74s-96.667 27 -146 27c-95.333 0 -174.666 -32.5 -237.999 -97.5s-110.166 -150.833 -140.499 -257.5s-45.5 -223 -45.5 -349c0 -473.333 131 -710 393 -710c57.333 0 105.666 13.333 144.999 40c18.667 13.333 31.667 28.166 39 44.499
s11 37.166 11 62.499v201c0 64 -5.33301 110.833 -16 140.5s-30 50 -58 61s-72.333 17.833 -133 20.5v41c78.667 -4.66699 195.334 -7 350.001 -7c125.333 0 217 2.33301 275 7v-41c-28 -2.66699 -48.167 -8.16699 -60.5 -16.5s-20.833 -24 -25.5 -47s-7 -60.5 -7 -112.5
v-406h-41c-1.33301 28.667 -7.16602 55.334 -17.499 80.001s-24.5 37 -42.5 37c-22 0 -58.667 -14 -110 -42c-119.333 -69.333 -231.333 -104 -336 -104c-158 0 -291.5 29.167 -400.5 87.5s-191.333 142.5 -247 252.5s-83.5 242.333 -83.5 397
c0 152.667 31.5 287.334 94.5 404.001s150.667 207 263 271s240.166 96 383.499 96c84.667 0 156.334 -11.5 215.001 -34.5z" />
    <glyph glyph-name="H" unicode="H" horiz-adv-x="1639" 
d="M1469 1393c-20.667 -8.66699 -34.832 -24.667 -42.499 -48s-11.5 -60.666 -11.5 -111.999v-1016c0 -51.333 3.83301 -88.666 11.5 -111.999s22 -39.333 43 -48s54.167 -14 99.5 -16v-41c-66.667 4 -170.334 6 -311.001 6c-138.667 0 -246 -2 -322 -6v41
c46 2 79.333 7.33301 100 16s34.834 24.667 42.501 48s11.5 60.666 11.5 111.999v492h-543v-492c0 -51.333 3.83301 -88.666 11.5 -111.999s21.834 -39.333 42.501 -48s54 -14 100 -16v-41c-74 4 -177.333 6 -310 6c-146 0 -253.667 -2 -323 -6v41
c46 2 79.167 7.33301 99.5 16s34.333 24.667 42 48s11.5 60.666 11.5 111.999v1016c0 51.333 -3.83301 88.666 -11.5 111.999s-21.834 39.333 -42.501 48s-53.667 14 -99 16v41c69.333 -4 177 -6 323 -6c132.667 0 236 2 310 6v-41c-46 -2 -79.333 -7.33301 -100 -16
s-34.834 -24.667 -42.501 -48s-11.5 -60.666 -11.5 -111.999v-483h543v483c0 51.333 -3.83301 88.666 -11.5 111.999s-21.834 39.333 -42.501 48s-54 14 -100 16v41c76 -4 183.333 -6 322 -6c140.667 0 244.334 2 311.001 6v-41c-46 -2 -79.333 -7.33301 -100 -16z" />
    <glyph glyph-name="I" unicode="I" horiz-adv-x="770" 
d="M601 1393c-20.667 -8.66699 -34.833 -24.667 -42.5 -48s-11.5 -60.666 -11.5 -111.999v-1016c0 -51.333 3.83301 -88.666 11.5 -111.999s21.834 -39.333 42.501 -48s54 -14 100 -16v-41c-74 4 -177.333 6 -310 6c-146 0 -253.667 -2 -323 -6v41
c46 2 79.167 7.33301 99.5 16s34.333 24.667 42 48s11.5 60.666 11.5 111.999v1016c0 51.333 -3.83301 88.666 -11.5 111.999s-21.834 39.333 -42.501 48s-53.667 14 -99 16v41c69.333 -4 177 -6 323 -6c132.667 0 236 2 310 6v-41c-46 -2 -79.333 -7.33301 -100 -16z" />
    <glyph glyph-name="J" unicode="J" horiz-adv-x="746" 
d="M591 1393c-20.667 -8.66699 -34.8311 -24.665 -42.498 -47.998s-11.5 -60.666 -11.5 -111.999v-750v-107c0 -94.667 -2.16699 -177 -6.5 -247s-13.833 -130 -28.5 -180c-18.667 -64 -51.334 -121.167 -98.001 -171.5s-105.834 -90 -177.501 -119
s-152.5 -43.5 -242.5 -43.5c-86.667 0 -155.334 12.667 -206.001 38c-67.333 33.333 -101 83 -101 149c0 41.333 15 74.666 45 99.999s69.667 38 119 38c47.333 0 85 -11.667 113 -35s42 -56.666 42 -99.999c0 -30.667 -9 -58 -27 -82s-44 -41.333 -78 -52
c14.667 -10 39.334 -15 74.001 -15c50 0 93 13.5 129 40.5s62 62.5 78 106.5c12 34.667 20.833 71.667 26.5 111s9.16699 86.166 10.5 140.499s2 135.166 2 242.499v936c0 51.333 -3.83301 88.666 -11.5 111.999s-21.834 39.333 -42.501 48s-53.667 14 -99 16v41
c66.667 -4 170.334 -6 311.001 -6c138.667 0 246 2 322 6v-41c-46 -2 -79.333 -7.33301 -100 -16z" />
    <glyph glyph-name="K" unicode="K" horiz-adv-x="1463" 
d="M1396.5 89.5c21.667 -19 49.834 -35.1641 84.501 -48.4971v-41c-94.667 4 -201.334 6 -320.001 6c-90 0 -176.667 -2 -260 -6v41c38.667 1.33301 66.5 5.16602 83.5 11.499s25.5 16.166 25.5 29.499c0 10 -7 27 -21 51l-298 481c-19.333 30.667 -35.833 53.667 -49.5 69
s-27.5 26.166 -41.5 32.499s-31.667 10.5 -53 12.5v-511c0 -51.333 3.83301 -88.666 11.5 -111.999s21.834 -39.333 42.501 -48s54 -14 100 -16v-41c-74 4 -177.333 6 -310 6c-146 0 -253.667 -2 -323 -6v41c46 2 79.167 7.33301 99.5 16s34.333 24.667 42 48
s11.5 60.666 11.5 111.999v1016c0 51.333 -3.83301 88.666 -11.5 111.999s-21.834 39.333 -42.501 48s-53.667 14 -99 16v41c69.333 -4 177 -6 323 -6c132.667 0 236 2 310 6v-41c-46 -2 -79.333 -7.33301 -100 -16s-34.834 -24.667 -42.501 -48
s-11.5 -60.666 -11.5 -111.999v-461c54 3.33301 104.167 20 150.5 50s97.5 77.333 153.5 142l120 146c62.667 74 94 137.333 94 190c0 34 -13.167 60.5 -39.5 79.5s-63.166 29.167 -110.499 30.5v40c100 -4 200.667 -6 302 -6c79.333 0 144 2 194 6v-40
c-108.667 -23.333 -208 -88.333 -298 -195l-256 -305l477 -744c20 -32 40.833 -57.5 62.5 -76.5z" />
    <glyph glyph-name="L" unicode="L" horiz-adv-x="1251" 
d="M605.5 1393c-22.333 -8.66699 -37.667 -24.666 -46 -47.999s-12.5 -60.666 -12.5 -111.999v-1040c0 -44 3.33301 -76 10 -96s18.667 -33.333 36 -40s45 -10 83 -10h100c62 0 118.833 19 170.5 57s95 91.5 130 160.5s59.167 148.833 72.5 239.5h47
c-4 -46.667 -6 -106.667 -6 -180c0 -116.667 4.66699 -224.667 14 -324c-92.667 4 -249 6 -469 6c-296 0 -518.333 -2 -667 -6v41c46 2 79.167 7.33301 99.5 16s34.333 24.667 42 48s11.5 60.666 11.5 111.999v1016c0 51.333 -3.83301 88.666 -11.5 111.999
s-21.834 39.333 -42.501 48s-53.667 14 -99 16v41c69.333 -4 177 -6 323 -6c138.667 0 246 2 322 6v-41c-49.333 -2 -85.166 -7.33301 -107.499 -16z" />
    <glyph glyph-name="M" unicode="M" horiz-adv-x="1899" 
d="M1730 1393c-20.667 -8.66699 -34.8291 -24.668 -42.4961 -48.001s-11.5 -60.666 -11.5 -111.999v-1016c0 -51.333 3.83301 -88.666 11.5 -111.999s21.834 -39.333 42.501 -48s54 -14 100 -16v-41c-76 4 -183.333 6 -322 6c-146 0 -254 -2 -324 -6v41
c49.333 2 85.166 7.33301 107.499 16s37.666 24.667 45.999 48s12.5 60.666 12.5 111.999v1066l-493 -1286h-33l-553 1321v-982c0 -81.333 4.16699 -140.666 12.5 -177.999s26.166 -64.666 53.499 -81.999s71.666 -29 132.999 -35v-41c-52.667 4 -126.667 6 -222 6
c-75.333 0 -134.666 -2 -177.999 -6v41c44.667 6 77.667 17.5 99 34.5s35.833 43.167 43.5 78.5s11.5 87.666 11.5 156.999v922c0 51.333 -3.83301 88.666 -11.5 111.999s-21.834 39.333 -42.501 48s-54 14 -100 16v41c43.333 -4 102.666 -6 177.999 -6
c126.667 0 234.667 2 324 6l413 -996l378 990h145c138.667 0 246 2 322 6v-41c-46 -2 -79.333 -7.33301 -100 -16z" />
    <glyph glyph-name="N" unicode="N" horiz-adv-x="1478" 
d="M1319 1374.5c-21.333 -17 -35.832 -43.166 -43.499 -78.499s-11.5 -87.666 -11.5 -156.999v-1143c-10 0.666992 -26.333 1 -49 1c-24 0 -42.667 -0.333008 -56 -1l-888 1126v-786c0 -81.333 4.16699 -140.666 12.5 -177.999s26.166 -64.666 53.499 -81.999
s71.666 -29 132.999 -35v-41c-52.667 4 -126.667 6 -222 6c-75.333 0 -134.666 -2 -177.999 -6v41c44.667 6 77.667 17.5 99 34.5s35.833 43.167 43.5 78.5s11.5 87.666 11.5 156.999v922c0 51.333 -3.83301 88.666 -11.5 111.999s-21.834 39.333 -42.501 48s-54 14 -100 16
v41c43.333 -4 102.666 -6 177.999 -6c70 0 129 2 177 6l792 -977v641c0 81.333 -4.16699 140.666 -12.5 177.999s-26.166 64.666 -53.499 81.999s-71.666 29 -132.999 35v41c53.333 -4 127.333 -6 222 -6c76 0 135.333 2 178 6v-41c-44.667 -6 -77.667 -17.5 -99 -34.5z" />
    <glyph glyph-name="O" unicode="O" horiz-adv-x="1623" 
d="M1192 1391c108.667 -58.667 193.001 -143.834 253.001 -255.501s90 -244.5 90 -398.5c0 -150.667 -30.833 -284 -92.5 -400s-147.334 -206 -257.001 -270s-234.834 -96 -375.501 -96c-144.667 0 -271.5 29.333 -380.5 88s-193.333 143.834 -253 255.501
s-89.5 244.5 -89.5 398.5c0 150.667 30.667 284 92 400s147 206 257 270s235.333 96 376 96c144.667 0 271.334 -29.333 380.001 -88zM605.001 1350.5c-56.667 -61 -100.499 -146.001 -131.499 -255.001s-46.5 -233.833 -46.5 -374.5
c0 -141.333 17.333 -266.166 52 -374.499s81.834 -191.833 141.501 -250.5s125.5 -88 197.5 -88c75.333 0 141.5 30.5 198.5 91.5s101 146 132 255s46.5 233.833 46.5 374.5c0 142 -17.333 267 -52 375s-81.834 191.333 -141.501 250s-125.834 88 -198.501 88
c-75.333 0 -141.333 -30.5 -198 -91.5z" />
    <glyph glyph-name="P" unicode="P" horiz-adv-x="1312" 
d="M547 229c0 -54.667 5.66895 -94.4951 17.002 -119.495s31.666 -41.833 60.999 -50.5s76.333 -13.334 141 -14.001v-45c-112 4 -236.333 6 -373 6c-98 0 -206.333 -2 -325 -6v41c46 2 79.167 7.33301 99.5 16s34.333 24.667 42 48s11.5 60.666 11.5 111.999v1016
c0 51.333 -3.83301 88.666 -11.5 111.999s-21.834 39.333 -42.501 48s-53.667 14 -99 16v41c69.333 -4 173 -6 311 -6c25.333 0 102 1 230 3l92 1c124 0 228.333 -16.833 313 -50.5s148.167 -80.834 190.5 -141.501s63.5 -131.334 63.5 -212.001
c0 -75.333 -18.833 -147.5 -56.5 -216.5s-102 -126.5 -193 -172.5s-211.833 -69 -362.5 -69h-109v-357zM593.502 1394.5c-17.667 -9.66699 -29.833 -26.833 -36.5 -51.5s-10 -61.334 -10 -110.001v-606h88c111.333 0 188 35.5 230 106.5s63 167.167 63 288.5
c0 132.667 -19.667 230.334 -59 293.001s-104.333 94 -195 94c-36 0 -62.833 -4.83301 -80.5 -14.5z" />
    <glyph glyph-name="Q" unicode="Q" horiz-adv-x="1623" 
d="M1458 -305c-30 -24.667 -67.6719 -44.166 -113.005 -58.499s-95.666 -21.5 -150.999 -21.5c-51.333 0 -102.666 6 -153.999 18s-100.333 27 -147 45s-106.667 43 -180 75c-97.333 41.333 -161 67.666 -191 78.999c-24 8.66699 -40.333 13.334 -49 14.001
c-60.667 -28.667 -117.667 -43 -171 -43c-29.333 0 -52.5 4.5 -69.5 13.5s-25.5 22.5 -25.5 40.5c0 36.667 37 55 111 55c48.667 0 100.334 -9.66699 155.001 -29c40 10.667 91.667 29.667 155 57c28 12.667 57 24.667 87 36
c-127.333 12.667 -238.166 49.834 -332.499 111.501s-167.166 145.667 -218.499 252s-77 230.833 -77 373.5c0 150.667 30.667 284 92 400s147 206 257 270s235.333 96 376 96c144.667 0 271.334 -29.333 380.001 -88s193 -143.834 253 -255.501s90 -244.5 90 -398.5
c0 -145.333 -28.833 -274.833 -86.5 -388.5s-138.334 -203.334 -242.001 -269.001s-222.167 -101.5 -355.5 -107.5c-31.333 -4 -59.666 -10 -84.999 -18s-56.333 -19.667 -93 -35c-48 -20 -90.667 -35.333 -128 -46l144 -12c187.333 -16 320 -24 398 -24
c55.333 0 106.666 3 153.999 9c84.667 10 151.5 28.5 200.5 55.5s89.833 68.167 122.5 123.5l36 -11c-22.667 -154.667 -70 -261 -142 -319zM478.995 346.501c34.667 -108.333 81.835 -191.834 141.502 -250.501s125.5 -88 197.5 -88c75.333 0 141.5 30.5 198.5 91.5
s101 146 132 255s46.5 233.833 46.5 374.5c0 142 -17.333 267 -52 375s-81.834 191.333 -141.501 250s-125.834 88 -198.501 88c-75.333 0 -141.333 -30.5 -198 -91.5s-100.5 -146 -131.5 -255s-46.5 -233.833 -46.5 -374.5c0 -141.333 17.333 -266.166 52 -374.499z" />
    <glyph glyph-name="R" unicode="R" horiz-adv-x="1417" 
d="M1337.5 -1c-42.333 -18.667 -93.501 -27.999 -153.501 -27.999c-78 0 -140 16.667 -186 50s-76.333 90.666 -91 171.999l-36 204c-11.333 66.667 -23.666 120 -36.999 160s-32.166 71.833 -56.499 95.5s-56.833 35.5 -97.5 35.5h-133v-471
c0 -51.333 3.83301 -88.666 11.5 -111.999s21.834 -39.333 42.501 -48s54 -14 100 -16v-41c-74 4 -177.333 6 -310 6c-146 0 -253.667 -2 -323 -6v41c46 2 79.167 7.33301 99.5 16s34.333 24.667 42 48s11.5 60.666 11.5 111.999v1016
c0 51.333 -3.83301 88.666 -11.5 111.999s-21.834 39.333 -42.501 48s-53.667 14 -99 16v41c69.333 -4 173 -6 311 -6c25.333 0 102 1 230 3l92 1c188 0 329.5 -30.833 424.5 -92.5s142.5 -149.5 142.5 -263.5c0 -61.333 -14.333 -119.333 -43 -174
s-77.167 -102.167 -145.5 -142.5s-158.833 -66.833 -271.5 -79.5h1c82.667 -7.33301 150.667 -21.333 204 -42s95.166 -49.5 125.499 -86.5s51.5 -84.167 63.5 -141.5l46 -211c11.333 -55.333 24 -93.666 38 -114.999s33.667 -32 59 -32c16.667 0 31.167 3.66699 43.5 11
s25.5 19.333 39.5 36l28 -25c-36.667 -42 -76.167 -72.333 -118.5 -91zM593.499 1394.5c-17.667 -9.66699 -29.833 -26.8301 -36.5 -51.4971s-10 -61.334 -10 -110.001v-504h88c76.667 0 136.5 14.667 179.5 44s72.667 68.666 89 117.999s24.5 108.666 24.5 177.999
c0 112 -19.833 196.667 -59.5 254s-104.5 86 -194.5 86c-36 0 -62.833 -4.83301 -80.5 -14.5z" />
    <glyph glyph-name="S" unicode="S" horiz-adv-x="1196" 
d="M751 1455.5c42.667 -13.667 85.332 -33.1631 127.999 -58.4961c32 -19.333 55 -29 69 -29c12.667 0 22.334 7 29.001 21s12.334 37 17.001 69h47c-7.33301 -84.667 -11 -240.334 -11 -467.001h-47c-4.66699 74.667 -21 145.167 -49 211.5s-67.5 120.333 -118.5 162
s-111.167 62.5 -180.5 62.5c-44 0 -83 -8.5 -117 -25.5s-60.5 -41.167 -79.5 -72.5s-28.5 -68.333 -28.5 -111c0 -48 10.667 -89.667 32 -125s50.833 -68 88.5 -98s95.834 -71.333 174.501 -124c22.667 -14 42.334 -27 59.001 -39c79.333 -52.667 142.333 -99 189 -139
s84.5 -86.333 113.5 -139s43.5 -114 43.5 -184c0 -86.667 -22.667 -160 -68 -220s-106.333 -104.833 -183 -134.5s-162.334 -44.5 -257.001 -44.5c-76 0 -139 6.83301 -189 20.5s-96.667 32.167 -140 55.5c-30.667 19.333 -54 29 -70 29
c-12.667 0 -22.334 -7.16699 -29.001 -21.5s-12 -37.166 -16 -68.499h-47c5.33301 85.333 8 269.666 8 552.999h47c9.33301 -152.667 43.333 -276.5 102 -371.5s149 -142.5 271 -142.5c48.667 0 92.167 8.66699 130.5 26s68.5 43.166 90.5 77.499s33 76.166 33 125.499
c0 53.333 -12.5 101.333 -37.5 144s-58.667 81.5 -101 116.5s-98.5 75.167 -168.5 120.5c-82 52 -147.5 97.833 -196.5 137.5s-89.333 86.667 -121 141s-47.5 117.166 -47.5 188.499c0 82.667 21 152 63 208s97.667 97.667 167 125s145.666 41 228.999 41
c71.333 0 128.333 -6.83301 171 -20.5z" />
    <glyph glyph-name="T" unicode="T" horiz-adv-x="1368" 
d="M1300 1102c0 -66 2.00293 -118 6.00293 -156h-47c-22.667 114.667 -50.334 205.167 -83.001 271.5s-72 113.833 -118 142.5s-101.667 43 -167 43h-45v-1169c0 -57.333 5.66699 -99 17 -125s31.833 -43.667 61.5 -53s76.5 -14.333 140.5 -15v-41c-116 4 -246 6 -390 6
c-141.333 0 -266 -2 -374 -6v41c64 0.666992 110.833 5.66699 140.5 15s50.167 27 61.5 53s17 67.667 17 125v1169h-45c-66 0 -121.833 -14.333 -167.5 -43s-84.834 -76.167 -117.501 -142.5s-60.667 -156.833 -84 -271.5h-47c4 38 6 90 6 156c0 102 -4.66699 218 -14 348
c123.333 -4 334.333 -6 633 -6c297.333 0 507.666 2 630.999 6c-10 -126.667 -15 -242.667 -15 -348z" />
    <glyph glyph-name="U" unicode="U" horiz-adv-x="1410" 
d="M1274 1374.5c-21.333 -17 -35.833 -43.167 -43.5 -78.5s-11.5 -87.666 -11.5 -156.999v-543c0 -95.333 -6.33301 -178.833 -19 -250.5s-34.334 -132.834 -65.001 -183.501c-36 -60.667 -88.667 -107.667 -158 -141s-154.666 -50 -255.999 -50
c-159.333 0 -282.333 34.667 -369 104c-43.333 34.667 -76.666 74.834 -99.999 120.501s-39.333 99.5 -48 161.5s-13 139.667 -13 233v643c0 51.333 -3.83301 88.666 -11.5 111.999s-21.834 39.333 -42.501 48s-54 14 -100 16v41c70 -4 177 -6 321 -6c140 0 248 2 324 6v-41
c-49.333 -2 -85.166 -7.33301 -107.499 -16s-37.666 -24.667 -45.999 -48s-12.5 -60.666 -12.5 -111.999v-773c0 -95.333 8.66699 -173.166 26 -233.499s46.666 -106 87.999 -137s97.666 -46.5 168.999 -46.5c136 0 232.167 46 288.5 138s84.5 222.667 84.5 392v541
c0 79.333 -4.83301 138.166 -14.5 176.499s-28.167 66.166 -55.5 83.499s-70.333 29 -129 35v41c53.333 -4 127 -6 221 -6c76.667 0 136 2 178 6v-41c-44 -6 -76.667 -17.5 -98 -34.5z" />
    <glyph glyph-name="V" unicode="V" horiz-adv-x="1368" 
d="M1388 1450l-0.00195312 -40.999c-33.333 -13.333 -66.5 -39.5 -99.5 -78.5s-62.167 -93.833 -87.5 -164.5l-433 -1170c-29.333 1.33301 -53 2 -71 2s-41.667 -0.666992 -71 -2l-522 1282c-34 84.667 -77 128.334 -129 131.001v41c82 -4 186 -6 312 -6
c140.667 0 244.334 2 311.001 6v-41c-51.333 -2 -88.166 -8.16699 -110.499 -18.5s-33.5 -29.5 -33.5 -57.5c0 -22.667 8 -54.667 24 -96l362 -917l252 680c38 103.333 57 186 57 248c0 55.333 -14.5 95.666 -43.5 120.999s-71.833 38.666 -128.5 39.999v41
c92 -4 177 -6 255 -6c63.333 0 115.333 2 156 6z" />
    <glyph glyph-name="W" unicode="W" horiz-adv-x="1982" 
d="M1994 1450l-0.00292969 -40.9971c-34.667 -13.333 -67.834 -39.333 -99.501 -78s-58.167 -93.667 -79.5 -165l-361 -1170c-29.333 1.33301 -53.333 2 -72 2c-17.333 0 -40.666 -0.666992 -69.999 -2l-302 911l-304 -911c-29.333 1.33301 -53.333 2 -72 2
c-17.333 0 -40.666 -0.666992 -69.999 -2l-459 1282c-16.667 45.333 -36.5 78.166 -59.5 98.499s-46.167 31.166 -69.5 32.499v41c80.667 -4 182.334 -6 305.001 -6c114 0 198 2 252 6v-41c-48 -6.66699 -72 -33.334 -72 -80.001c0 -25.333 6.33301 -56 19 -92l297 -866
l209 609l-106 319c-13.333 39.333 -29.166 67 -47.499 83s-39.5 25 -63.5 27v41c74.667 -4 172 -6 292 -6c132 0 230.333 2 295 6v-41c-50.667 -2 -86.667 -7.83301 -108 -17.5s-32 -29.167 -32 -58.5c0 -22.667 7 -54.667 21 -96l281 -857l195 620
c30.667 98.667 46 178 46 238c0 59.333 -14.667 102.333 -44 129s-73.333 40.667 -132 42v41c92 -4 177 -6 255 -6c62.667 0 114.667 2 156 6z" />
    <glyph glyph-name="X" unicode="X" horiz-adv-x="1415" 
d="M1356 83c12 -13.333 24.333 -23 37 -29s28.334 -9.66699 47.001 -11v-43c-5.33301 0 -18 0.666992 -38 2c-122 4 -202.667 6 -242 6c-78.667 0 -174.667 -2.33301 -288 -7l-42 -1v43c48 0 82.5 2.33301 103.5 7s31.5 13.667 31.5 27c0 9.33301 -5 21.333 -15 36l-344 505
l-164 -224c-62.667 -84 -94 -155.333 -94 -214c0 -42 15.5 -74.833 46.5 -98.5s73.833 -37.167 128.5 -40.5v-41c-78 4 -186 6 -324 6c-82 0 -144.667 -2 -188 -6v41c93.333 30.667 192 114 296 250l272 367l-441 648c-19.333 28 -35 48.667 -47 62s-24.333 23 -37 29
s-28.334 9.66699 -47.001 11v43c6 0 19 -0.666992 39 -2c126 -4 210.333 -6 253 -6c86.667 0 191.334 2.66699 314.001 8v-43c-46 0 -79.333 -3 -100 -9s-31 -16 -31 -30c0 -10.667 5.33301 -23.667 16 -39l305 -445l151 204c64.667 82 97 151 97 207
c0 34 -12.833 60.5 -38.5 79.5s-62.5 30.167 -110.5 33.5v41c77.333 -4 163 -6 257 -6c82.667 0 145.667 2 189 6v-41c-42.667 -12.667 -86.334 -38 -131.001 -76s-87 -84 -127 -138l-262 -348l481 -702c19.333 -28 35 -48.667 47 -62z" />
    <glyph glyph-name="Y" unicode="Y" horiz-adv-x="1275" 
d="M1263 1451l-0.00292969 -40.998c-63.333 -24.667 -128.666 -103.334 -195.999 -236.001l-242 -480v-477c0 -51.333 3.83301 -88.666 11.5 -111.999s21.834 -39.333 42.501 -48s53.667 -14 99 -16v-41c-72.667 4 -177.667 6 -315 6c-144.667 0 -250.667 -2 -318 -6v41
c46 2 79.333 7.33301 100 16s34.834 24.667 42.501 48s11.5 60.666 11.5 111.999v348l-394 729c-42 76 -81.667 114 -119 114v43c80 -6.66699 160.667 -10 242 -10c126.667 0 255 3.33301 385 10v-43c-48.667 0 -86.667 -4.16699 -114 -12.5s-41 -24.5 -41 -48.5
c0 -12.667 4.33301 -27.667 13 -45l312 -598l159 318c54 107.333 81 191.333 81 252c0 87.333 -57 132.666 -171 135.999v41c93.333 -4 178.333 -6 255 -6c63.333 0 115.333 2 156 6z" />
    <glyph glyph-name="Z" unicode="Z" horiz-adv-x="1232" 
d="M427 47l224.999 -0.00195312c67.333 0 131.5 14.5 192.5 43.5s113.333 76.667 157 143s71.167 152.5 82.5 258.5h47c-4 -46.667 -6 -107 -6 -181c0 -119.333 4.66699 -223 14 -311c-101.333 4 -271.333 6 -510 6c-253.333 0 -436.666 -2 -549.999 -6v41l714 1362h-234
c-111.333 0 -202.833 -32.167 -274.5 -96.5s-116.5 -172.166 -134.5 -323.499h-47c4 38 6 90 6 156c0 94.667 -5 198.334 -15 311.001c91.333 -4 245 -6 461 -6c270 0 464.667 2 584 6v-41z" />
    <glyph glyph-name="bracketleft" unicode="[" horiz-adv-x="660" 
d="M465 1542v-1874h117v-39h-412v1952h412v-39h-117z" />
    <glyph glyph-name="backslash" unicode="\" horiz-adv-x="754" 
d="M689 -29l-557 1508h-68l557 -1508h68z" />
    <glyph glyph-name="bracketright" unicode="]" horiz-adv-x="660" 
d="M195 1542v-1874h-117v-39h412v1952h-412v-39h117z" />
    <glyph glyph-name="asciicircum" unicode="^" horiz-adv-x="1083" 
d="M730 846.5c72.667 -75 151.333 -135.833 236 -182.5l-16 -29c-86.667 20.667 -171 46.667 -253 78s-147.667 62.666 -197 93.999c-42 -31.333 -96.5 -62.666 -163.5 -93.999s-135.5 -57.333 -205.5 -78l-16 29c84 46 162.167 106.5 234.5 181.5
s129.833 153.5 172.5 235.5h37c41.333 -81.333 98.333 -159.5 171 -234.5z" />
    <glyph glyph-name="underscore" unicode="_" horiz-adv-x="1245" 
d="M120 -354.238v179.521h1004v-179.521h-1004z" />
    <glyph glyph-name="grave" unicode="`" horiz-adv-x="457" 
d="M122 1700c39.333 0 72.333 -16.001 99 -48.001c15.333 -18 28.166 -37.667 38.499 -59s23.5 -52.666 39.5 -93.999c38.667 -99.333 77.334 -184 116.001 -254l-23 -18c-57.333 52.667 -130 111.334 -218 176.001c-34.667 25.333 -61 45.166 -79 59.499s-34 30.5 -48 48.5
c-21.333 26 -32 54.333 -32 85c0 32 12 58 36 78c20 17.333 43.667 26 71 26z" />
    <glyph glyph-name="a" unicode="a" horiz-adv-x="1284" 
d="M1300 41l0.000976562 -41c-64 4 -153.667 6 -269 6c-146 0 -253.667 -2 -323 -6v41c45.333 2 78.833 8.83301 100.5 20.5s32.5 30.834 32.5 57.501c0 24 -9 55.333 -27 94l-102 233h-430l-24 -55c-38.667 -88 -58 -158.333 -58 -211c0 -47.333 15 -81.5 45 -102.5
s74.333 -33.167 133 -36.5v-41c-78 4 -156.333 6 -235 6c-72.667 0 -128 -2 -166 -6v41c34 6.66699 64.667 27.167 92 61.5s56.666 87.166 87.999 158.499l433 988c21.333 -1.33301 37 -2 47 -2c11.333 0 27 0.666992 47 2l487 -1077c39.333 -85.333 82.333 -129 129 -131z
M498.001 936l-198 -449h394z" />
    <glyph glyph-name="b" unicode="b" horiz-adv-x="1330" 
d="M1154 551c71.333 -57.333 107.001 -128.999 107.001 -214.999c0 -70 -21 -130.167 -63 -180.5s-103.667 -88.833 -185 -115.5s-180.333 -40 -297 -40l-100 2c-90.667 2.66699 -180 4 -268 4c-124 0 -217 -2 -279 -6v41c46 2 79.333 7.33301 100 16
s34.834 24.667 42.501 48s11.5 60.666 11.5 111.999v811c0 52 -3.83301 89.667 -11.5 113s-21.834 39.166 -42.501 47.499s-54 13.5 -100 15.5v41c62 -4 153.333 -6 274 -6c26 0 104 1 234 3l92 1c164 0 285.833 -24.167 365.5 -72.5s119.5 -117.5 119.5 -207.5
c0 -70.667 -28.5 -130.667 -85.5 -180s-149.833 -87.666 -278.5 -114.999v-4c171.333 -18 292.666 -55.667 363.999 -113zM575.001 1189.5c-14.667 -9.66699 -24.834 -26.833 -30.501 -51.5s-8.5 -61.334 -8.5 -110.001v-360h68c86.667 0 146.834 23.833 180.501 71.5
s50.5 114.5 50.5 200.5c0 88.667 -15.167 154.834 -45.5 198.501s-79.5 65.5 -147.5 65.5c-30 0 -52.333 -4.83301 -67 -14.5zM863.501 122.002c46.333 50 69.501 123.999 69.501 221.999c0 95.333 -23.333 167.333 -70 216s-121.667 73 -225 73h-102v-416
c0 -49.333 2.83301 -85.666 8.5 -108.999s16 -39.333 31 -48s38.167 -13 69.5 -13c99.333 0 172.166 25 218.499 75z" />
    <glyph glyph-name="c" unicode="c" horiz-adv-x="1346" 
d="M886.5 1256.5c41 -11.667 76.002 -26.6689 105.002 -45.002s60.5 -41.833 94.5 -70.5c15.333 -13.333 28.666 -20 39.999 -20c28 0 45.333 41.333 52 124h47c-5.33301 -82 -8 -225.333 -8 -430h-47c-14.667 74.667 -28.667 128.834 -42 162.501
s-33.666 66.834 -60.999 99.501c-38 45.333 -81 80.666 -129 105.999s-98.333 38 -151 38c-75.333 0 -141 -24.167 -197 -72.5s-99.333 -117.833 -130 -208.5s-46 -198 -46 -322c0 -124.667 17 -231.667 51 -321s80.167 -157 138.5 -203s124.166 -69 197.499 -69
c54 0 106.667 12.5 158 37.5s95 60.167 131 105.5c26.667 34 46.334 70.667 59.001 110s24.334 97 35.001 173h47c0 -215.333 2.66699 -365.666 8 -450.999h-47c-6.66699 82.667 -23.667 124 -51 124c-10.667 0 -24.334 -6.66699 -41.001 -20
c-50.667 -42 -103.334 -74.667 -158.001 -98s-120 -35 -196 -35c-129.333 0 -243.833 25.167 -343.5 75.5s-177.334 123.666 -233.001 219.999s-83.5 210.833 -83.5 343.5c0 130 28.667 245.333 86 346s135.833 178.834 235.5 234.501s211.5 83.5 335.5 83.5
c54.667 0 102.5 -5.83301 143.5 -17.5z" />
    <glyph glyph-name="d" unicode="d" horiz-adv-x="1496" 
d="M1225.5 1091c119 -102.667 178.499 -253.331 178.499 -451.998c0 -128.667 -28.833 -241 -86.5 -337s-141.667 -170.333 -252 -223s-241.833 -79 -394.5 -79c-36 0 -80.667 1 -134 3c-128 2 -191 3 -189 3c-124 0 -217 -2 -279 -6v41c46 2 79.333 7.33301 100 16
s34.834 24.667 42.501 48s11.5 60.666 11.5 111.999v811c0 52 -3.83301 89.667 -11.5 113s-21.834 39.166 -42.501 47.499s-54 13.5 -100 15.5v41c79.333 -4.66699 152 -7 218 -7l56 1l96 2c118.667 2.66699 202.334 4 251.001 4c238 0 416.5 -51.333 535.5 -154z
M582.499 1193.5c-17.667 -9.66699 -29.833 -26.6689 -36.5 -51.002s-10 -61.166 -10 -110.499v-819c0 -49.333 3.33301 -86.166 10 -110.499s19 -41.333 37 -51s45.333 -14.5 82 -14.5c105.333 0 188 22.333 248 67s102.333 110 127 196s37 196.333 37 331
c0 132.667 -13.333 241 -40 325s-70.167 147 -130.5 189s-141.5 63 -243.5 63c-36 0 -62.833 -4.83301 -80.5 -14.5z" />
    <glyph glyph-name="e" unicode="e" horiz-adv-x="1248" 
d="M1152 0c-88.667 4 -238.003 6.00293 -448.003 6.00293c-281.333 0 -493 -2 -635 -6v41c46 2 79.333 7.33301 100 16s34.834 24.667 42.501 48s11.5 60.666 11.5 111.999v811c0 51.333 -3.83301 88.666 -11.5 111.999s-21.834 39.333 -42.501 48s-54 14 -100 16v41
c142 -4 353.667 -6 635 -6c191.333 0 327 2 407 6c-9.33301 -91.333 -14 -173.333 -14 -246c0 -53.333 2 -95.666 6 -126.999h-47c-14 80 -34.667 143.833 -62 191.5s-61.666 82 -102.999 103s-91.333 31.5 -150 31.5h-76c-35.333 0 -61.833 -3.16699 -79.5 -9.5
s-30.334 -18.833 -38.001 -37.5s-11.5 -47.334 -11.5 -86.001v-418h96c64 0 111.833 22.167 143.5 66.5s52.834 95.833 63.501 154.5h47c-4.66699 -53.333 -7 -106.333 -7 -159l1 -82c0 -61.333 4 -142 12 -242h-47c-9.33301 64.667 -30.833 117.667 -64.5 159
s-83.167 62 -148.5 62h-96v-426c0 -38.667 3.83301 -67.334 11.5 -86.001s20.334 -31.167 38.001 -37.5s44.167 -9.5 79.5 -9.5h88c64.667 0 119.667 11.833 165 35.5s82.833 62.334 112.5 116.001s51.834 125.5 66.501 215.5h47c-4 -38 -6 -87.333 -6 -148
c0 -78.667 4.66699 -167.334 14 -266.001z" />
    <glyph glyph-name="f" unicode="f" horiz-adv-x="1159" 
d="M1097 999c0 -53.333 2 -95.6641 6 -126.997h-47c-14 80 -34.667 143.833 -62 191.5s-61.666 82 -102.999 103s-91.333 31.5 -150 31.5h-76c-35.333 0 -61.833 -3.16699 -79.5 -9.5s-30.334 -18.833 -38.001 -37.5s-11.5 -47.334 -11.5 -86.001v-418h96
c64 0 111.833 22.167 143.5 66.5s52.834 95.833 63.501 154.5h47c-4.66699 -53.333 -7 -106.333 -7 -159l1 -82c0 -61.333 4 -142 12 -242h-47c-9.33301 64.667 -30.833 117.667 -64.5 159s-83.167 62 -148.5 62h-96v-377c0 -51.333 6.5 -89.833 19.5 -115.5
s34.667 -43.667 65 -54s75.166 -16.5 134.499 -18.5v-41c-84 4 -204.667 6 -362 6c-146 0 -254 -2 -324 -6v41c46 2 79.333 7.33301 100 16s34.834 24.667 42.501 48s11.5 60.666 11.5 111.999v811c0 51.333 -3.83301 88.666 -11.5 111.999s-21.834 39.333 -42.501 48
s-54 14 -100 16v41c142 -4 353.667 -6 635 -6c191.333 0 327 2 407 6c-9.33301 -91.333 -14 -173.333 -14 -246z" />
    <glyph glyph-name="g" unicode="g" horiz-adv-x="1436" 
d="M943.5 1256.5c42.333 -11.667 78.3311 -26.3359 107.998 -44.0029s64.167 -41.5 103.5 -71.5c16.667 -13.333 30.667 -20 42 -20c13.333 0 24 9.83301 32 29.5s14 51.167 18 94.5h48c-6 -75.333 -9 -211.666 -9 -408.999h-47c-21.333 106.667 -55.333 187 -102 241
c-41.333 45.333 -84 80.5 -128 105.5s-96.333 37.5 -157 37.5c-89.333 0 -167 -24.5 -233 -73.5s-116.667 -118.667 -152 -209s-53 -195.833 -53 -316.5c0 -209.333 34 -363.166 102 -461.499s169.667 -147.5 305 -147.5c46.667 0 86 9.66699 118 29c28 16.667 42 46 42 88
v190c0 57.333 -5 99 -15 125s-28 44 -54 54s-67.667 16 -125 18v41c88 -4 200.667 -6 338 -6c116 0 203.333 2 262 6v-41c-28 -2 -48.167 -7.16699 -60.5 -15.5s-20.666 -24 -24.999 -47s-6.5 -60.833 -6.5 -113.5v-340h-41c-5.33301 50.667 -19.666 76 -42.999 76
c-18.667 0 -52.667 -12 -102 -36c-37.333 -17.333 -83.5 -33.166 -138.5 -47.499s-113.833 -21.5 -176.5 -21.5c-148 0 -275 24.833 -381 74.5s-187 121.5 -243 215.5s-84 206.333 -84 337c0 136 30 255.167 90 357.5s143.667 181 251 236s230 82.5 368 82.5
c56.667 0 106.167 -5.83301 148.5 -17.5z" />
    <glyph glyph-name="h" unicode="h" horiz-adv-x="1600" 
d="M1429.5 1188c-20.333 -8.66699 -34.335 -24.498 -42.002 -47.498s-11.5 -60.5 -11.5 -112.5v-811c0 -51.333 3.83301 -88.666 11.5 -111.999s21.834 -39.333 42.501 -48s53.667 -14 99 -16v-41c-64 4 -163.667 6 -299 6c-138.667 0 -245.667 -2 -321 -6v41
c46 2 79.167 7.33301 99.5 16s34.333 24.667 42 48s11.5 60.666 11.5 111.999v397h-526v-397c0 -51.333 3.83301 -88.666 11.5 -111.999s21.834 -39.333 42.501 -48s54 -14 100 -16v-41c-76 4 -183.333 6 -322 6c-134 0 -233.667 -2 -299 -6v41c46 2 79.333 7.33301 100 16
s34.834 24.667 42.501 48s11.5 60.666 11.5 111.999v811c0 51.333 -3.83301 88.666 -11.5 111.999s-21.834 39.333 -42.501 48s-54 14 -100 16v41c65.333 -4 165 -6 299 -6c138.667 0 246 2 322 6v-41c-46.667 -2 -80.167 -7.33301 -100.5 -16s-34.333 -24.5 -42 -47.5
s-11.5 -60.5 -11.5 -112.5v-373h526v373c0 51.333 -3.83301 88.666 -11.5 111.999s-21.667 39.333 -42 48s-53.5 14 -99.5 16v41c74.667 -4 181.667 -6 321 -6c135.333 0 235 2 299 6v-41c-46 -2 -79.167 -7.33301 -99.5 -16z" />
    <glyph glyph-name="i" unicode="i" horiz-adv-x="761" 
d="M589.5 1188c-20.333 -8.66699 -34.335 -24.499 -42.002 -47.499s-11.5 -60.5 -11.5 -112.5v-811c0 -51.333 3.83301 -88.666 11.5 -111.999s21.834 -39.333 42.501 -48s54 -14 100 -16v-41c-70.667 4 -172 6 -304 6c-144 0 -249.667 -2 -317 -6v41
c46 2 79.333 7.33301 100 16s34.834 24.667 42.501 48s11.5 60.666 11.5 111.999v811c0 51.333 -3.83301 88.666 -11.5 111.999s-21.834 39.333 -42.501 48s-54 14 -100 16v41c66.667 -4 172.334 -6 317.001 -6c132 0 233.333 2 304 6v-41
c-46.667 -2 -80.167 -7.33301 -100.5 -16z" />
    <glyph glyph-name="j" unicode="j" horiz-adv-x="733" 
d="M577.5 1188c-20.333 -8.66699 -34.332 -24.499 -41.999 -47.499s-11.5 -60.5 -11.5 -112.5v-545v-107c0 -94.667 -2.16699 -177 -6.5 -247s-13.833 -130 -28.5 -180c-17.333 -64 -48 -121 -92 -171s-99.833 -89.333 -167.5 -118s-144.167 -43 -229.5 -43
c-82.667 0 -147 12 -193 36c-55.333 29.333 -83 73.333 -83 132c0 39.333 14.833 71.333 44.5 96s68.167 37 115.5 37c45.333 0 81.666 -11.5 108.999 -34.5s41 -54.833 41 -95.5c0 -26 -7.83301 -50.667 -23.5 -74s-38.5 -41.333 -68.5 -54c20 -2.66699 38.333 -4 55 -4
c70.667 0 123.667 35.667 159 107c19.333 32.667 33.333 76.667 42 132s13 135 13 239v894c0 51.333 -3.83301 88.666 -11.5 111.999s-21.834 39.333 -42.501 48s-54 14 -100 16v41c64.667 -4 164.334 -6 299.001 -6c138.667 0 246 2 322 6v-41
c-46.667 -2 -80.167 -7.33301 -100.5 -16z" />
    <glyph glyph-name="k" unicode="k" horiz-adv-x="1457" 
d="M1388.5 89c19.667 -18.667 44.1631 -34.665 73.4961 -47.998v-41c-95.333 4 -199.666 6 -312.999 6c-98 0 -191.333 -2 -280 -6v41c43.333 1.33301 74 5 92 11s27 15.333 27 28c0 11.333 -7.66699 29 -23 53l-268 385c-23.333 33.333 -46.666 58.333 -69.999 75
s-53.666 26 -90.999 28v-404c0 -51.333 3.83301 -88.666 11.5 -111.999s21.834 -39.333 42.501 -48s54 -14 100 -16v-41c-71.333 4 -172.666 6 -303.999 6c-141.333 0 -247 -2 -317 -6v41c46 2 79.333 7.33301 100 16s34.834 24.667 42.501 48s11.5 60.666 11.5 111.999v811
c0 51.333 -3.83301 88.666 -11.5 111.999s-21.834 39.333 -42.501 48s-54 14 -100 16v41c70 -4 175.667 -6 317 -6c131.333 0 232.666 2 303.999 6v-41c-46.667 -2 -80.167 -7.33301 -100.5 -16s-34.333 -24.5 -42 -47.5s-11.5 -60.5 -11.5 -112.5v-366
c59.333 5.33301 113.333 20.166 162 44.499s101 63.166 157 116.499l125 127c52.667 50 79 97.667 79 143c0 32.667 -13.833 59.334 -41.5 80.001s-64.5 31.667 -110.5 33v39c98 -4 203 -6 315 -6c73.333 0 134 2 182 6v-39c-48 -11.333 -93.833 -30.166 -137.5 -56.499
s-90.5 -63.5 -140.5 -111.5l-252 -249l449 -623c24 -32.667 45.833 -58.334 65.5 -77.001z" />
    <glyph glyph-name="l" unicode="l" horiz-adv-x="1205" 
d="M589.5 1188c-20.333 -8.66699 -34.334 -24.4961 -42.001 -47.4961s-11.5 -60.5 -11.5 -112.5v-835c0 -42.667 3.83301 -74.334 11.5 -95.001s20.334 -34.334 38.001 -41.001s44.167 -10 79.5 -10h80c90 0 165.833 32.5 227.5 97.5s103.167 169.833 124.5 314.5h47
c-4 -44 -6 -100 -6 -168c0 -86 4.66699 -183 14 -291c-88.667 4 -238 6 -448 6c-281.333 0 -493 -2 -635 -6v41c46 2 79.333 7.33301 100 16s34.834 24.667 42.501 48s11.5 60.666 11.5 111.999v811c0 51.333 -3.83301 88.666 -11.5 111.999s-21.834 39.333 -42.501 48
s-54 14 -100 16v41c70 -4 178 -6 324 -6c127.333 0 226.333 2 297 6v-41c-46.667 -2 -80.167 -7.33301 -100.5 -16z" />
    <glyph glyph-name="m" unicode="m" horiz-adv-x="1807" 
d="M1634.5 1188c-22.333 -8.66699 -37.667 -24.667 -46 -48s-12.5 -60.666 -12.5 -111.999v-811c0 -51.333 4.16699 -88.666 12.5 -111.999s23.666 -39.333 45.999 -48s58.166 -14 107.499 -16v-41c-72.667 4 -175.667 6 -309 6c-157.333 0 -273.666 -2 -348.999 -6v41
c49.333 2 85.166 7.33301 107.499 16s37.666 24.667 45.999 48s12.5 60.666 12.5 111.999v899l-469 -1126h-32l-476 1124v-840c0 -60.667 5.33301 -106 16 -136s30.667 -52.167 60 -66.5s74.333 -24.5 135 -30.5v-41c-60 4 -137.667 6 -233 6c-76.667 0 -136 -2 -178 -6v41
c44.667 6 77.5 16.167 98.5 30.5s35.333 36.5 43 66.5s11.5 75.333 11.5 136v754c0 51.333 -4.16699 88.666 -12.5 111.999s-23.666 39.333 -45.999 48s-58.166 14 -107.499 16v41c73.333 -4 182 -6 326 -6c71.333 0 132.333 2 183 6l339 -816l342 810h183
c132.667 0 235.667 2 309 6v-41c-49.333 -2 -85.166 -7.33301 -107.499 -16z" />
    <glyph glyph-name="n" unicode="n" horiz-adv-x="1413" 
d="M1253.5 1173.5c-21 -14.333 -35.3311 -36.499 -42.998 -66.499s-11.5 -75.333 -11.5 -136v-975c-12 0.666992 -30 1 -54 1c-24.667 0 -43 -0.333008 -55 -1l-819 1018v-740c0 -60.667 5.33301 -106 16 -136s30.667 -52.167 60 -66.5s74.333 -24.5 135 -30.5v-41
c-60 4 -138 6 -234 6c-75.333 0 -134.666 -2 -177.999 -6v41c44.667 6 77.667 16.167 99 30.5s35.833 36.5 43.5 66.5s11.5 75.333 11.5 136v754c0 51.333 -3.83301 88.666 -11.5 111.999s-21.834 39.333 -42.501 48s-54 14 -100 16v41c43.333 -4 102.666 -6 177.999 -6
c97.333 0 180.666 2 249.999 6l654 -811v537c0 60.667 -5.33301 106 -16 136s-30.667 52.167 -60 66.5s-74.333 24.5 -135 30.5v41c60 -4 137.667 -6 233 -6c76.667 0 136 2 178 6v-41c-44.667 -6 -77.5 -16.167 -98.5 -30.5z" />
    <glyph glyph-name="o" unicode="o" horiz-adv-x="1555" 
d="M1141 1198.5c104 -50.333 184.5 -123.501 241.5 -219.501s85.5 -210.667 85.5 -344c0 -130.667 -29.333 -246.167 -88 -346.5s-140.5 -178.333 -245.5 -234s-224.5 -83.5 -358.5 -83.5c-138 0 -259 25.167 -363 75.5s-184.667 123.5 -242 219.5s-86 210.667 -86 344
c0 130.667 29.333 246.334 88 347.001s140.667 178.667 246 234s225 83 359 83c138 0 259 -25.167 363 -75.5zM581.5 1158.5c-53.667 -52.333 -95.165 -125.333 -124.498 -219s-44 -200.834 -44 -321.501c0 -121.333 16.5 -228.333 49.5 -321s77.667 -164 134 -214
s118.833 -75 187.5 -75c71.333 0 133.833 26.167 187.5 78.5s95.167 125.333 124.5 219s44 200.834 44 321.501c0 121.333 -16.333 228.333 -49 321s-77.334 164 -134.001 214s-119.334 75 -188.001 75c-71.333 0 -133.833 -26.167 -187.5 -78.5z" />
    <glyph glyph-name="p" unicode="p" horiz-adv-x="1261" 
d="M536 217c0 -51.333 4.16895 -88.668 12.502 -112.001s23.666 -39.333 45.999 -48s58.166 -14 107.499 -16v-41c-80.667 4 -196 6 -346 6c-129.333 0 -225 -2 -287 -6v41c46 2 79.333 7.33301 100 16s34.834 24.667 42.501 48s11.5 60.666 11.5 111.999v811
c0 51.333 -3.83301 88.666 -11.5 111.999s-21.834 39.333 -42.501 48s-54 14 -100 16v41c62 -4 153.333 -6 274 -6c28 0 110 1 246 3l101 1c178 0 310.167 -29.667 396.5 -89s129.5 -143.666 129.5 -252.999c0 -69.333 -18 -133.666 -54 -192.999
s-98.167 -108.166 -186.5 -146.499s-205.5 -57.5 -351.5 -57.5h-88v-287zM582.502 1189.5c-17.667 -9.66699 -29.832 -26.832 -36.499 -51.499s-10 -61.334 -10 -110.001v-483h68c108 0 182.333 29.833 223 89.5s61 141.167 61 244.5c0 110.667 -17.333 192.5 -52 245.5
s-92.334 79.5 -173.001 79.5c-36 0 -62.833 -4.83301 -80.5 -14.5z" />
    <glyph glyph-name="q" unicode="q" horiz-adv-x="1557" 
d="M1565.5 -306.5c-73.667 -52.333 -168.168 -78.5039 -283.501 -78.5039c-67.333 0 -135.666 7.16699 -204.999 21.5s-134.666 31.833 -195.999 52.5s-137.666 48.334 -228.999 83.001c-73.333 29.333 -140.333 54 -201 74c-60.667 -28.667 -117.667 -43 -171 -43
c-64 0 -96 18 -96 54c0 36.667 37.333 55 112 55c48.667 0 100.334 -9.66699 155.001 -29c42 11.333 93 30 153 56c30.667 14 59.334 26 86.001 36c-122 10.667 -228.333 42.334 -319 95.001s-160.667 124.834 -210 216.501s-74 199.5 -74 323.5
c0 130.667 29.333 246.334 88 347.001s140.667 178.667 246 234s225 83 359 83c138 0 259 -25.167 363 -75.5s184.5 -123.5 241.5 -219.5s85.5 -210.667 85.5 -344c0 -124 -26.667 -234.5 -80 -331.5s-127.833 -174.333 -223.5 -232s-205.167 -90.5 -328.5 -98.5
c-34 -3.33301 -64.833 -9.5 -92.5 -18.5s-59.834 -21.5 -96.501 -37.5c-62 -25.333 -108.333 -41.666 -139 -48.999c17.333 -1.33301 32 -2 44 -2h8c10 0 56.667 1.66699 140 5c70.667 4 122.334 6 155.001 6c22.667 0 39 -0.333008 49 -1
c67.333 -2.66699 153.666 -13.334 258.999 -32.001c57.333 -9.33301 102.166 -16 134.499 -20s65.166 -6 98.499 -6c56 0 102.167 4 138.5 12s66.166 20.667 89.499 38s43.333 40.333 60 69l32 -15c-28 -100 -78.833 -176.167 -152.5 -228.5zM464.499 296.996
c33 -92.667 77.6689 -164 134.002 -214s118.833 -75 187.5 -75c71.333 0 133.833 26.167 187.5 78.5s95.167 125.333 124.5 219s44 200.834 44 321.501c0 121.333 -16.333 228.333 -49 321s-77.334 164 -134.001 214s-119.334 75 -188.001 75
c-71.333 0 -133.833 -26.167 -187.5 -78.5s-95.167 -125.333 -124.5 -219s-44 -200.834 -44 -321.501c0 -121.333 16.5 -228.333 49.5 -321z" />
    <glyph glyph-name="r" unicode="r" 
d="M1283 0c-41.333 -19.333 -92.334 -29.001 -153.001 -29.001c-78 0 -138.167 15.167 -180.5 45.5s-69.833 70.833 -82.5 121.5l-59 241c-10.667 52 -24.667 91.667 -42 119s-38.666 46 -63.999 56s-58 15 -98 15h-68v-352c0 -51.333 3.83301 -88.666 11.5 -111.999
s21.834 -39.333 42.501 -48s54 -14 100 -16v-41c-79.333 4 -190.666 6 -333.999 6c-129.333 0 -225 -2 -287 -6v41c46 2 79.333 7.33301 100 16s34.834 24.667 42.501 48s11.5 60.666 11.5 111.999v811c0 52 -3.83301 89.667 -11.5 113s-21.834 39.166 -42.501 47.499
s-54 13.5 -100 15.5v41c62 -4 153.333 -6 274 -6c26 0 104 1 234 3l92 1c184 0 321.167 -27.667 411.5 -83s135.5 -132 135.5 -230c0 -53.333 -14.5 -103.666 -43.5 -150.999s-78.667 -88.666 -149 -123.999s-163.5 -58.666 -279.5 -69.999c24.667 -2.66699 44.667 -5 60 -7
c98 -11.333 175.5 -33.333 232.5 -66s94.167 -84.334 111.5 -155.001l43 -183c9.33301 -39.333 20.666 -66.833 33.999 -82.5s30.666 -23.5 51.999 -23.5c28.667 0 58 15 88 45l29 -27c-32.667 -38 -69.667 -66.667 -111 -86zM574.999 1189.5
c-14.667 -9.66699 -24.833 -26.8301 -30.5 -51.4971s-8.5 -61.334 -8.5 -110.001v-418h88c69.333 0 123.5 12.667 162.5 38s65.667 59.666 80 102.999s21.5 95.666 21.5 156.999c0 98.667 -19 172.667 -57 222s-101 74 -189 74c-30 0 -52.333 -4.83301 -67 -14.5z" />
    <glyph glyph-name="s" unicode="s" horiz-adv-x="1183" 
d="M752 1253c44.667 -14 86.6641 -32.335 125.997 -55.002c32.667 -19.333 55.667 -29 69 -29c12.667 0 22.167 7.33301 28.5 22s11.833 37.667 16.5 69h47c-6.66699 -82 -10 -224 -10 -426h-47c-14.667 122.667 -54.167 219.167 -118.5 289.5
s-148.166 105.5 -251.499 105.5c-44.667 0 -84.334 -6.83301 -119.001 -20.5s-61.5 -32.667 -80.5 -57s-28.5 -52.166 -28.5 -83.499c0 -37.333 11.167 -71.166 33.5 -101.499s51.833 -58.333 88.5 -84s89.334 -59.167 158.001 -100.5l50 -30c82 -46.667 149 -89 201 -127
s95 -82.333 129 -133s51 -108.334 51 -173.001c0 -74.667 -21.667 -138.167 -65 -190.5s-103.166 -91.666 -179.499 -117.999s-163.5 -39.5 -261.5 -39.5c-65.333 0 -121.666 7.16699 -168.999 21.5s-96.333 33.833 -147 58.5c-33.333 16.667 -57 25 -71 25
c-12.667 0 -22.334 -7.16699 -29.001 -21.5s-12 -37.166 -16 -68.499h-47c5.33301 75.333 8 241.666 8 498.999h47c10 -145.333 49.333 -259.5 118 -342.5s165.667 -124.5 291 -124.5c39.333 0 76.333 6.5 111 19.5s62.834 33.667 84.501 62s32.5 63.833 32.5 106.5
c0 38 -10.333 72 -31 102s-50.334 58.667 -89.001 86s-92.667 61 -162 101c-84 48 -154.167 92.833 -210.5 134.5s-102 88.5 -137 140.5s-52.5 109.333 -52.5 172c0 72 20.5 132.833 61.5 182.5s97 87 168 112s151.5 37.5 241.5 37.5c62.667 0 116.334 -7 161.001 -21z" />
    <glyph glyph-name="t" unicode="t" horiz-adv-x="1329" 
d="M1256 967c0 -70.667 2.33496 -130.999 7.00195 -180.999h-47c-19.333 103.333 -42.333 184.666 -69 243.999s-60.834 102.166 -102.501 128.499s-95.167 39.5 -160.5 39.5h-64v-960c0 -56.667 5.33301 -98.167 16 -124.5s30 -44.5 58 -54.5s72.333 -16 133 -18v-41
c-74 4 -197 6 -369 6c-172.667 0 -292 -2 -358 -6v41c60.667 2 105 8 133 18s47.333 28.167 58 54.5s16 67.833 16 124.5v960h-64c-65.333 0 -118.833 -13.167 -160.5 -39.5s-75.834 -69.166 -102.501 -128.499s-49.334 -140.666 -68.001 -243.999h-47
c4 43.333 6 103.666 6 180.999c0 84.667 -5 177.334 -15 278.001c118.667 -4 319.334 -6 602.001 -6c288 0 492.333 2 613 6c-10 -110.667 -15 -203.334 -15 -278.001z" />
    <glyph glyph-name="u" unicode="u" 
d="M1231.5 1169.5c-23 -17 -38.501 -42.998 -46.501 -77.998s-12 -87.5 -12 -157.5v-379c0 -93.333 -6.5 -173.333 -19.5 -240s-34.5 -124.667 -64.5 -174c-33.333 -52 -82.5 -93.333 -147.5 -124s-138.167 -46 -219.5 -46c-153.333 0 -273.666 30 -360.999 90
c-47.333 36 -83.5 74.667 -108.5 116s-42.5 90.666 -52.5 147.999s-15 132 -15 224v479c0 51.333 -3.83301 88.666 -11.5 111.999s-21.667 39.333 -42 48s-53.5 14 -99.5 16v41c66.667 -4 170.334 -6 311.001 -6c133.333 0 236.333 2 309 6v-41
c-46 -2 -79.167 -7.33301 -99.5 -16s-34.333 -24.5 -42 -47.5s-11.5 -60.5 -11.5 -112.5v-514c0 -98.667 6.66699 -180.167 20 -244.5s41.166 -116.166 83.499 -155.499s104.833 -59 187.5 -59c123.333 0 210 41.833 260 125.5s75 200.834 75 351.501v377
c0 79.333 -4.66699 138.166 -14 176.499s-27.666 66.166 -54.999 83.499s-70.333 29 -129 35v41c53.333 -4 127 -6 221 -6c81.333 0 144.666 2 189.999 6v-41c-48 -6 -83.5 -17.5 -106.5 -34.5z" />
    <glyph glyph-name="v" unicode="v" horiz-adv-x="1284" 
d="M1298 1245l-0.000976562 -41.001c-35.333 -13.333 -68.166 -39.666 -98.499 -78.999s-61.166 -97 -92.499 -173l-403 -956c-14.667 2 -30.334 3 -47.001 3c-16 0 -32 -1 -48 -3l-505 1077c-39.333 84.667 -82.333 128.334 -129 131.001v41c64 -4 153.667 -6 269 -6
c146 0 253.667 2 323 6v-41c-45.333 -2 -78.833 -8.83301 -100.5 -20.5s-32.5 -30.834 -32.5 -57.501c0 -23.333 9 -54.666 27 -93.999l330 -716l206 481c44 105.333 66 189.666 66 252.999c0 98.667 -55.333 150 -166 154v41c78 -4 162 -6 252 -6c61.333 0 111 2 149 6z
" />
    <glyph glyph-name="w" unicode="w" horiz-adv-x="1880" 
d="M1892 1245l-0.00292969 -41.001c-76 -28 -139.333 -112.333 -190 -253l-343 -955c-15.333 2 -31 3 -47 3s-32 -1 -48 -3l-307 753l-302 -753c-16 2 -32 3 -48 3c-15.333 0 -31 -1 -47 -3l-456 1077c-37.333 84.667 -80.333 128.334 -129 131.001v41
c64 -4 153.667 -6 269 -6c134.667 0 234.334 2 299.001 6v-41c-68.667 -4 -103 -32 -103 -84c0 -22.667 7 -52 21 -88l278 -698l194 475l-108 264c-17.333 44 -37.666 76.5 -60.999 97.5s-46 32.167 -68 33.5v41c64 -4 153.333 -6 268 -6c140.667 0 244.334 2 311.001 6v-41
c-44.667 -2 -77 -9 -97 -21s-30 -31.667 -30 -59c0 -23.333 7 -54 21 -92l261 -698l162 454c38.667 106.667 58 192 58 256c0 54 -13.667 93.667 -41 119s-67 39 -119 41v41c78 -4 156.667 -6 236 -6c72.667 0 128 2 166 6z" />
    <glyph glyph-name="x" unicode="x" horiz-adv-x="1319" 
d="M1264.5 67.5c16.333 -13.667 37.168 -21.834 62.501 -24.501v-43c-118.667 4.66699 -207 7 -265 7c-65.333 0 -167 -2 -305 -6c-4.66699 -0.666992 -11.334 -1 -20.001 -1v43c44.667 0 77.167 2.5 97.5 7.5s30.5 13.833 30.5 26.5c0 9.33301 -5.33301 21.333 -16 36
l-289 404l-164 -204c-46 -56.667 -69 -106.667 -69 -150c0 -36 15.333 -64.5 46 -85.5s72.667 -33.167 126 -36.5v-41c-78 4 -179.667 6 -305 6c-51.333 0 -109.666 -2 -174.999 -6v41c42 17.333 87.167 45.333 135.5 84s89.166 78 122.499 118l255 313l-389 545
c-19.333 28 -34.833 48.667 -46.5 62s-23.5 23 -35.5 29s-27 9.66699 -45 11v43c116.667 -4.66699 204.667 -7 264 -7c60.667 0 159 2 295 6l31 1v-43c-44 0 -76.333 -2.5 -97 -7.5s-31 -13.833 -31 -26.5c0 -9.33301 5 -21 15 -35l262 -366l128 159
c51.333 61.333 77 117 77 167c0 32 -11.5 57.667 -34.5 77s-55.833 30.333 -98.5 33v41c78 -4 163.333 -6 256 -6c76 0 134 2 174 6v-41c-36 -10.667 -73.833 -31.167 -113.5 -61.5s-76.5 -66.166 -110.5 -107.499l-251 -306l418 -584c26.667 -38 48.167 -63.833 64.5 -77.5
z" />
    <glyph glyph-name="y" unicode="y" horiz-adv-x="1228" 
d="M1213 1245l0.00292969 -41.999c-28.667 -11.333 -56.834 -33.833 -84.501 -67.5s-60.167 -84.167 -97.5 -151.5l-235 -432v-323c0 -54.667 4.83301 -94.5 14.5 -119.5s27.5 -42.167 53.5 -51.5s67 -15 123 -17v-41c-70.667 4 -188.334 6 -353.001 6s-278.667 -2 -342 -6
v41c56 2 97 7.66699 123 17s43.833 26.5 53.5 51.5s14.5 64.833 14.5 119.5v221l-367 637c-23.333 40.667 -43.833 69.167 -61.5 85.5s-36.834 26.166 -57.501 29.499v43c85.333 -6.66699 166 -10 242 -10c108.667 0 228.667 3.33301 360 10v-43
c-40 0 -71.5 -3.66699 -94.5 -11s-34.5 -22.333 -34.5 -45c0 -16.667 7.33301 -37.667 22 -63l276 -484l132 239c53.333 100 80 178.667 80 236c0 81.333 -51.667 124.333 -155 129v42c78.667 -4.66699 155.667 -7 231 -7c70 0 122.333 2.33301 157 7z" />
    <glyph glyph-name="z" unicode="z" horiz-adv-x="1185" 
d="M436 47l217 -0.00195312c72 0 133 13.5 183 40.5s91.167 70.833 123.5 131.5s57.166 142 74.499 244h47c-4 -52 -6 -116.333 -6 -193c0 -79.333 4.66699 -169.333 14 -270c-94 4 -255 6 -483 6c-235.333 0 -406.666 -2 -513.999 -6v41l643 1157h-215
c-69.333 0 -128.166 -12.667 -176.499 -38s-88.333 -66.666 -120 -123.999s-55.834 -133.666 -72.501 -228.999h-47c4 43.333 6 103.333 6 180c0 76 -4.66699 162 -14 258c102 -4 273.333 -6 514 -6c214.667 0 371 2 469 6v-41z" />
    <glyph glyph-name="braceleft" unicode="{" horiz-adv-x="683" 
d="M550.5 1532c-20.333 -19.333 -34.668 -58.667 -43.001 -118s-12.5 -154.666 -12.5 -285.999c0 -116 -18 -209.333 -54 -280s-83.167 -123.334 -141.5 -158.001s-127.5 -60.667 -207.5 -78c80 -17.333 149 -43.333 207 -78s105.167 -87.5 141.5 -158.5
s54.5 -164.167 54.5 -279.5c0 -136 4.16699 -234.167 12.5 -294.5s22.5 -99.833 42.5 -118.5s52.333 -28.334 97 -29.001v-39c-113.333 0 -201.666 14.167 -264.999 42.5s-109.333 76.833 -138 145.5s-43 166.334 -43 293.001c0 131.333 -4.33301 231.5 -13 300.5
s-24 118.333 -46 148s-54.333 46.167 -97 49.5h-10v37h10c42.667 2.66699 75 18.667 97 48s37.333 78.5 46 147.5s13 169.5 13 301.5c0 121.333 14.333 216.166 43 284.499s75 117 139 146s152 43.5 264 43.5v-39c-44 -1.33301 -76.167 -11.666 -96.5 -30.999z" />
    <glyph glyph-name="bar" unicode="|" horiz-adv-x="519" 
d="M168 -399v2156h180v-2156h-180z" />
    <glyph glyph-name="braceright" unicode="}" horiz-adv-x="683" 
d="M132.5 1532c20.333 -19.333 34.668 -58.667 43.001 -118s12.5 -154.666 12.5 -285.999c0 -116 18 -209.333 54 -280s83.167 -123.334 141.5 -158.001s127.5 -60.667 207.5 -78c-80 -17.333 -149 -43.333 -207 -78s-105.167 -87.5 -141.5 -158.5
s-54.5 -164.167 -54.5 -279.5c0 -136 -4.16699 -234.167 -12.5 -294.5s-22.5 -99.833 -42.5 -118.5s-52.333 -28.334 -97 -29.001v-39c113.333 0 201.666 14.167 264.999 42.5s109.333 76.833 138 145.5s43 166.334 43 293.001c0 131.333 4.33301 231.5 13 300.5
s24 118.333 46 148s54.333 46.167 97 49.5h10v37h-10c-42.667 2.66699 -75 18.667 -97 48s-37.333 78.5 -46 147.5s-13 169.5 -13 301.5c0 121.333 -14.333 216.166 -43 284.499s-75 117 -139 146s-152 43.5 -264 43.5v-39c44 -1.33301 76.167 -11.666 96.5 -30.999z" />
    <glyph glyph-name="asciitilde" unicode="~" horiz-adv-x="1368" 
d="M574.5 774c42.333 -15.333 93.832 -38.666 154.499 -69.999c56 -30 104.5 -52.5 145.5 -67.5s84.5 -22.5 130.5 -22.5c101.333 0 171 48 209 144l36 -8c-6 -63.333 -24 -119 -54 -167s-67.833 -85.167 -113.5 -111.5s-94.834 -39.5 -147.501 -39.5
c-50 0 -96.167 7.66699 -138.5 23s-93.833 38.666 -154.5 69.999c-57.333 29.333 -106.166 51.5 -146.499 66.5s-83.5 22.5 -129.5 22.5c-101.333 0 -171 -47.667 -209 -143l-36 8c6 63.333 24 119 54 167s67.833 85.167 113.5 111.5s94.834 39.5 147.501 39.5
c50 0 96.167 -7.66699 138.5 -23z" />
    <glyph glyph-name="nonbreakingspace" unicode="&#xa0;" horiz-adv-x="478" 
 />
    <glyph glyph-name="exclamdown" unicode="&#xa1;" horiz-adv-x="566" 
d="M411 1046.5c31.333 -28.333 47 -67.166 47 -116.499c0 -48.667 -15.667 -87.167 -47 -115.5s-74 -42.5 -128 -42.5c-53.333 0 -95.666 14.167 -126.999 42.5s-47 66.833 -47 115.5c0 49.333 15.667 88.166 47 116.499s73.666 42.5 126.999 42.5
c54 0 96.667 -14.167 128 -42.5zM328 405c15.333 -80.667 36.333 -175.333 63 -284c20 -81.333 34.667 -144.833 44 -190.5s14 -86.5 14 -122.5c0 -62.667 -15.333 -110.5 -46 -143.5s-71 -49.5 -121 -49.5s-90.667 16.833 -122 50.5s-47 81.167 -47 142.5
c0 34.667 4.33301 73.5 13 116.5s23.334 107.5 44.001 193.5c27.333 108 48.833 203 64.5 285s25.167 164.667 28.5 248h37c3.33301 -83.333 12.666 -165.333 27.999 -246z" />
    <glyph glyph-name="cent" unicode="&#xa2;" horiz-adv-x="1021" 
d="M1230 0h-47.001c-6.66699 82.667 -23.667 124 -51 124c-10.667 0 -24.334 -6.66699 -41.001 -20c-50.667 -42 -103.334 -74.667 -158.001 -98s-120 -35 -196 -35c-62 0 -120.667 6 -176 18v-360h-45v370c-89.333 24.667 -167 64.667 -233 120
s-116.833 124.5 -152.5 207.5s-53.5 177.5 -53.5 283.5c0 103.333 18.333 197.666 55 282.999s88 157.666 154 216.999s142.667 103 230 131v209h45v-196c56.667 13.333 114.334 20 173.001 20c54.667 0 102.5 -5.83301 143.5 -17.5s76 -26.667 105 -45
s60.5 -41.833 94.5 -70.5c15.333 -13.333 28.666 -20 39.999 -20c28 0 45.333 41.333 52 124h47c-5.33301 -82 -8 -225.333 -8 -430h-47c-14.667 74.667 -28.667 128.834 -42 162.501s-33.666 66.834 -60.999 99.501c-38 45.333 -81 80.666 -129 105.999s-98.333 38 -151 38
c-84 0 -156.333 -30.333 -217 -91v-1006c64.667 -66 141.667 -99 231 -99c54 0 106.667 12.5 158 37.5s95 60.167 131 105.5c26.667 34 46.334 70.667 59.001 110s24.334 97 35.001 173h47c0 -215.333 2.66699 -365.666 8 -450.999zM515.999 179v895.999
c-74 -108.667 -111 -261 -111 -457c0 -185.333 37 -331.666 111 -438.999z" />
    <glyph glyph-name="sterling" unicode="&#xa3;" horiz-adv-x="1352" 
d="M1153.5 470c39.667 -22.667 71.8379 -52.832 96.5049 -90.499s37 -81.5 37 -131.5c0 -84 -26.333 -151.167 -79 -201.5s-129.334 -75.5 -230.001 -75.5c-52 0 -100.333 6.83301 -145 20.5s-100 34.5 -166 62.5c-64.667 28 -115.334 47 -152.001 57
c-44 10.667 -77.667 16 -101 16c-38 0 -75.333 -7 -112 -21c-28.667 -44 -59.5 -77.5 -92.5 -100.5s-65.5 -34.5 -97.5 -34.5c-30.667 0 -46 11 -46 33c0 14 7.5 29.167 22.5 45.5s36 31.833 63 46.5s57.833 26.334 92.5 35.001c13.333 38 21.833 78.5 25.5 121.5
s5.5 106.167 5.5 189.5v86v80h-158v41h158v164h-158v41h158v45c0 405.333 172 608 516 608c95.333 0 170.333 -16.333 225 -49c31.333 -18.667 55.833 -41.5 73.5 -68.5s26.5 -56.833 26.5 -89.5c0 -42 -13.833 -77 -41.5 -105s-62.5 -42 -104.5 -42
c-43.333 0 -79 12.5 -107 37.5s-42 57.5 -42 97.5c0 35.333 9.5 66.333 28.5 93s45.167 46.334 78.5 59.001c-10 9.33301 -26 17 -48 23s-46 9 -72 9c-65.333 0 -114.666 -19.167 -147.999 -57.5s-55.666 -93.833 -66.999 -166.5s-17 -171.334 -17 -296.001v-98h248v-41
h-248v-122c0 -18.667 -0.333008 -32.667 -1 -42h249v-41h-253c-6.66699 -48.667 -19.334 -94.167 -38.001 -136.5s-40.167 -81.666 -64.5 -117.999s-57.833 -82.5 -100.5 -138.5c-8 -11.333 -16.167 -22.333 -24.5 -33l-23.5 -31
c59.333 49.333 113.666 83.666 162.999 102.999s97.666 29 144.999 29c36 0 68.667 -2.83301 98 -8.5s65.666 -14.5 108.999 -26.5c38 -10.667 71.5 -18.834 100.5 -24.501s60.167 -8.5 93.5 -8.5c42.667 0 76.167 11.167 100.5 33.5s36.5 50.166 36.5 83.499
c0 40 -13.333 72.833 -40 98.5s-63.334 43.167 -110.001 52.5l9 33c46 -8 88.833 -23.333 128.5 -46z" />
    <glyph glyph-name="currency" unicode="&#xa4;" horiz-adv-x="1260" 
d="M1017 827c38.667 -66.667 58.002 -137.667 58.002 -213c0 -76 -19.667 -147 -59 -213l122 -120l-174 -175l-122 121c-66.667 -38 -137.667 -57 -213 -57c-78.667 0 -149.334 19 -212.001 57l-120 -121l-175 175l119 119c-38.667 66.667 -58 138 -58 214
c0 76.667 19.667 148 59 214l-120 121l174 174l120 -121c64 39.333 135 59 213 59c75.333 0 146.666 -20 213.999 -60l122 122l174 -174zM512.502 836c-36.333 -23.333 -65.166 -54.667 -86.499 -94s-32 -82 -32 -128c0 -45.333 10.667 -87.5 32 -126.5
s50.166 -70 86.499 -93s75.833 -34.5 118.5 -34.5c42 0 81.167 11.5 117.5 34.5s65.166 54 86.499 93s32 81.167 32 126.5s-10.667 87.833 -32 127.5s-50.166 71.167 -86.499 94.5s-75.5 35 -117.5 35c-42.667 0 -82.167 -11.667 -118.5 -35z" />
    <glyph glyph-name="yen" unicode="&#xa5;" horiz-adv-x="1388" 
d="M1327 1451l-0.00292969 -40.998c-63.333 -24.667 -128.666 -103.334 -195.999 -236.001l-242 -480v-74h256v-41h-256v-164h256v-41h-256v-157c0 -51.333 3.83301 -88.666 11.5 -111.999s21.834 -39.333 42.501 -48s53.667 -14 99 -16v-41c-73.333 4 -178.333 6 -315 6
c-145.333 0 -251.333 -2 -318 -6v41c46 2 79.333 7.33301 100 16s34.834 24.667 42.501 48s11.5 60.666 11.5 111.999v157h-256v41h256v150l-7 14h-249v41h226l-364 674c-42 76 -81.667 114 -119 114v43c80 -6.66699 160.667 -10 242 -10c126.667 0 255 3.33301 385 10v-43
c-48.667 0 -86.667 -4.16699 -114 -12.5s-41 -24.5 -41 -48.5c0 -12.667 4.33301 -27.667 13 -45l312 -598l159 318c54 107.333 81 191.333 81 252c0 87.333 -57 132.666 -171 135.999v41c93.333 -4 178.333 -6 255 -6c62.667 0 114.667 2 156 6z" />
    <glyph glyph-name="brokenbar" unicode="&#xa6;" horiz-adv-x="525" 
d="M171 786v971h181v-971h-181zM171 -399v1067h181v-1067h-181z" />
    <glyph glyph-name="section" unicode="&#xa7;" horiz-adv-x="1190" 
d="M1058 403c-40 -55.333 -105.332 -107.004 -195.999 -155.004c52.667 -46 91.5 -92 116.5 -138s37.5 -97 37.5 -153c0 -68 -19.5 -127.833 -58.5 -179.5s-93.833 -91.667 -164.5 -120s-151.667 -42.5 -243 -42.5c-93.333 0 -173.666 15.333 -240.999 46
c-90.667 43.333 -136 106.333 -136 189c0 26 6.33301 50 19 72s30.5 39.5 53.5 52.5s49.5 19.5 79.5 19.5c46 0 83.333 -13.167 112 -39.5s43 -60.5 43 -102.5c0 -34 -9.16699 -64.833 -27.5 -92.5s-43.833 -47.167 -76.5 -58.5c8 -14 28.167 -25.333 60.5 -34
s65.5 -13 99.5 -13c73.333 0 127.333 18.167 162 54.5s52 80.5 52 132.5c0 45.333 -10.167 85 -30.5 119s-47.333 64.5 -81 91.5s-83.167 62.167 -148.5 105.5c-9.33301 6.66699 -32 22 -68 46c-86.667 58.667 -153.667 107.667 -201 147s-84 81.333 -110 126
s-39 95.667 -39 153c0 68 19.667 129.833 59 185.5s104.333 107.5 195 155.5c-52 46 -90.333 91.833 -115 137.5s-37 96.167 -37 151.5c0 68.667 19.667 128.834 59 180.501s94.166 91.667 164.499 120s151.166 42.5 242.499 42.5c94 0 174.667 -15.333 242 -46
c90 -43.333 135 -106.666 135 -189.999c0 -25.333 -6.16699 -49 -18.5 -71s-30 -39.5 -53 -52.5s-49.5 -19.5 -79.5 -19.5c-46 0 -83.5 13 -112.5 39s-43.5 60 -43.5 102c0 34 9.16699 64.833 27.5 92.5s43.833 47.5 76.5 59.5c-8.66699 14 -29 25.333 -61 34
s-64.667 13 -98 13c-73.333 0 -127.333 -18.167 -162 -54.5s-52 -80.5 -52 -132.5c0 -46 10.333 -86.167 31 -120.5s48 -65.166 82 -92.499s84.333 -63 151 -107l63 -42c86.667 -58.667 153.667 -107.667 201 -147s84 -81.5 110 -126.5s39 -96.167 39 -153.5
c0 -67.333 -20 -128.666 -60 -183.999zM880.501 349.996c11 26 16.501 56.333 16.501 91c0 40 -11.167 76.833 -33.5 110.5s-56 68.5 -101 104.5s-110.833 82.333 -197.5 139c-88 58 -155.667 106 -203 144c-46 -43.333 -69 -97.666 -69 -162.999
c0 -40 11.167 -77 33.5 -111s56.166 -68.833 101.499 -104.5s111 -81.834 197 -138.501c88 -58 155.667 -106 203 -144c24 22 41.5 46 52.5 72z" />
    <glyph glyph-name="dieresis" unicode="&#xa8;" horiz-adv-x="799" 
d="M242 1535.5c24 -14.333 43.168 -33.333 57.501 -57s21.5 -48.834 21.5 -75.501c0 -28 -7.16699 -53.833 -21.5 -77.5s-33.5 -42.5 -57.5 -56.5s-49.333 -21 -76 -21c-28 0 -53.833 7 -77.5 21s-42.334 32.833 -56.001 56.5s-20.5 49.5 -20.5 77.5
c0 26.667 7 51.834 21 75.501s32.667 42.667 56 57s49 21.5 77 21.5c26.667 0 52 -7.16699 76 -21.5zM708.001 1535.5c24 -14.333 43.168 -33.333 57.501 -57s21.5 -48.834 21.5 -75.501c0 -28 -7.16699 -53.833 -21.5 -77.5s-33.5 -42.5 -57.5 -56.5s-49.333 -21 -76 -21
c-28 0 -53.833 7 -77.5 21s-42.334 32.833 -56.001 56.5s-20.5 49.5 -20.5 77.5c0 26.667 7 51.834 21 75.501s32.667 42.667 56 57s49 21.5 77 21.5c26.667 0 52 -7.16699 76 -21.5z" />
    <glyph glyph-name="copyright" unicode="&#xa9;" horiz-adv-x="1804" 
d="M1309.5 1492.5c125 -73 224 -172 297 -297s109.5 -261.5 109.5 -409.5c0 -147.333 -36.5 -283.5 -109.5 -408.5s-172 -224 -297 -297s-261.167 -109.5 -408.5 -109.5c-148 0 -284.333 36.5 -409 109.5s-223.5 172 -296.5 297s-109.5 261.167 -109.5 408.5
c0 148 36.5 284.5 109.5 409.5s171.833 224 296.5 297s261 109.5 409 109.5c147.333 0 283.5 -36.5 408.5 -109.5zM533 1435c-112 -67.333 -200.833 -158.333 -266.5 -273s-98.5 -240 -98.5 -376c0 -135.333 32.833 -260.333 98.5 -375s154.5 -205.667 266.5 -273
s234.667 -101 368 -101c132.667 0 255.167 33.667 367.5 101s201.333 158.333 267 273s98.5 239.667 98.5 375c0 136 -32.833 261.333 -98.5 376s-154.667 205.667 -267 273s-234.833 101 -367.5 101c-133.333 0 -256 -33.667 -368 -101zM1093.5 1328
c45.667 -12 83.5 -28 113.5 -48c33.333 -21.333 59.666 -48 78.999 -80s29 -68 29 -108c0 -32 -7 -60.5 -21 -85.5s-33.167 -44.5 -57.5 -58.5s-51.833 -21 -82.5 -21c-48 0 -86.333 14.167 -115 42.5s-43 65.833 -43 112.5c0 40.667 12.833 75.834 38.5 105.501
s57.834 49.167 96.501 58.5c-12.667 15.333 -32.5 28 -59.5 38s-55.167 15 -84.5 15c-40 0 -75.667 -12.333 -107 -37c-42.667 -24 -75.167 -71 -97.5 -141s-33.5 -174 -33.5 -312c0 -108.667 12.667 -196.334 38 -263.001s58.166 -114.167 98.499 -142.5
s84.833 -42.5 133.5 -42.5c113.333 0 203 68 269 204l36 -13c-17.333 -56 -43.5 -108.333 -78.5 -157s-80.167 -88.5 -135.5 -119.5s-119.666 -46.5 -192.999 -46.5c-92 0 -173.833 19.833 -245.5 59.5s-128.334 101 -170.001 184s-62.5 186.167 -62.5 309.5
c0 120 21.667 222.333 65 307s103.333 148.667 180 192s164.334 65 263.001 65c52 0 100.833 -6 146.5 -18z" />
    <glyph glyph-name="ordfeminine" unicode="&#xaa;" horiz-adv-x="988" 
d="M729.5 1417.5c49 -41 73.502 -107.164 73.502 -198.497v-345c0 -19.333 3 -33 9 -41s16 -12 30 -12c22.667 0 42.334 7.66699 59.001 23l23 -31c-64.667 -50.667 -142.667 -76 -234 -76c-52.667 0 -90.167 8.16699 -112.5 24.5s-34.5 40.5 -36.5 72.5
c-66.667 -64.667 -148.667 -97 -246 -97c-58.667 0 -107.167 13.5 -145.5 40.5s-57.5 67.167 -57.5 120.5c0 37.333 10.333 68.833 31 94.5s51 48 91 67s94.333 39.167 163 60.5c109.333 35.333 164 73.666 164 114.999v37c0 59.333 -10.667 102.166 -32 128.499
s-53 39.5 -95 39.5s-79 -10.333 -111 -31c28 -8 49.833 -23 65.5 -45s23.5 -46 23.5 -72c0 -36 -13.5 -64.667 -40.5 -86s-59.5 -32 -97.5 -32c-40.667 0 -73.334 10.667 -98.001 32s-37 49.333 -37 84c0 31.333 10.167 59.166 30.5 83.499s47.166 43.833 80.499 58.5
c69.333 31.333 156.666 47 261.999 47c109.333 0 188.5 -20.5 237.5 -61.5zM516.002 1139.5c-12 -11.667 -31.3311 -26.833 -57.998 -45.5c-32.667 -22.667 -56.334 -46.5 -71.001 -71.5s-22 -53.167 -22 -84.5s7.5 -56.5 22.5 -75.5s33.833 -28.5 56.5 -28.5
c35.333 0 67.666 12.667 96.999 38v302c-4.66699 -11.333 -13 -22.833 -25 -34.5z" />
    <glyph glyph-name="guillemotleft" unicode="&#xab;" horiz-adv-x="1166" 
d="M519.5 768c-53 -101.333 -106.833 -180.002 -161.5 -236.002c54 -56 107.667 -135.167 161 -237.5s96.333 -207.166 129 -314.499l-31 -11c-85.333 116.667 -173.333 219.834 -264 309.501s-191 169.167 -301 238.5v25c110 68.667 210.167 148 300.5 238
s178.5 193.667 264.5 311l31 -11c-32.667 -106.667 -75.5 -210.667 -128.5 -312zM945 747.498c-46 -91 -92.999 -162.83 -140.999 -215.497c47.333 -51.333 94.166 -123.333 140.499 -216s83.833 -188.334 112.5 -287.001l-32 -11c-76.667 106 -156.5 200.167 -239.5 282.5
s-174.833 154.5 -275.5 216.5v25c100 61.333 191.5 133.166 274.5 215.499s163.167 177.166 240.5 284.499l32 -11c-28.667 -98 -66 -192.5 -112 -283.5z" />
    <glyph glyph-name="logicalnot" unicode="&#xac;" horiz-adv-x="1314" 
d="M1102 338v358h-952v62h1026v-420h-74z" />
    <glyph glyph-name="softhyphen" unicode="&#xad;" horiz-adv-x="985" 
 />
    <glyph glyph-name="registered" unicode="&#xae;" horiz-adv-x="1362" 
d="M966 1525c87.333 -51.333 156.666 -120.833 207.999 -208.5s77 -183.167 77 -286.5s-25.667 -198.666 -77 -285.999s-120.666 -156.666 -207.999 -207.999s-182.666 -77 -285.999 -77s-198.833 25.667 -286.5 77s-157.167 120.666 -208.5 207.999
s-77 182.666 -77 285.999s25.667 198.833 77 286.5s120.833 157.167 208.5 208.5s183.167 77 286.5 77s198.666 -25.667 285.999 -77zM923.5 592.5c74.333 45.667 133.167 107.334 176.5 185.001s65 161.834 65 252.501c0 91.333 -21.667 175.666 -65 252.999
s-102 138.833 -176 184.5s-155.333 68.5 -244 68.5s-170.167 -22.833 -244.5 -68.5s-133.166 -107.167 -176.499 -184.5s-65 -161.666 -65 -252.999c0 -90.667 21.667 -174.834 65 -252.501s102.166 -139.334 176.499 -185.001s155.833 -68.5 244.5 -68.5
c88 0 169.167 22.833 243.5 68.5zM918.001 708c-43.333 0 -76.165 7.16895 -98.498 21.502s-36.5 36.833 -42.5 67.5l-30 149c-4.66699 24 -10.5 41.833 -17.5 53.5s-18.833 20.667 -35.5 27s-42 10.5 -76 12.5v-212c0 -21.333 1.33301 -37 4 -47
s7.16699 -16.833 13.5 -20.5s16.166 -6.16699 29.499 -7.5v-31c-22.667 0 -40.667 0.333008 -54 1l-75 1l-86 -1c-13.333 -0.666992 -30 -1 -50 -1v31c14 1.33301 24.167 3.83301 30.5 7.5s10.833 10.5 13.5 20.5s4 25.667 4 47v449c0 22 -1.33301 38.167 -4 48.5
s-7.16699 17.5 -13.5 21.5s-16.5 6.66699 -30.5 8v30c20 -1.33301 62.667 -2 128 -2l128 1c14 0.666992 30 1 48 1c166.667 0 250 -53.667 250 -161c0 -37.333 -15.833 -71.5 -47.5 -102.5s-86.167 -52.5 -163.5 -64.5c42.667 -4 76.5 -10.833 101.5 -20.5
s43.5 -22.334 55.5 -38.001s20.333 -36.167 25 -61.5l30 -134c3.33301 -16.667 7.16602 -28.834 11.499 -36.501s10.833 -11.5 19.5 -11.5c9.33301 0 17 4 23 12l16 -20c-21.333 -25.333 -57 -38 -107 -38zM628.502 1342c-7 -8 -10.5 -23.333 -10.5 -46v-223h25
c92.667 0 139 46 139 138c0 95.333 -36.667 143 -110 143c-22 0 -36.5 -4 -43.5 -12z" />
    <glyph glyph-name="macron" unicode="&#xaf;" horiz-adv-x="741" 
d="M26 1407v51h688v-51h-688z" />
    <glyph glyph-name="degree" unicode="&#xb0;" horiz-adv-x="638" 
d="M441.5 1649c38.333 -20 68.833 -48.668 91.5 -86.001s34 -80.333 34 -129c0 -50 -11.333 -93.667 -34 -131s-53.167 -66.166 -91.5 -86.499s-79.833 -30.5 -124.5 -30.5c-44 0 -85 10.167 -123 30.5s-68.333 49.333 -91 87s-34 81.167 -34 130.5
c0 48.667 11.333 91.667 34 129s53 66 91 86s79 30 123 30c44.667 0 86.167 -10 124.5 -30zM223.5 1620c-30.333 -16.667 -55.166 -41.167 -74.499 -73.5s-29 -70.5 -29 -114.5c0 -45.333 9.66699 -84 29 -116s44 -55.833 74 -71.5s61.333 -23.5 94 -23.5
s64.167 7.83301 94.5 23.5s55.333 39.5 75 71.5s29.5 70.667 29.5 116c0 44 -9.83301 82.167 -29.5 114.5s-44.834 56.833 -75.501 73.5s-62 25 -94 25s-63.167 -8.33301 -93.5 -25z" />
    <glyph glyph-name="plusminus" unicode="&#xb1;" horiz-adv-x="1222" 
d="M98 0v62h1026v-62h-1026zM1119 758v-62h-476v-481h-73v481h-477v62h477v483h73v-483h476z" />
    <glyph glyph-name="twosuperior" unicode="&#xb2;" horiz-adv-x="718" 
d="M529.5 1507c41.667 -26 62.4971 -63.667 62.4971 -113c0 -34.667 -9.66699 -66.5 -29 -95.5s-43.5 -54.833 -72.5 -77.5s-68.167 -50 -117.5 -82c-58 -39.333 -97.667 -67.333 -119 -84h277c20.667 0 36.834 2.5 48.501 7.5s20.667 12 27 21s13.166 22.5 20.499 40.5
l35 -6c-18.667 -90 -29 -165.667 -31 -227c-16.667 4 -42.667 6 -78 6h-500v41c14.667 12.667 42.334 34.667 83.001 66c54.667 41.333 99.834 78 135.501 110s66.334 69 92.001 111s38.5 86.667 38.5 134c0 34 -10.833 60 -32.5 78s-52.167 27 -91.5 27
c-76 0 -135.667 -32.667 -179 -98l-31 16c64 109.333 163.333 164 298 164c67.333 0 121.833 -13 163.5 -39z" />
    <glyph glyph-name="threesuperior" unicode="&#xb3;" horiz-adv-x="676" 
d="M517.5 1508.5c43.667 -26.333 65.502 -62.501 65.502 -108.501c0 -46.667 -21.333 -86.834 -64 -120.501s-101.334 -58.167 -176.001 -73.5c50 2 95.833 -4.33301 137.5 -19s75 -36.5 100 -65.5s37.5 -63.167 37.5 -102.5c0 -62.667 -27.833 -116.334 -83.5 -161.001
s-126.834 -79 -213.501 -103s-177.334 -38 -272.001 -42v35c73.333 7.33301 139 23.5 197 48.5s103.5 57.5 136.5 97.5s49.5 85 49.5 135c0 43.333 -11.333 79.333 -34 108s-53 44.334 -91 47.001l-19 -9c-25.333 -13.333 -44 -20 -56 -20c-21.333 0 -32 8.33301 -32 25
c0 12.667 7.66699 20.834 23 24.501s37.666 4.83398 66.999 3.50098c37.333 17.333 63.833 40 79.5 68s23.5 55.667 23.5 83c0 33.333 -11.667 60.333 -35 81s-55 31 -95 31c-36.667 0 -70.667 -9 -102 -27s-57.333 -43.333 -78 -76l-30 16
c58.667 109.333 157.334 164 296.001 164c68.667 0 124.834 -13.167 168.501 -39.5z" />
    <glyph glyph-name="acute" unicode="&#xb4;" horiz-adv-x="457" 
d="M440 1595c0 -30 -10.668 -57.998 -32.001 -83.998c-14.667 -18 -31.167 -34.5 -49.5 -49.5s-44.166 -34.5 -77.499 -58.5c-88 -64.667 -161 -123.334 -219 -176.001l-22 18c38.667 70 77.334 154.667 116.001 254c16 41.333 29.167 72.666 39.5 93.999
s23.166 41 38.499 59c26 32 58.667 48 98 48c27.333 0 51 -8.66699 71 -26c24.667 -20 37 -46.333 37 -79z" />
    <glyph glyph-name="paragraph" unicode="&#xb6;" horiz-adv-x="1499" 
d="M1076 1448c126 -2 186.999 -3 182.999 -3c60.667 0 112.667 1.66699 156 5v-39c-40 -2 -70.5 -8.16699 -91.5 -18.5s-35.167 -24.833 -42.5 -43.5s-11 -44.334 -11 -77.001v-1426c0 -51.333 3.83301 -88.666 11.5 -111.999s21.834 -39.333 42.501 -48s54 -14 100 -16v-41
c-84 4 -203.667 6 -359 6c-148 0 -257 -2 -327 -6v41c58 2 101.5 9.16699 130.5 21.5s48.833 31.833 59.5 58.5s16 65.667 16 117v106c-306.667 0 -529.667 68.667 -669 206s-209 323.333 -209 558c0 139.333 31.667 263 95 371s154.833 192.333 274.5 253
s261.167 91 424.5 91c53.333 0 125.333 -1.33301 216 -4zM915.999 1258c-14 -56.667 -26.835 -129.5 -38.502 -218.5s-18.5 -181.5 -20.5 -277.5c-102 0 -199.5 -2.83301 -292.5 -8.5s-169 -12 -228 -19s-88.5 -12.167 -88.5 -15.5c0 -4 28.833 -9.33301 86.5 -16
s133.167 -12.5 226.5 -17.5s192 -7.5 296 -7.5c2 -100 8.83301 -194.167 20.5 -282.5s24.334 -160 38.001 -215s23.834 -82.5 30.501 -82.5v1245c-6 0 -16 -28.333 -30 -85z" />
    <glyph glyph-name="periodcentered" unicode="&#xb7;" horiz-adv-x="570" 
d="M412 691.5c31.333 -28.333 47 -67.166 47 -116.499c0 -48.667 -15.667 -87.167 -47 -115.5s-74 -42.5 -128 -42.5c-53.333 0 -95.666 14.167 -126.999 42.5s-47 66.833 -47 115.5c0 49.333 15.667 88.166 47 116.499s73.666 42.5 126.999 42.5
c54 0 96.667 -14.167 128 -42.5z" />
    <glyph glyph-name="cedilla" unicode="&#xb8;" horiz-adv-x="467" 
d="M318 -109c45.333 0 80.168 -9.83398 104.501 -29.501s36.5 -46.167 36.5 -79.5c0 -55.333 -27.333 -97 -82 -125s-123 -42 -205 -42c-72.667 0 -132.334 8.33301 -179.001 25l11 37c34 -6 64 -9 90 -9c40 0 75 6.83301 105 20.5s45 34.834 45 63.501
c0 35.333 -23 53 -69 53c-32 0 -58.667 -4.66699 -80 -14l64 214h56l-43 -138c44 16 92.667 24 146 24z" />
    <glyph glyph-name="onesuperior" unicode="&#xb9;" horiz-adv-x="580" 
d="M445.5 959c20.333 -14 55.8311 -20.999 106.498 -20.999v-43c-61.333 2.66699 -139.666 4 -234.999 4c-98.667 0 -180 -1.33301 -244 -4v43c50.667 0 88.667 7.16699 114 21.5s38 40.5 38 78.5v265c0 39.333 -4.83301 68.333 -14.5 87s-25.667 31 -48 37
s-56.833 9 -103.5 9v43c84.667 1.33301 153.834 6.66602 207.501 15.999s103.167 25 148.5 47v-504c0 -38.667 10.167 -65 30.5 -79z" />
    <glyph glyph-name="ordmasculine" unicode="&#xba;" horiz-adv-x="959" 
d="M682.5 1436.5c60.333 -28.333 108 -70.5 143 -126.5s52.5 -123.333 52.5 -202s-17.5 -146 -52.5 -202s-82.667 -98.167 -143 -126.5s-128.166 -42.5 -203.499 -42.5c-76 0 -144.167 14.167 -204.5 42.5s-108 70.5 -143 126.5s-52.5 123.333 -52.5 202s17.5 146 52.5 202
s82.667 98.167 143 126.5s128.5 42.5 204.5 42.5c75.333 0 143.166 -14.167 203.499 -42.5zM386.5 1360c-23 -54.667 -34.5 -138.667 -34.5 -252s11.5 -197.333 34.5 -252s53.833 -82 92.5 -82c38 0 68.5 27.333 91.5 82s34.5 138.667 34.5 252s-11.5 197.333 -34.5 252
s-53.5 82 -91.5 82c-38.667 0 -69.5 -27.333 -92.5 -82z" />
    <glyph glyph-name="guillemotright" unicode="&#xbb;" horiz-adv-x="1165" 
d="M810.5 779.5c91 -90.333 191.168 -169.833 300.501 -238.5v-25c-110 -68.667 -210.333 -148.167 -301 -238.5s-178.334 -193.5 -263.001 -309.5l-31 11c32 106 74.5 209.333 127.5 310s107.167 179.667 162.5 237c-54.667 56 -108.667 135.333 -162 238
s-96 207.667 -128 315l31 11c84.667 -116.667 172.5 -220.167 263.5 -310.5zM379.501 757.5c83 -82.333 174.499 -154.5 274.499 -216.5v-25c-100 -62 -191.667 -134 -275 -216s-163.666 -176.333 -240.999 -283l-31 11c28 97.333 65.167 191.5 111.5 282.5
s93.5 162.833 141.5 215.5c-47.333 51.333 -94.333 123.5 -141 216.5s-84 188.833 -112 287.5l31 11c78 -106.667 158.5 -201.167 241.5 -283.5z" />
    <glyph glyph-name="onequarter" unicode="&#xbc;" horiz-adv-x="1452" 
d="M200 -113l-39 27l1198 1774l39 -27zM477.5 959c20.333 -14 55.8311 -20.999 106.498 -20.999v-43c-61.333 2.66699 -139.666 4 -234.999 4c-98.667 0 -180 -1.33301 -244 -4v43c50.667 0 88.667 7.16699 114 21.5s38 40.5 38 78.5v265c0 39.333 -4.83301 68.333 -14.5 87
s-25.667 31 -48 37s-56.833 9 -103.5 9v43c84.667 1.33301 153.834 6.66602 207.501 15.999s103.167 25 148.5 47v-504c0 -38.667 10.167 -65 30.5 -79zM1279 31.001c-16.667 4 -42.667 6 -78 6h-54v-240h-147v240h-401v43l505 559h43v-484h29c21.333 0 37.833 2.5 49.5 7.5
s20.5 12.167 26.5 21.5s12.667 23 20 41l35 -6c-14.667 -47.333 -24 -110 -28 -188zM999.998 474.001l-289 -319h289v319z" />
    <glyph glyph-name="onehalf" unicode="&#xbd;" horiz-adv-x="1475" 
d="M167 -113l-39 27l1198 1774l39 -27zM479.5 959c20.333 -14 55.8311 -20.999 106.498 -20.999v-43c-61.333 2.66699 -139.666 4 -234.999 4c-98.667 0 -180 -1.33301 -244 -4v43c50.667 0 88.667 7.16699 114 21.5s38 40.5 38 78.5v265c0 39.333 -4.83301 68.333 -14.5 87
s-25.667 31 -48 37s-56.833 9 -103.5 9v43c84.667 1.33301 153.834 6.66602 207.501 15.999s103.167 25 148.5 47v-504c0 -38.667 10.167 -65 30.5 -79zM1271.5 612.001c41.667 -26 62.4971 -63.667 62.4971 -113c0 -34.667 -9.66699 -66.5 -29 -95.5
s-43.5 -54.833 -72.5 -77.5s-68.167 -50 -117.5 -82c-58 -39.333 -97.667 -67.333 -119 -84h277c20.667 0 36.834 2.5 48.501 7.5s20.667 12 27 21s13.166 22.5 20.499 40.5l35 -6c-18.667 -90 -29 -165.667 -31 -227c-16.667 4 -42.667 6 -78 6h-500v41
c14.667 12.667 42.334 34.667 83.001 66c54.667 41.333 99.834 78 135.501 110s66.334 69 92.001 111s38.5 86.667 38.5 134c0 34 -10.833 60 -32.5 78s-52.167 27 -91.5 27c-76 0 -135.667 -32.667 -179 -98l-31 16c64 109.333 163.333 164 298 164
c67.333 0 121.833 -13 163.5 -39z" />
    <glyph glyph-name="threequarters" unicode="&#xbe;" horiz-adv-x="1541" 
d="M285 -113l-39 27l1198 1774l39 -27zM560.5 1508.5c43.667 -26.333 65.502 -62.501 65.502 -108.501c0 -46.667 -21.333 -86.834 -64 -120.501s-101.334 -58.167 -176.001 -73.5c50 2 95.833 -4.33301 137.5 -19s75 -36.5 100 -65.5s37.5 -63.167 37.5 -102.5
c0 -62.667 -27.833 -116.334 -83.5 -161.001s-126.834 -79 -213.501 -103s-177.334 -38 -272.001 -42v35c73.333 7.33301 139 23.5 197 48.5s103.5 57.5 136.5 97.5s49.5 85 49.5 135c0 43.333 -11.333 79.333 -34 108s-53 44.334 -91 47.001l-19 -9
c-25.333 -13.333 -44 -20 -56 -20c-21.333 0 -32 8.33301 -32 25c0 12.667 7.66699 20.834 23 24.501s37.666 4.83398 66.999 3.50098c37.333 17.333 63.833 40 79.5 68s23.5 55.667 23.5 83c0 33.333 -11.667 60.333 -35 81s-55 31 -95 31c-36.667 0 -70.667 -9 -102 -27
s-57.333 -43.333 -78 -76l-30 16c58.667 109.333 157.334 164 296.001 164c68.667 0 124.834 -13.167 168.501 -39.5zM1373 30.999c-16.667 4 -42.667 6 -78 6h-54v-240h-147v240h-401v43l505 559h43v-484h29c21.333 0 37.833 2.5 49.5 7.5s20.5 12.167 26.5 21.5
s12.667 23 20 41l35 -6c-14.667 -47.333 -24 -110 -28 -188zM1094 473.999l-289 -319h289v319z" />
    <glyph glyph-name="questiondown" unicode="&#xbf;" horiz-adv-x="1030" 
d="M727 1048.5c31.333 -28.333 47 -67.166 47 -116.499c0 -48.667 -15.667 -87.167 -47 -115.5s-74 -42.5 -128 -42.5c-53.333 0 -95.666 14.167 -126.999 42.5s-47 66.833 -47 115.5c0 49.333 15.667 88.166 47 116.499s73.666 42.5 126.999 42.5
c54 0 96.667 -14.167 128 -42.5zM451.5 272.5c-39.667 -39.667 -66.501 -82.166 -80.501 -127.499s-21 -97 -21 -155c0 -112.667 22.5 -196.5 67.5 -251.5s106.5 -82.5 184.5 -82.5c85.333 0 144.333 15 177 45c-76 24 -114 73.667 -114 149
c0 43.333 15.167 78.833 45.5 106.5s69.5 41.5 117.5 41.5c28 0 53 -6.33301 75 -19s39 -30 51 -52s18 -45.667 18 -71c0 -72.667 -39 -130.667 -117 -174c-77.333 -44.667 -179.333 -67 -306 -67c-97.333 0 -183 14.5 -257 43.5s-131.5 70.667 -172.5 125
s-61.5 118.166 -61.5 191.499c0 104.667 46.833 193.167 140.5 265.5s220.834 124.5 381.501 156.5v265h41v-283c-73.333 -31.333 -129.833 -66.833 -169.5 -106.5z" />
    <glyph glyph-name="Agrave" unicode="&#xc0;" horiz-adv-x="1366" 
d="M1311.5 73.5c23 -20.333 45.834 -31.1709 68.501 -32.5039v-41c-81.333 4 -185 6 -311 6c-140 0 -244 -2 -312 -6v41c51.333 2 88.166 8.33301 110.499 19s33.5 29.334 33.5 56.001c0 24 -8 56.333 -24 97l-123 336h-445l-55 -142c-37.333 -96 -56 -171.667 -56 -227
c0 -50.667 15.167 -86.167 45.5 -106.5s75.833 -31.166 136.5 -32.499v-41c-93.333 4 -178.333 6 -255 6c-64 0 -116.333 -2 -157 -6v41c68.667 12.667 128 84.334 178 215.001l466 1198c22 -2 45.667 -3 71 -3s49 1 71 3l497 -1282
c17.333 -45.333 37.5 -78.166 60.5 -98.499zM536.001 1141l-212 -551h415zM543.501 1871c17.667 -16 41.833 -40.333 72.5 -73c70 -76 137 -140 201 -192l-14 -25c-76 28.667 -165 56 -267 82c-43.333 11.333 -75.666 20.333 -96.999 27s-42 15.667 -62 27
c-22 12 -39 27.167 -51 45.5s-18 37.833 -18 58.5c0 17.333 4 33.333 12 48c10 18.667 24.167 33.167 42.5 43.5s38.166 15.5 59.499 15.5c22.667 0 43.667 -5.33301 63 -16c21.333 -11.333 40.833 -25 58.5 -41z" />
    <glyph glyph-name="Aacute" unicode="&#xc1;" horiz-adv-x="1366" 
d="M1311.5 73.5c23 -20.333 45.834 -31.1709 68.501 -32.5039v-41c-81.333 4 -185 6 -311 6c-140 0 -244 -2 -312 -6v41c51.333 2 88.166 8.33301 110.499 19s33.5 29.334 33.5 56.001c0 24 -8 56.333 -24 97l-123 336h-445l-55 -142c-37.333 -96 -56 -171.667 -56 -227
c0 -50.667 15.167 -86.167 45.5 -106.5s75.833 -31.166 136.5 -32.499v-41c-93.333 4 -178.333 6 -255 6c-64 0 -116.333 -2 -157 -6v41c68.667 12.667 128 84.334 178 215.001l466 1198c22 -2 45.667 -3 71 -3s49 1 71 3l497 -1282
c17.333 -45.333 37.5 -78.166 60.5 -98.499zM536.001 1141l-212 -551h415zM925.001 1928c21.333 0 41.167 -5.16699 59.5 -15.5s32.5 -24.833 42.5 -43.5c7.33301 -14 11 -29.667 11 -47c0 -20.667 -6 -40.334 -18 -59.001s-28.667 -34 -50 -46
c-20 -11.333 -40.667 -20.333 -62 -27s-53.666 -15.667 -96.999 -27c-102 -26 -191 -53.333 -267 -82l-15 25c67.333 54.667 135.333 119.334 204 194.001c30 32 53.5 55.833 70.5 71.5s36.167 29.167 57.5 40.5c19.333 10.667 40.666 16 63.999 16z" />
    <glyph glyph-name="Acircumflex" unicode="&#xc2;" horiz-adv-x="1366" 
d="M1311.5 73.5c23 -20.333 45.834 -31.1709 68.501 -32.5039v-41c-81.333 4 -185 6 -311 6c-140 0 -244 -2 -312 -6v41c51.333 2 88.166 8.33301 110.499 19s33.5 29.334 33.5 56.001c0 24 -8 56.333 -24 97l-123 336h-445l-55 -142c-37.333 -96 -56 -171.667 -56 -227
c0 -50.667 15.167 -86.167 45.5 -106.5s75.833 -31.166 136.5 -32.499v-41c-93.333 4 -178.333 6 -255 6c-64 0 -116.333 -2 -157 -6v41c68.667 12.667 128 84.334 178 215.001l466 1198c22 -2 45.667 -3 71 -3s49 1 71 3l497 -1282
c17.333 -45.333 37.5 -78.166 60.5 -98.499zM536.001 1141l-212 -551h415zM874.001 1748c74.667 -57.333 156.002 -104.666 244.002 -141.999l-10 -30c-88 15.333 -175.333 35.166 -262 59.499s-155.667 48.5 -207 72.5c-42.667 -24 -99.834 -48.167 -171.501 -72.5
s-143.5 -44.166 -215.5 -59.499l-10 30c87.333 36.667 168.166 83.667 242.499 141s133.5 116.666 177.5 177.999h37c42 -60.667 100.333 -119.667 175 -177z" />
    <glyph glyph-name="Atilde" unicode="&#xc3;" horiz-adv-x="1366" 
d="M1311.5 73.5c23 -20.333 45.834 -31.1709 68.501 -32.5039v-41c-81.333 4 -185 6 -311 6c-140 0 -244 -2 -312 -6v41c51.333 2 88.166 8.33301 110.499 19s33.5 29.334 33.5 56.001c0 24 -8 56.333 -24 97l-123 336h-445l-55 -142c-37.333 -96 -56 -171.667 -56 -227
c0 -50.667 15.167 -86.167 45.5 -106.5s75.833 -31.166 136.5 -32.499v-41c-93.333 4 -178.333 6 -255 6c-64 0 -116.333 -2 -157 -6v41c68.667 12.667 128 84.334 178 215.001l466 1198c22 -2 45.667 -3 71 -3s49 1 71 3l497 -1282
c17.333 -45.333 37.5 -78.166 60.5 -98.499zM536.001 1141l-212 -551h415zM617.501 1872.5c34.333 -13 72.833 -32.167 115.5 -57.5c40 -23.333 74 -40.5 102 -51.5s59.333 -16.5 94 -16.5c72.667 0 129.334 37 170.001 111l30 -11c-18 -90 -51.833 -158.333 -101.5 -205
s-106.834 -70 -171.501 -70c-44.667 0 -84 6.5 -118 19.5s-73.333 32.5 -118 58.5c-40 22.667 -74 39.667 -102 51s-59.333 17 -94 17c-71.333 0 -128 -37.333 -170 -112l-29 11c18 90 51.833 158.333 101.5 205s107.167 70 172.5 70c44.667 0 84.167 -6.5 118.5 -19.5z" />
    <glyph glyph-name="Adieresis" unicode="&#xc4;" horiz-adv-x="1366" 
d="M1311.5 73.5c23 -20.333 45.834 -31.1709 68.501 -32.5039v-41c-81.333 4 -185 6 -311 6c-140 0 -244 -2 -312 -6v41c51.333 2 88.166 8.33301 110.499 19s33.5 29.334 33.5 56.001c0 24 -8 56.333 -24 97l-123 336h-445l-55 -142c-37.333 -96 -56 -171.667 -56 -227
c0 -50.667 15.167 -86.167 45.5 -106.5s75.833 -31.166 136.5 -32.499v-41c-93.333 4 -178.333 6 -255 6c-64 0 -116.333 -2 -157 -6v41c68.667 12.667 128 84.334 178 215.001l466 1198c22 -2 45.667 -3 71 -3s49 1 71 3l497 -1282
c17.333 -45.333 37.5 -78.166 60.5 -98.499zM536.001 1141l-212 -551h415zM510.501 1856.5c23.667 -14.333 42.667 -33.501 57 -57.501s21.5 -49.333 21.5 -76c0 -28 -7.16699 -53.667 -21.5 -77s-33.333 -42 -57 -56s-48.834 -21 -75.501 -21
c-28 0 -53.833 6.83301 -77.5 20.5s-42.5 32.334 -56.5 56.001s-21 49.5 -21 77.5c0 26.667 7 52 21 76s32.833 43.167 56.5 57.5s49.5 21.5 77.5 21.5c26.667 0 51.834 -7.16699 75.501 -21.5zM1001 1856.49c24 -14.333 43.168 -33.501 57.501 -57.501
s21.5 -49.333 21.5 -76c0 -28 -7.16699 -53.667 -21.5 -77s-33.5 -42 -57.5 -56s-49.333 -21 -76 -21c-28 0 -53.833 6.83301 -77.5 20.5s-42.334 32.334 -56.001 56.001s-20.5 49.5 -20.5 77.5c0 26.667 7 52 21 76s32.667 43.167 56 57.5s49 21.5 77 21.5
c26.667 0 52 -7.16699 76 -21.5z" />
    <glyph glyph-name="Aring" unicode="&#xc5;" horiz-adv-x="1366" 
d="M1311.5 73.5c23 -20.333 45.834 -31.1709 68.501 -32.5039v-41c-81.333 4 -185 6 -311 6c-140 0 -244 -2 -312 -6v41c51.333 2 88.166 8.33301 110.499 19s33.5 29.334 33.5 56.001c0 24 -8 56.333 -24 97l-123 336h-445l-55 -142c-37.333 -96 -56 -171.667 -56 -227
c0 -50.667 15.167 -86.167 45.5 -106.5s75.833 -31.166 136.5 -32.499v-41c-93.333 4 -178.333 6 -255 6c-64 0 -116.333 -2 -157 -6v41c68.667 12.667 128 84.334 178 215.001l466 1198c22 -2 45.667 -3 71 -3s49 1 71 3l497 -1282
c17.333 -45.333 37.5 -78.166 60.5 -98.499zM536.001 1141l-212 -551h415zM790.501 1894.5c34.333 -16.333 61.666 -39.666 81.999 -69.999s30.5 -65.166 30.5 -104.499c0 -40 -10.167 -75.167 -30.5 -105.5s-47.666 -53.666 -81.999 -69.999s-71.5 -24.5 -111.5 -24.5
c-39.333 0 -75.833 8.16699 -109.5 24.5s-60.667 39.666 -81 69.999s-30.5 65.5 -30.5 105.5c0 39.333 10.167 74.166 30.5 104.499s47.333 53.666 81 69.999s70.167 24.5 109.5 24.5c40 0 77.167 -8.16699 111.5 -24.5zM601.001 1857
c-25.333 -12.667 -46 -30.834 -62 -54.501s-24 -51.834 -24 -84.501c0 -33.333 8 -61.666 24 -84.999s36.5 -40.833 61.5 -52.5s51.167 -17.5 78.5 -17.5c28 0 54.667 5.83301 80 17.5s46 29.167 62 52.5s24 51.666 24 84.999c0 32.667 -8 60.834 -24 84.501
s-36.833 41.834 -62.5 54.501s-52.167 19 -79.5 19c-26.667 0 -52.667 -6.33301 -78 -19z" />
    <glyph glyph-name="AE" unicode="&#xc6;" horiz-adv-x="1820" 
d="M1728 0c-89.333 4 -240.332 5.99902 -452.999 5.99902c-260 0 -456.333 -2 -589 -6v41c41.333 2 71.166 7.33301 89.499 16s30.833 24.667 37.5 48s10 60.666 10 111.999v492h-343l-290 -496c-24.667 -42.667 -37 -76 -37 -100s11.5 -41.5 34.5 -52.5
s58.833 -17.5 107.5 -19.5v-41c-41.333 4 -103.666 6 -186.999 6c-57.333 0 -103 -2 -137 -6v41c22.667 1.33301 45 11.833 67 31.5s46.667 52.834 74 99.501l696 1182c-9.33301 20 -24 33.667 -44 41s-51.667 12 -95 14v41c40 -1.33301 104.667 -2.66602 194 -3.99902
l79 135h49l-79 -135c96 -1.33301 217 -2 363 -2c193.333 0 330.666 2 411.999 6c-9.33301 -103.333 -14 -196.333 -14 -279c0 -59.333 2 -105.666 6 -138.999h-47c-11.333 92 -28.333 165.167 -51 219.5s-51.167 93.166 -85.5 116.499s-76.166 35 -125.499 35h-68
c-45.333 0 -78.333 -4 -99 -12s-34.834 -23.5 -42.501 -46.5s-11.5 -60.167 -11.5 -111.5v-483h108c40 0 71.833 11.167 95.5 33.5s40.5 47.833 50.5 76.5s19.333 64.667 28 108l4 23h47c-4.66699 -60.667 -7 -118.667 -7 -174l1 -88c0 -62 4 -149.333 12 -262h-47
c-8 50.667 -17.167 92.5 -27.5 125.5s-28 60.667 -53 83s-59.5 33.5 -103.5 33.5h-108v-492c0 -51.333 3.83301 -88.5 11.5 -111.5s21.834 -38.5 42.501 -46.5s53.667 -12 99 -12h100c75.333 0 135.666 31.5 180.999 94.5s75.333 168.833 90 317.5h47
c-4 -44 -6 -101.333 -6 -172c0 -110 4.66699 -205.667 14 -287zM823.001 1233c0 16 -0.666992 35.333 -2 58l-317 -541h319v483z" />
    <glyph glyph-name="Ccedilla" unicode="&#xc7;" horiz-adv-x="1445" 
d="M1328 0l-47.0029 -0.00292969c-4 42.667 -9.83301 73.5 -17.5 92.5s-18.5 28.5 -32.5 28.5c-11.333 0 -25.666 -5.66699 -42.999 -17c-38.667 -27.333 -74.167 -50 -106.5 -68s-69.166 -33 -110.499 -45s-87.666 -18.667 -138.999 -20l-33 -104
c46.667 16 99.334 24 158.001 24c48.667 0 86.334 -9.83301 113.001 -29.5s40 -46.167 40 -79.5c0 -55.333 -30.5 -97 -91.5 -125s-138.5 -42 -232.5 -42c-78 0 -141.333 8.33301 -190 25l10 37c40 -6 74.333 -9 103 -9c50 0 93.5 6.83301 130.5 20.5
s55.5 34.834 55.5 63.501c0 35.333 -31 53 -93 53c-31.333 0 -58.333 -4.66699 -81 -14l56 181c-138.667 4.66699 -260 36.834 -364 96.501s-184.333 144.5 -241 254.5s-85 240 -85 390c0 150.667 30.667 284 92 400s147 206 257 270s235.333 96 376 96
c81.333 0 150.666 -11.667 207.999 -35s113.333 -56 168 -98c14.667 -12 28 -18 40 -18c27.333 0 45 40.667 53 122h47c-5.33301 -93.333 -8 -258.666 -8 -495.999h-48c-8 68.667 -17.167 124.334 -27.5 167.001s-25.333 80.5 -45 113.5s-46.834 63.167 -81.501 90.5
c-33.333 32.667 -72.5 57.667 -117.5 75s-92.167 26 -141.5 26c-93.333 0 -170.5 -32.333 -231.5 -97s-105.667 -150.167 -134 -256.5s-42.5 -223.5 -42.5 -351.5s14.833 -244.833 44.5 -350.5s75.667 -190.334 138 -254.001s140.166 -95.5 233.499 -95.5
c46.667 0 92.834 8.5 138.501 25.5s84.5 41.5 116.5 73.5c34.667 26.667 61.667 57.667 81 93s34 76.333 44 123s18.333 106.667 25 180h48c0 -247.333 2.66699 -419.333 8 -516z" />
    <glyph glyph-name="Egrave" unicode="&#xc8;" horiz-adv-x="1298" 
d="M1204 0c-92.667 4 -248.999 5.99902 -468.999 5.99902c-296 0 -518.333 -2 -667 -6v41c46 2 79.167 7.33301 99.5 16s34.333 24.667 42 48s11.5 60.666 11.5 111.999v1016c0 51.333 -3.83301 88.666 -11.5 111.999s-21.834 39.333 -42.501 48s-53.667 14 -99 16v41
c148.667 -4 371 -6 667 -6c201.333 0 344 2 428 6c-9.33301 -112.667 -14 -213.667 -14 -303c0 -59.333 2 -105.666 6 -138.999h-47c-13.333 98.667 -34.333 176.834 -63 234.501s-65.167 98.834 -109.5 123.501s-98.833 37 -163.5 37h-84c-42 0 -72.5 -3.33301 -91.5 -10
s-32 -20 -39 -40s-10.5 -52 -10.5 -96v-507h66c73.333 0 128.666 26.667 165.999 80s63.333 116.666 78 189.999h47c-4.66699 -67.333 -7 -131.666 -7 -192.999l1 -98c0 -69.333 4 -166.333 12 -291h-47c-26.667 180.667 -110 271 -250 271h-66v-516c0 -44 3.5 -76 10.5 -96
s20 -33.333 39 -40s49.5 -10 91.5 -10h101c64 0 119.5 13.833 166.5 41.5s86.833 73.5 119.5 137.5s57.334 149.667 74.001 257h47c-4 -44 -6 -101.333 -6 -172c0 -111.333 4.66699 -215 14 -311zM507.501 1871c17.667 -16 41.833 -40.333 72.5 -73
c70 -76 137 -140 201 -192l-14 -25c-76 28.667 -165 56 -267 82c-43.333 11.333 -75.666 20.333 -96.999 27s-42 15.667 -62 27c-22 12 -39 27.167 -51 45.5s-18 37.833 -18 58.5c0 17.333 4 33.333 12 48c10 18.667 24.167 33.167 42.5 43.5s38.166 15.5 59.499 15.5
c22.667 0 43.667 -5.33301 63 -16c21.333 -11.333 40.833 -25 58.5 -41z" />
    <glyph glyph-name="Eacute" unicode="&#xc9;" horiz-adv-x="1298" 
d="M1204 0c-92.667 4 -248.999 5.99902 -468.999 5.99902c-296 0 -518.333 -2 -667 -6v41c46 2 79.167 7.33301 99.5 16s34.333 24.667 42 48s11.5 60.666 11.5 111.999v1016c0 51.333 -3.83301 88.666 -11.5 111.999s-21.834 39.333 -42.501 48s-53.667 14 -99 16v41
c148.667 -4 371 -6 667 -6c201.333 0 344 2 428 6c-9.33301 -112.667 -14 -213.667 -14 -303c0 -59.333 2 -105.666 6 -138.999h-47c-13.333 98.667 -34.333 176.834 -63 234.501s-65.167 98.834 -109.5 123.501s-98.833 37 -163.5 37h-84c-42 0 -72.5 -3.33301 -91.5 -10
s-32 -20 -39 -40s-10.5 -52 -10.5 -96v-507h66c73.333 0 128.666 26.667 165.999 80s63.333 116.666 78 189.999h47c-4.66699 -67.333 -7 -131.666 -7 -192.999l1 -98c0 -69.333 4 -166.333 12 -291h-47c-26.667 180.667 -110 271 -250 271h-66v-516c0 -44 3.5 -76 10.5 -96
s20 -33.333 39 -40s49.5 -10 91.5 -10h101c64 0 119.5 13.833 166.5 41.5s86.833 73.5 119.5 137.5s57.334 149.667 74.001 257h47c-4 -44 -6 -101.333 -6 -172c0 -111.333 4.66699 -215 14 -311zM889.001 1928c21.333 0 41.167 -5.16699 59.5 -15.5
s32.5 -24.833 42.5 -43.5c7.33301 -14 11 -29.667 11 -47c0 -20.667 -6 -40.334 -18 -59.001s-28.667 -34 -50 -46c-20 -11.333 -40.667 -20.333 -62 -27s-53.666 -15.667 -96.999 -27c-102 -26 -191 -53.333 -267 -82l-15 25c67.333 54.667 135.333 119.334 204 194.001
c30 32 53.5 55.833 70.5 71.5s36.167 29.167 57.5 40.5c19.333 10.667 40.666 16 63.999 16z" />
    <glyph glyph-name="Ecircumflex" unicode="&#xca;" horiz-adv-x="1298" 
d="M1204 0c-92.667 4 -248.999 5.99902 -468.999 5.99902c-296 0 -518.333 -2 -667 -6v41c46 2 79.167 7.33301 99.5 16s34.333 24.667 42 48s11.5 60.666 11.5 111.999v1016c0 51.333 -3.83301 88.666 -11.5 111.999s-21.834 39.333 -42.501 48s-53.667 14 -99 16v41
c148.667 -4 371 -6 667 -6c201.333 0 344 2 428 6c-9.33301 -112.667 -14 -213.667 -14 -303c0 -59.333 2 -105.666 6 -138.999h-47c-13.333 98.667 -34.333 176.834 -63 234.501s-65.167 98.834 -109.5 123.501s-98.833 37 -163.5 37h-84c-42 0 -72.5 -3.33301 -91.5 -10
s-32 -20 -39 -40s-10.5 -52 -10.5 -96v-507h66c73.333 0 128.666 26.667 165.999 80s63.333 116.666 78 189.999h47c-4.66699 -67.333 -7 -131.666 -7 -192.999l1 -98c0 -69.333 4 -166.333 12 -291h-47c-26.667 180.667 -110 271 -250 271h-66v-516c0 -44 3.5 -76 10.5 -96
s20 -33.333 39 -40s49.5 -10 91.5 -10h101c64 0 119.5 13.833 166.5 41.5s86.833 73.5 119.5 137.5s57.334 149.667 74.001 257h47c-4 -44 -6 -101.333 -6 -172c0 -111.333 4.66699 -215 14 -311zM838.001 1748c74.667 -57.333 156.002 -104.666 244.002 -141.999l-10 -30
c-88 15.333 -175.333 35.166 -262 59.499s-155.667 48.5 -207 72.5c-42.667 -24 -99.834 -48.167 -171.501 -72.5s-143.5 -44.166 -215.5 -59.499l-10 30c87.333 36.667 168.166 83.667 242.499 141s133.5 116.666 177.5 177.999h37c42 -60.667 100.333 -119.667 175 -177z
" />
    <glyph glyph-name="Edieresis" unicode="&#xcb;" horiz-adv-x="1298" 
d="M1204 0c-92.667 4 -248.999 5.99902 -468.999 5.99902c-296 0 -518.333 -2 -667 -6v41c46 2 79.167 7.33301 99.5 16s34.333 24.667 42 48s11.5 60.666 11.5 111.999v1016c0 51.333 -3.83301 88.666 -11.5 111.999s-21.834 39.333 -42.501 48s-53.667 14 -99 16v41
c148.667 -4 371 -6 667 -6c201.333 0 344 2 428 6c-9.33301 -112.667 -14 -213.667 -14 -303c0 -59.333 2 -105.666 6 -138.999h-47c-13.333 98.667 -34.333 176.834 -63 234.501s-65.167 98.834 -109.5 123.501s-98.833 37 -163.5 37h-84c-42 0 -72.5 -3.33301 -91.5 -10
s-32 -20 -39 -40s-10.5 -52 -10.5 -96v-507h66c73.333 0 128.666 26.667 165.999 80s63.333 116.666 78 189.999h47c-4.66699 -67.333 -7 -131.666 -7 -192.999l1 -98c0 -69.333 4 -166.333 12 -291h-47c-26.667 180.667 -110 271 -250 271h-66v-516c0 -44 3.5 -76 10.5 -96
s20 -33.333 39 -40s49.5 -10 91.5 -10h101c64 0 119.5 13.833 166.5 41.5s86.833 73.5 119.5 137.5s57.334 149.667 74.001 257h47c-4 -44 -6 -101.333 -6 -172c0 -111.333 4.66699 -215 14 -311zM474.501 1856.5c23.667 -14.333 42.667 -33.501 57 -57.501
s21.5 -49.333 21.5 -76c0 -28 -7.16699 -53.667 -21.5 -77s-33.333 -42 -57 -56s-48.834 -21 -75.501 -21c-28 0 -53.833 6.83301 -77.5 20.5s-42.5 32.334 -56.5 56.001s-21 49.5 -21 77.5c0 26.667 7 52 21 76s32.833 43.167 56.5 57.5s49.5 21.5 77.5 21.5
c26.667 0 51.834 -7.16699 75.501 -21.5zM965.001 1856.5c24 -14.333 43.168 -33.501 57.501 -57.501s21.5 -49.333 21.5 -76c0 -28 -7.16699 -53.667 -21.5 -77s-33.5 -42 -57.5 -56s-49.333 -21 -76 -21c-28 0 -53.833 6.83301 -77.5 20.5s-42.334 32.334 -56.001 56.001
s-20.5 49.5 -20.5 77.5c0 26.667 7 52 21 76s32.667 43.167 56 57.5s49 21.5 77 21.5c26.667 0 52 -7.16699 76 -21.5z" />
    <glyph glyph-name="Igrave" unicode="&#xcc;" horiz-adv-x="770" 
d="M601 1393c-20.667 -8.66699 -34.833 -24.667 -42.5 -48s-11.5 -60.666 -11.5 -111.999v-1016c0 -51.333 3.83301 -88.666 11.5 -111.999s21.834 -39.333 42.501 -48s54 -14 100 -16v-41c-74 4 -177.333 6 -310 6c-146 0 -253.667 -2 -323 -6v41
c46 2 79.167 7.33301 99.5 16s34.333 24.667 42 48s11.5 60.666 11.5 111.999v1016c0 51.333 -3.83301 88.666 -11.5 111.999s-21.834 39.333 -42.501 48s-53.667 14 -99 16v41c69.333 -4 177 -6 323 -6c132.667 0 236 2 310 6v-41c-46 -2 -79.333 -7.33301 -100 -16z
M255.501 1871c17.667 -16 41.833 -40.333 72.5 -73c70 -76 137 -140 201 -192l-14 -25c-76 28.667 -165 56 -267 82c-43.333 11.333 -75.666 20.333 -96.999 27s-42 15.667 -62 27c-22 12 -39 27.167 -51 45.5s-18 37.833 -18 58.5c0 17.333 4 33.333 12 48
c10 18.667 24.167 33.167 42.5 43.5s38.166 15.5 59.499 15.5c22.667 0 43.667 -5.33301 63 -16c21.333 -11.333 40.833 -25 58.5 -41z" />
    <glyph glyph-name="Iacute" unicode="&#xcd;" horiz-adv-x="770" 
d="M601 1393c-20.667 -8.66699 -34.833 -24.667 -42.5 -48s-11.5 -60.666 -11.5 -111.999v-1016c0 -51.333 3.83301 -88.666 11.5 -111.999s21.834 -39.333 42.501 -48s54 -14 100 -16v-41c-74 4 -177.333 6 -310 6c-146 0 -253.667 -2 -323 -6v41
c46 2 79.167 7.33301 99.5 16s34.333 24.667 42 48s11.5 60.666 11.5 111.999v1016c0 51.333 -3.83301 88.666 -11.5 111.999s-21.834 39.333 -42.501 48s-53.667 14 -99 16v41c69.333 -4 177 -6 323 -6c132.667 0 236 2 310 6v-41c-46 -2 -79.333 -7.33301 -100 -16z
M637.001 1928c21.333 0 41.167 -5.16699 59.5 -15.5s32.5 -24.833 42.5 -43.5c7.33301 -14 11 -29.667 11 -47c0 -20.667 -6 -40.334 -18 -59.001s-28.667 -34 -50 -46c-20 -11.333 -40.667 -20.333 -62 -27s-53.666 -15.667 -96.999 -27c-102 -26 -191 -53.333 -267 -82
l-15 25c67.333 54.667 135.333 119.334 204 194.001c30 32 53.5 55.833 70.5 71.5s36.167 29.167 57.5 40.5c19.333 10.667 40.666 16 63.999 16z" />
    <glyph glyph-name="Icircumflex" unicode="&#xce;" horiz-adv-x="770" 
d="M601 1393c-20.667 -8.66699 -34.833 -24.667 -42.5 -48s-11.5 -60.666 -11.5 -111.999v-1016c0 -51.333 3.83301 -88.666 11.5 -111.999s21.834 -39.333 42.501 -48s54 -14 100 -16v-41c-74 4 -177.333 6 -310 6c-146 0 -253.667 -2 -323 -6v41
c46 2 79.167 7.33301 99.5 16s34.333 24.667 42 48s11.5 60.666 11.5 111.999v1016c0 51.333 -3.83301 88.666 -11.5 111.999s-21.834 39.333 -42.501 48s-53.667 14 -99 16v41c69.333 -4 177 -6 323 -6c132.667 0 236 2 310 6v-41c-46 -2 -79.333 -7.33301 -100 -16z
M586.001 1748c74.667 -57.333 156.002 -104.666 244.002 -141.999l-10 -30c-88 15.333 -175.333 35.166 -262 59.499s-155.667 48.5 -207 72.5c-42.667 -24 -99.834 -48.167 -171.501 -72.5s-143.5 -44.166 -215.5 -59.499l-10 30c87.333 36.667 168.166 83.667 242.499 141
s133.5 116.666 177.5 177.999h37c42 -60.667 100.333 -119.667 175 -177z" />
    <glyph glyph-name="Idieresis" unicode="&#xcf;" horiz-adv-x="770" 
d="M601 1393c-20.667 -8.66699 -34.833 -24.667 -42.5 -48s-11.5 -60.666 -11.5 -111.999v-1016c0 -51.333 3.83301 -88.666 11.5 -111.999s21.834 -39.333 42.501 -48s54 -14 100 -16v-41c-74 4 -177.333 6 -310 6c-146 0 -253.667 -2 -323 -6v41
c46 2 79.167 7.33301 99.5 16s34.333 24.667 42 48s11.5 60.666 11.5 111.999v1016c0 51.333 -3.83301 88.666 -11.5 111.999s-21.834 39.333 -42.501 48s-53.667 14 -99 16v41c69.333 -4 177 -6 323 -6c132.667 0 236 2 310 6v-41c-46 -2 -79.333 -7.33301 -100 -16z
M222.501 1856.5c23.667 -14.333 42.667 -33.501 57 -57.501s21.5 -49.333 21.5 -76c0 -28 -7.16699 -53.667 -21.5 -77s-33.333 -42 -57 -56s-48.834 -21 -75.501 -21c-28 0 -53.833 6.83301 -77.5 20.5s-42.5 32.334 -56.5 56.001s-21 49.5 -21 77.5c0 26.667 7 52 21 76
s32.833 43.167 56.5 57.5s49.5 21.5 77.5 21.5c26.667 0 51.834 -7.16699 75.501 -21.5zM713.001 1856.5c24 -14.333 43.168 -33.501 57.501 -57.501s21.5 -49.333 21.5 -76c0 -28 -7.16699 -53.667 -21.5 -77s-33.5 -42 -57.5 -56s-49.333 -21 -76 -21
c-28 0 -53.833 6.83301 -77.5 20.5s-42.334 32.334 -56.001 56.001s-20.5 49.5 -20.5 77.5c0 26.667 7 52 21 76s32.667 43.167 56 57.5s49 21.5 77 21.5c26.667 0 52 -7.16699 76 -21.5z" />
    <glyph glyph-name="Eth" unicode="&#xd0;" horiz-adv-x="1590" 
d="M1299.5 1269c132.333 -120.667 198.5 -296.664 198.5 -527.997c0 -148.667 -32.333 -278.834 -97 -390.501s-158.167 -198 -280.5 -259s-268.166 -91.5 -437.499 -91.5c-33.333 0 -74.666 1 -123.999 3c-120 2 -178.333 3 -175 3c-140.667 0 -245.667 -2 -315 -6v41
c46 2 79.167 7.33301 99.5 16s34.333 24.667 42 48s11.5 60.666 11.5 111.999v492h-153v41h153v483c0 51.333 -3.83301 88.666 -11.5 111.999s-21.834 39.333 -42.501 48s-53.667 14 -99 16v41c87.333 -4.66699 169.666 -7 246.999 -7l64 1l88 2
c110.667 2.66699 188.667 4 234 4c266 0 465.167 -60.333 597.5 -181zM971.5 116.503c67 53 114.832 130.334 143.499 232.001s43 229.834 43 384.501c0 156 -15.333 283.667 -46 383s-79.667 173.666 -147 222.999s-155.666 74 -264.999 74
c-42.667 0 -74.667 -4.83301 -96 -14.5s-36 -26.834 -44 -51.501s-12 -61.334 -12 -110.001v-487h254v-41h-254v-496c0 -49.333 4 -86.166 12 -110.499s22.833 -41.333 44.5 -51s54.167 -14.5 97.5 -14.5c112.667 0 202.5 26.5 269.5 79.5z" />
    <glyph glyph-name="Ntilde" unicode="&#xd1;" horiz-adv-x="1478" 
d="M1319 1374.5c-21.333 -17 -35.832 -43.166 -43.499 -78.499s-11.5 -87.666 -11.5 -156.999v-1143c-10 0.666992 -26.333 1 -49 1c-24 0 -42.667 -0.333008 -56 -1l-888 1126v-786c0 -81.333 4.16699 -140.666 12.5 -177.999s26.166 -64.666 53.499 -81.999
s71.666 -29 132.999 -35v-41c-52.667 4 -126.667 6 -222 6c-75.333 0 -134.666 -2 -177.999 -6v41c44.667 6 77.667 17.5 99 34.5s35.833 43.167 43.5 78.5s11.5 87.666 11.5 156.999v922c0 51.333 -3.83301 88.666 -11.5 111.999s-21.834 39.333 -42.501 48s-54 14 -100 16
v41c43.333 -4 102.666 -6 177.999 -6c70 0 129 2 177 6l792 -977v641c0 81.333 -4.16699 140.666 -12.5 177.999s-26.166 64.666 -53.499 81.999s-71.666 29 -132.999 35v41c53.333 -4 127.333 -6 222 -6c76 0 135.333 2 178 6v-41c-44.667 -6 -77.667 -17.5 -99 -34.5z
M713.501 1872.5c34.333 -13 72.833 -32.167 115.5 -57.5c40 -23.333 74 -40.5 102 -51.5s59.333 -16.5 94 -16.5c72.667 0 129.334 37 170.001 111l30 -11c-18 -90 -51.833 -158.333 -101.5 -205s-106.834 -70 -171.501 -70c-44.667 0 -84 6.5 -118 19.5
s-73.333 32.5 -118 58.5c-40 22.667 -74 39.667 -102 51s-59.333 17 -94 17c-71.333 0 -128 -37.333 -170 -112l-29 11c18 90 51.833 158.333 101.5 205s107.167 70 172.5 70c44.667 0 84.167 -6.5 118.5 -19.5z" />
    <glyph glyph-name="Ograve" unicode="&#xd2;" horiz-adv-x="1623" 
d="M1192 1391c108.667 -58.667 193.001 -143.834 253.001 -255.501s90 -244.5 90 -398.5c0 -150.667 -30.833 -284 -92.5 -400s-147.334 -206 -257.001 -270s-234.834 -96 -375.501 -96c-144.667 0 -271.5 29.333 -380.5 88s-193.333 143.834 -253 255.501
s-89.5 244.5 -89.5 398.5c0 150.667 30.667 284 92 400s147 206 257 270s235.333 96 376 96c144.667 0 271.334 -29.333 380.001 -88zM605.001 1350.5c-56.667 -61 -100.499 -146.001 -131.499 -255.001s-46.5 -233.833 -46.5 -374.5
c0 -141.333 17.333 -266.166 52 -374.499s81.834 -191.833 141.501 -250.5s125.5 -88 197.5 -88c75.333 0 141.5 30.5 198.5 91.5s101 146 132 255s46.5 233.833 46.5 374.5c0 142 -17.333 267 -52 375s-81.834 191.333 -141.501 250s-125.834 88 -198.501 88
c-75.333 0 -141.333 -30.5 -198 -91.5zM672.502 1871c17.667 -16 41.833 -40.333 72.5 -73c70 -76 137 -140 201 -192l-14 -25c-76 28.667 -165 56 -267 82c-43.333 11.333 -75.666 20.333 -96.999 27s-42 15.667 -62 27c-22 12 -39 27.167 -51 45.5s-18 37.833 -18 58.5
c0 17.333 4 33.333 12 48c10 18.667 24.167 33.167 42.5 43.5s38.166 15.5 59.499 15.5c22.667 0 43.667 -5.33301 63 -16c21.333 -11.333 40.833 -25 58.5 -41z" />
    <glyph glyph-name="Oacute" unicode="&#xd3;" horiz-adv-x="1623" 
d="M1192 1391c108.667 -58.667 193.001 -143.834 253.001 -255.501s90 -244.5 90 -398.5c0 -150.667 -30.833 -284 -92.5 -400s-147.334 -206 -257.001 -270s-234.834 -96 -375.501 -96c-144.667 0 -271.5 29.333 -380.5 88s-193.333 143.834 -253 255.501
s-89.5 244.5 -89.5 398.5c0 150.667 30.667 284 92 400s147 206 257 270s235.333 96 376 96c144.667 0 271.334 -29.333 380.001 -88zM605.001 1350.5c-56.667 -61 -100.499 -146.001 -131.499 -255.001s-46.5 -233.833 -46.5 -374.5
c0 -141.333 17.333 -266.166 52 -374.499s81.834 -191.833 141.501 -250.5s125.5 -88 197.5 -88c75.333 0 141.5 30.5 198.5 91.5s101 146 132 255s46.5 233.833 46.5 374.5c0 142 -17.333 267 -52 375s-81.834 191.333 -141.501 250s-125.834 88 -198.501 88
c-75.333 0 -141.333 -30.5 -198 -91.5zM1054 1928c21.333 0 41.167 -5.16699 59.5 -15.5s32.5 -24.833 42.5 -43.5c7.33301 -14 11 -29.667 11 -47c0 -20.667 -6 -40.334 -18 -59.001s-28.667 -34 -50 -46c-20 -11.333 -40.667 -20.333 -62 -27s-53.666 -15.667 -96.999 -27
c-102 -26 -191 -53.333 -267 -82l-15 25c67.333 54.667 135.333 119.334 204 194.001c30 32 53.5 55.833 70.5 71.5s36.167 29.167 57.5 40.5c19.333 10.667 40.666 16 63.999 16z" />
    <glyph glyph-name="Ocircumflex" unicode="&#xd4;" horiz-adv-x="1623" 
d="M1192 1391c108.667 -58.667 193.001 -143.834 253.001 -255.501s90 -244.5 90 -398.5c0 -150.667 -30.833 -284 -92.5 -400s-147.334 -206 -257.001 -270s-234.834 -96 -375.501 -96c-144.667 0 -271.5 29.333 -380.5 88s-193.333 143.834 -253 255.501
s-89.5 244.5 -89.5 398.5c0 150.667 30.667 284 92 400s147 206 257 270s235.333 96 376 96c144.667 0 271.334 -29.333 380.001 -88zM605.001 1350.5c-56.667 -61 -100.499 -146.001 -131.499 -255.001s-46.5 -233.833 -46.5 -374.5
c0 -141.333 17.333 -266.166 52 -374.499s81.834 -191.833 141.501 -250.5s125.5 -88 197.5 -88c75.333 0 141.5 30.5 198.5 91.5s101 146 132 255s46.5 233.833 46.5 374.5c0 142 -17.333 267 -52 375s-81.834 191.333 -141.501 250s-125.834 88 -198.501 88
c-75.333 0 -141.333 -30.5 -198 -91.5zM1003 1748c74.667 -57.333 156.002 -104.666 244.002 -141.999l-10 -30c-88 15.333 -175.333 35.166 -262 59.499s-155.667 48.5 -207 72.5c-42.667 -24 -99.834 -48.167 -171.501 -72.5s-143.5 -44.166 -215.5 -59.499l-10 30
c87.333 36.667 168.166 83.667 242.499 141s133.5 116.666 177.5 177.999h37c42 -60.667 100.333 -119.667 175 -177z" />
    <glyph glyph-name="Otilde" unicode="&#xd5;" horiz-adv-x="1623" 
d="M1192 1391c108.667 -58.667 193.001 -143.834 253.001 -255.501s90 -244.5 90 -398.5c0 -150.667 -30.833 -284 -92.5 -400s-147.334 -206 -257.001 -270s-234.834 -96 -375.501 -96c-144.667 0 -271.5 29.333 -380.5 88s-193.333 143.834 -253 255.501
s-89.5 244.5 -89.5 398.5c0 150.667 30.667 284 92 400s147 206 257 270s235.333 96 376 96c144.667 0 271.334 -29.333 380.001 -88zM605.001 1350.5c-56.667 -61 -100.499 -146.001 -131.499 -255.001s-46.5 -233.833 -46.5 -374.5
c0 -141.333 17.333 -266.166 52 -374.499s81.834 -191.833 141.501 -250.5s125.5 -88 197.5 -88c75.333 0 141.5 30.5 198.5 91.5s101 146 132 255s46.5 233.833 46.5 374.5c0 142 -17.333 267 -52 375s-81.834 191.333 -141.501 250s-125.834 88 -198.501 88
c-75.333 0 -141.333 -30.5 -198 -91.5zM746.502 1872.5c34.333 -13 72.833 -32.167 115.5 -57.5c40 -23.333 74 -40.5 102 -51.5s59.333 -16.5 94 -16.5c72.667 0 129.334 37 170.001 111l30 -11c-18 -90 -51.833 -158.333 -101.5 -205s-106.834 -70 -171.501 -70
c-44.667 0 -84 6.5 -118 19.5s-73.333 32.5 -118 58.5c-40 22.667 -74 39.667 -102 51s-59.333 17 -94 17c-71.333 0 -128 -37.333 -170 -112l-29 11c18 90 51.833 158.333 101.5 205s107.167 70 172.5 70c44.667 0 84.167 -6.5 118.5 -19.5z" />
    <glyph glyph-name="Odieresis" unicode="&#xd6;" horiz-adv-x="1623" 
d="M1192 1391c108.667 -58.667 193.001 -143.834 253.001 -255.501s90 -244.5 90 -398.5c0 -150.667 -30.833 -284 -92.5 -400s-147.334 -206 -257.001 -270s-234.834 -96 -375.501 -96c-144.667 0 -271.5 29.333 -380.5 88s-193.333 143.834 -253 255.501
s-89.5 244.5 -89.5 398.5c0 150.667 30.667 284 92 400s147 206 257 270s235.333 96 376 96c144.667 0 271.334 -29.333 380.001 -88zM605.001 1350.5c-56.667 -61 -100.499 -146.001 -131.499 -255.001s-46.5 -233.833 -46.5 -374.5
c0 -141.333 17.333 -266.166 52 -374.499s81.834 -191.833 141.501 -250.5s125.5 -88 197.5 -88c75.333 0 141.5 30.5 198.5 91.5s101 146 132 255s46.5 233.833 46.5 374.5c0 142 -17.333 267 -52 375s-81.834 191.333 -141.501 250s-125.834 88 -198.501 88
c-75.333 0 -141.333 -30.5 -198 -91.5zM639.502 1856.5c23.667 -14.333 42.667 -33.501 57 -57.501s21.5 -49.333 21.5 -76c0 -28 -7.16699 -53.667 -21.5 -77s-33.333 -42 -57 -56s-48.834 -21 -75.501 -21c-28 0 -53.833 6.83301 -77.5 20.5s-42.5 32.334 -56.5 56.001
s-21 49.5 -21 77.5c0 26.667 7 52 21 76s32.833 43.167 56.5 57.5s49.5 21.5 77.5 21.5c26.667 0 51.834 -7.16699 75.501 -21.5zM1130 1856.5c24 -14.333 43.168 -33.501 57.501 -57.501s21.5 -49.333 21.5 -76c0 -28 -7.16699 -53.667 -21.5 -77s-33.5 -42 -57.5 -56
s-49.333 -21 -76 -21c-28 0 -53.833 6.83301 -77.5 20.5s-42.334 32.334 -56.001 56.001s-20.5 49.5 -20.5 77.5c0 26.667 7 52 21 76s32.667 43.167 56 57.5s49 21.5 77 21.5c26.667 0 52 -7.16699 76 -21.5z" />
    <glyph glyph-name="multiply" unicode="&#xd7;" horiz-adv-x="1010" 
d="M860 1126l45 -45l-354 -352l354 -354l-45 -45l-354 354l-356 -356l-45 45l356 354l-358 358l45 45l358 -358z" />
    <glyph glyph-name="Oslash" unicode="&#xd8;" horiz-adv-x="1623" 
d="M1461 1103.5c49.333 -105 74.0049 -227.167 74.0049 -366.5c0 -150.667 -30.833 -284 -92.5 -400s-147.334 -206 -257.001 -270s-234.834 -96 -375.501 -96c-160.667 0 -299.334 36.333 -416.001 109l-171 -242l-43 29l171 242
c-84.667 63.333 -149.834 146.333 -195.501 249s-68.5 221 -68.5 355c0 150.667 30.667 284 92 400s147 206 257 270s235.333 96 376 96c152 0 284.667 -32.667 398 -98l146 214l39 -26l-145 -214c91.333 -62.667 161.666 -146.5 210.999 -251.5zM605.005 1350.5
c-56.667 -61 -100.5 -145.999 -131.5 -254.999s-46.5 -233.833 -46.5 -374.5c0 -166 23.667 -309 71 -429l595 934c-36 69.333 -79 122.666 -129 159.999s-103.667 56 -161 56c-75.333 0 -141.333 -30.5 -198 -91.5zM1016.5 99.501c57 61 101 145.999 132 254.999
s46.5 233.833 46.5 374.5c0 172.667 -26 321 -78 445l-594 -938c36 -73.333 79.5 -129.666 130.5 -168.999s105.833 -59 164.5 -59c75.333 0 141.5 30.5 198.5 91.5z" />
    <glyph glyph-name="Ugrave" unicode="&#xd9;" horiz-adv-x="1410" 
d="M1274 1374.5c-21.333 -17 -35.833 -43.167 -43.5 -78.5s-11.5 -87.666 -11.5 -156.999v-543c0 -95.333 -6.33301 -178.833 -19 -250.5s-34.334 -132.834 -65.001 -183.501c-36 -60.667 -88.667 -107.667 -158 -141s-154.666 -50 -255.999 -50
c-159.333 0 -282.333 34.667 -369 104c-43.333 34.667 -76.666 74.834 -99.999 120.501s-39.333 99.5 -48 161.5s-13 139.667 -13 233v643c0 51.333 -3.83301 88.666 -11.5 111.999s-21.834 39.333 -42.501 48s-54 14 -100 16v41c70 -4 177 -6 321 -6c140 0 248 2 324 6v-41
c-49.333 -2 -85.166 -7.33301 -107.499 -16s-37.666 -24.667 -45.999 -48s-12.5 -60.666 -12.5 -111.999v-773c0 -95.333 8.66699 -173.166 26 -233.499s46.666 -106 87.999 -137s97.666 -46.5 168.999 -46.5c136 0 232.167 46 288.5 138s84.5 222.667 84.5 392v541
c0 79.333 -4.83301 138.166 -14.5 176.499s-28.167 66.166 -55.5 83.499s-70.333 29 -129 35v41c53.333 -4 127 -6 221 -6c76.667 0 136 2 178 6v-41c-44 -6 -76.667 -17.5 -98 -34.5zM595.5 1871c17.667 -16 41.833 -40.333 72.5 -73c70 -76 137 -140 201 -192l-14 -25
c-76 28.667 -165 56 -267 82c-43.333 11.333 -75.666 20.333 -96.999 27s-42 15.667 -62 27c-22 12 -39 27.167 -51 45.5s-18 37.833 -18 58.5c0 17.333 4 33.333 12 48c10 18.667 24.167 33.167 42.5 43.5s38.166 15.5 59.499 15.5c22.667 0 43.667 -5.33301 63 -16
c21.333 -11.333 40.833 -25 58.5 -41z" />
    <glyph glyph-name="Uacute" unicode="&#xda;" horiz-adv-x="1410" 
d="M1274 1374.5c-21.333 -17 -35.833 -43.167 -43.5 -78.5s-11.5 -87.666 -11.5 -156.999v-543c0 -95.333 -6.33301 -178.833 -19 -250.5s-34.334 -132.834 -65.001 -183.501c-36 -60.667 -88.667 -107.667 -158 -141s-154.666 -50 -255.999 -50
c-159.333 0 -282.333 34.667 -369 104c-43.333 34.667 -76.666 74.834 -99.999 120.501s-39.333 99.5 -48 161.5s-13 139.667 -13 233v643c0 51.333 -3.83301 88.666 -11.5 111.999s-21.834 39.333 -42.501 48s-54 14 -100 16v41c70 -4 177 -6 321 -6c140 0 248 2 324 6v-41
c-49.333 -2 -85.166 -7.33301 -107.499 -16s-37.666 -24.667 -45.999 -48s-12.5 -60.666 -12.5 -111.999v-773c0 -95.333 8.66699 -173.166 26 -233.499s46.666 -106 87.999 -137s97.666 -46.5 168.999 -46.5c136 0 232.167 46 288.5 138s84.5 222.667 84.5 392v541
c0 79.333 -4.83301 138.166 -14.5 176.499s-28.167 66.166 -55.5 83.499s-70.333 29 -129 35v41c53.333 -4 127 -6 221 -6c76.667 0 136 2 178 6v-41c-44 -6 -76.667 -17.5 -98 -34.5zM977 1928c21.333 0 41.167 -5.16699 59.5 -15.5s32.5 -24.833 42.5 -43.5
c7.33301 -14 11 -29.667 11 -47c0 -20.667 -6 -40.334 -18 -59.001s-28.667 -34 -50 -46c-20 -11.333 -40.667 -20.333 -62 -27s-53.666 -15.667 -96.999 -27c-102 -26 -191 -53.333 -267 -82l-15 25c67.333 54.667 135.333 119.334 204 194.001
c30 32 53.5 55.833 70.5 71.5s36.167 29.167 57.5 40.5c19.333 10.667 40.666 16 63.999 16z" />
    <glyph glyph-name="Ucircumflex" unicode="&#xdb;" horiz-adv-x="1410" 
d="M1274 1374.5c-21.333 -17 -35.833 -43.167 -43.5 -78.5s-11.5 -87.666 -11.5 -156.999v-543c0 -95.333 -6.33301 -178.833 -19 -250.5s-34.334 -132.834 -65.001 -183.501c-36 -60.667 -88.667 -107.667 -158 -141s-154.666 -50 -255.999 -50
c-159.333 0 -282.333 34.667 -369 104c-43.333 34.667 -76.666 74.834 -99.999 120.501s-39.333 99.5 -48 161.5s-13 139.667 -13 233v643c0 51.333 -3.83301 88.666 -11.5 111.999s-21.834 39.333 -42.501 48s-54 14 -100 16v41c70 -4 177 -6 321 -6c140 0 248 2 324 6v-41
c-49.333 -2 -85.166 -7.33301 -107.499 -16s-37.666 -24.667 -45.999 -48s-12.5 -60.666 -12.5 -111.999v-773c0 -95.333 8.66699 -173.166 26 -233.499s46.666 -106 87.999 -137s97.666 -46.5 168.999 -46.5c136 0 232.167 46 288.5 138s84.5 222.667 84.5 392v541
c0 79.333 -4.83301 138.166 -14.5 176.499s-28.167 66.166 -55.5 83.499s-70.333 29 -129 35v41c53.333 -4 127 -6 221 -6c76.667 0 136 2 178 6v-41c-44 -6 -76.667 -17.5 -98 -34.5zM926 1748c74.667 -57.333 156.002 -104.666 244.002 -141.999l-10 -30
c-88 15.333 -175.333 35.166 -262 59.499s-155.667 48.5 -207 72.5c-42.667 -24 -99.834 -48.167 -171.501 -72.5s-143.5 -44.166 -215.5 -59.499l-10 30c87.333 36.667 168.166 83.667 242.499 141s133.5 116.666 177.5 177.999h37c42 -60.667 100.333 -119.667 175 -177z
" />
    <glyph glyph-name="Udieresis" unicode="&#xdc;" horiz-adv-x="1410" 
d="M1274 1374.5c-21.333 -17 -35.833 -43.167 -43.5 -78.5s-11.5 -87.666 -11.5 -156.999v-543c0 -95.333 -6.33301 -178.833 -19 -250.5s-34.334 -132.834 -65.001 -183.501c-36 -60.667 -88.667 -107.667 -158 -141s-154.666 -50 -255.999 -50
c-159.333 0 -282.333 34.667 -369 104c-43.333 34.667 -76.666 74.834 -99.999 120.501s-39.333 99.5 -48 161.5s-13 139.667 -13 233v643c0 51.333 -3.83301 88.666 -11.5 111.999s-21.834 39.333 -42.501 48s-54 14 -100 16v41c70 -4 177 -6 321 -6c140 0 248 2 324 6v-41
c-49.333 -2 -85.166 -7.33301 -107.499 -16s-37.666 -24.667 -45.999 -48s-12.5 -60.666 -12.5 -111.999v-773c0 -95.333 8.66699 -173.166 26 -233.499s46.666 -106 87.999 -137s97.666 -46.5 168.999 -46.5c136 0 232.167 46 288.5 138s84.5 222.667 84.5 392v541
c0 79.333 -4.83301 138.166 -14.5 176.499s-28.167 66.166 -55.5 83.499s-70.333 29 -129 35v41c53.333 -4 127 -6 221 -6c76.667 0 136 2 178 6v-41c-44 -6 -76.667 -17.5 -98 -34.5zM562.5 1856.5c23.667 -14.333 42.667 -33.501 57 -57.501s21.5 -49.333 21.5 -76
c0 -28 -7.16699 -53.667 -21.5 -77s-33.333 -42 -57 -56s-48.834 -21 -75.501 -21c-28 0 -53.833 6.83301 -77.5 20.5s-42.5 32.334 -56.5 56.001s-21 49.5 -21 77.5c0 26.667 7 52 21 76s32.833 43.167 56.5 57.5s49.5 21.5 77.5 21.5
c26.667 0 51.834 -7.16699 75.501 -21.5zM1053 1856.5c24 -14.333 43.168 -33.501 57.501 -57.501s21.5 -49.333 21.5 -76c0 -28 -7.16699 -53.667 -21.5 -77s-33.5 -42 -57.5 -56s-49.333 -21 -76 -21c-28 0 -53.833 6.83301 -77.5 20.5s-42.334 32.334 -56.001 56.001
s-20.5 49.5 -20.5 77.5c0 26.667 7 52 21 76s32.667 43.167 56 57.5s49 21.5 77 21.5c26.667 0 52 -7.16699 76 -21.5z" />
    <glyph glyph-name="Yacute" unicode="&#xdd;" horiz-adv-x="1275" 
d="M1263 1451l-0.00292969 -40.998c-63.333 -24.667 -128.666 -103.334 -195.999 -236.001l-242 -480v-477c0 -51.333 3.83301 -88.666 11.5 -111.999s21.834 -39.333 42.501 -48s53.667 -14 99 -16v-41c-72.667 4 -177.667 6 -315 6c-144.667 0 -250.667 -2 -318 -6v41
c46 2 79.333 7.33301 100 16s34.834 24.667 42.501 48s11.5 60.666 11.5 111.999v348l-394 729c-42 76 -81.667 114 -119 114v43c80 -6.66699 160.667 -10 242 -10c126.667 0 255 3.33301 385 10v-43c-48.667 0 -86.667 -4.16699 -114 -12.5s-41 -24.5 -41 -48.5
c0 -12.667 4.33301 -27.667 13 -45l312 -598l159 318c54 107.333 81 191.333 81 252c0 87.333 -57 132.666 -171 135.999v41c93.333 -4 178.333 -6 255 -6c63.333 0 115.333 2 156 6zM921.997 1928c21.333 0 41.167 -5.16699 59.5 -15.5s32.5 -24.833 42.5 -43.5
c7.33301 -14 11 -29.667 11 -47c0 -20.667 -6 -40.334 -18 -59.001s-28.667 -34 -50 -46c-20 -11.333 -40.667 -20.333 -62 -27s-53.666 -15.667 -96.999 -27c-102 -26 -191 -53.333 -267 -82l-15 25c67.333 54.667 135.333 119.334 204 194.001
c30 32 53.5 55.833 70.5 71.5s36.167 29.167 57.5 40.5c19.333 10.667 40.666 16 63.999 16z" />
    <glyph glyph-name="Thorn" unicode="&#xde;" horiz-adv-x="1271" 
d="M547 217c0 -51.333 3.83398 -88.665 11.501 -111.998s21.834 -39.333 42.501 -48s54 -14 100 -16v-41c-74 4 -177.333 6 -310 6c-146 0 -253.667 -2 -323 -6v41c46 2 79.167 7.33301 99.5 16s34.333 24.667 42 48s11.5 60.666 11.5 111.999v1016
c0 51.333 -3.83301 88.666 -11.5 111.999s-21.834 39.333 -42.501 48s-53.667 14 -99 16v41c69.333 -4 177 -6 323 -6c132.667 0 236 2 310 6v-41c-46 -2 -79.333 -7.33301 -100 -16s-34.834 -24.667 -42.501 -48s-11.5 -60.666 -11.5 -111.999v-73l115 2
c188 0 329.5 -33.833 424.5 -101.5s142.5 -164.834 142.5 -291.501c0 -85.333 -18.5 -163 -55.5 -233s-101 -126.833 -192 -170.5s-212.5 -65.5 -364.5 -65.5h-70v-83zM547.001 1122v-781h49c111.333 0 188 36.5 230 109.5s63 172.833 63 299.5
c0 126 -21.5 219.667 -64.5 281s-114.167 92 -213.5 92z" />
    <glyph glyph-name="germandbls" unicode="&#xdf;" horiz-adv-x="1498" 
d="M1354 1116l-292.996 -395.997c248.667 -82.667 373 -209.334 373 -380.001c0 -70.667 -21.833 -134.167 -65.5 -190.5s-103.834 -100.166 -180.501 -131.499s-163 -47 -259 -47c-90 0 -163.333 13.333 -220 40c-39.333 18.667 -69 44.834 -89 78.501
s-30 71.834 -30 114.501c0 34.667 7 65 21 91s32.833 46.167 56.5 60.5s50.167 21.5 79.5 21.5c44 0 79.833 -14.833 107.5 -44.5s41.5 -68.834 41.5 -117.501c0 -44 -11.5 -81.167 -34.5 -111.5s-52.167 -52.833 -87.5 -67.5
c8.66699 -6.66699 22.334 -11.834 41.001 -15.501s36 -5.5 52 -5.5c43.333 0 82.166 12.833 116.499 38.5s61.333 63.5 81 113.5s29.5 110.667 29.5 182c0 219.333 -114.667 364.333 -344 435l289 414c-20 13.333 -47.833 23.166 -83.5 29.499s-70.5 9.5 -104.5 9.5
c-72.667 0 -135 -14.833 -187 -44.5s-93 -81.667 -123 -156s-45 -175.5 -45 -303.5v-516c0 -48 2.16699 -84 6.5 -108s12.666 -41.167 24.999 -51.5s31.166 -15.833 56.499 -16.5v-41c-16.667 0 -46.334 0.666992 -89.001 2c-58.667 2.66699 -120.334 4 -185.001 4
c-126 0 -223.667 -2 -293 -6v41c45.333 2 78.333 7.33301 99 16s34.834 24.667 42.501 48s11.5 60.666 11.5 111.999v391c0 225.333 55.167 392.666 165.5 501.999s269.166 164 476.499 164c222.667 0 403.334 -52.667 542.001 -158z" />
    <glyph glyph-name="agrave" unicode="&#xe0;" horiz-adv-x="1284" 
d="M1300 41l0.000976562 -41c-64 4 -153.667 6 -269 6c-146 0 -253.667 -2 -323 -6v41c45.333 2 78.833 8.83301 100.5 20.5s32.5 30.834 32.5 57.501c0 24 -9 55.333 -27 94l-102 233h-430l-24 -55c-38.667 -88 -58 -158.333 -58 -211c0 -47.333 15 -81.5 45 -102.5
s74.333 -33.167 133 -36.5v-41c-78 4 -156.333 6 -235 6c-72.667 0 -128 -2 -166 -6v41c34 6.66699 64.667 27.167 92 61.5s56.666 87.166 87.999 158.499l433 988c21.333 -1.33301 37 -2 47 -2c11.333 0 27 0.666992 47 2l487 -1077c39.333 -85.333 82.333 -129 129 -131z
M498.001 936l-198 -449h394zM498.001 1702c18 -16.667 41.333 -40.333 70 -71c74 -78.667 141.333 -142.667 202 -192l-14 -26c-76 28.667 -165 56 -267 82c-43.333 11.333 -75.666 20.333 -96.999 27s-42 15.667 -62 27c-22 12 -39 27.167 -51 45.5s-18 37.833 -18 58.5
c0 17.333 4 33.333 12 48c10 18.667 24.167 33.167 42.5 43.5s38.166 15.5 59.499 15.5c22.667 0 43.667 -5.33301 63 -16c22 -11.333 42 -25.333 60 -42z" />
    <glyph glyph-name="aacute" unicode="&#xe1;" horiz-adv-x="1284" 
d="M1300 41l0.000976562 -41c-64 4 -153.667 6 -269 6c-146 0 -253.667 -2 -323 -6v41c45.333 2 78.833 8.83301 100.5 20.5s32.5 30.834 32.5 57.501c0 24 -9 55.333 -27 94l-102 233h-430l-24 -55c-38.667 -88 -58 -158.333 -58 -211c0 -47.333 15 -81.5 45 -102.5
s74.333 -33.167 133 -36.5v-41c-78 4 -156.333 6 -235 6c-72.667 0 -128 -2 -166 -6v41c34 6.66699 64.667 27.167 92 61.5s56.666 87.166 87.999 158.499l433 988c21.333 -1.33301 37 -2 47 -2c11.333 0 27 0.666992 47 2l487 -1077c39.333 -85.333 82.333 -129 129 -131z
M498.001 936l-198 -449h394zM851.001 1760c22 0 42 -5.16699 60 -15.5s32 -24.833 42 -43.5c8 -16 12 -32 12 -48c0 -20.667 -6 -40.167 -18 -58.5s-28.667 -33.5 -50 -45.5c-20 -11.333 -40.667 -20.333 -62 -27s-53.666 -15.667 -96.999 -27
c-104.667 -26.667 -194 -54 -268 -82l-14 26c67.333 54.667 135 119 203 193c30 32 53.667 55.833 71 71.5s36.666 29.167 57.999 40.5c19.333 10.667 40.333 16 63 16z" />
    <glyph glyph-name="acircumflex" unicode="&#xe2;" horiz-adv-x="1284" 
d="M1300 41l0.000976562 -41c-64 4 -153.667 6 -269 6c-146 0 -253.667 -2 -323 -6v41c45.333 2 78.833 8.83301 100.5 20.5s32.5 30.834 32.5 57.501c0 24 -9 55.333 -27 94l-102 233h-430l-24 -55c-38.667 -88 -58 -158.333 -58 -211c0 -47.333 15 -81.5 45 -102.5
s74.333 -33.167 133 -36.5v-41c-78 4 -156.333 6 -235 6c-72.667 0 -128 -2 -166 -6v41c34 6.66699 64.667 27.167 92 61.5s56.666 87.166 87.999 158.499l433 988c21.333 -1.33301 37 -2 47 -2c11.333 0 27 0.666992 47 2l487 -1077c39.333 -85.333 82.333 -129 129 -131z
M498.001 936l-198 -449h394zM830.001 1572c73.333 -57.333 153.001 -104.667 239.001 -142l-10 -30c-88 15.333 -174.333 35.166 -259 59.499s-152 48.5 -202 72.5c-41.333 -24 -96.833 -48.167 -166.5 -72.5s-140.5 -44.166 -212.5 -59.499l-10 30
c85.333 36 164.5 82.833 237.5 140.5s131.167 117.167 174.5 178.5h37c41.333 -60.667 98.666 -119.667 171.999 -177z" />
    <glyph glyph-name="atilde" unicode="&#xe3;" horiz-adv-x="1284" 
d="M1300 41l0.000976562 -41c-64 4 -153.667 6 -269 6c-146 0 -253.667 -2 -323 -6v41c45.333 2 78.833 8.83301 100.5 20.5s32.5 30.834 32.5 57.501c0 24 -9 55.333 -27 94l-102 233h-430l-24 -55c-38.667 -88 -58 -158.333 -58 -211c0 -47.333 15 -81.5 45 -102.5
s74.333 -33.167 133 -36.5v-41c-78 4 -156.333 6 -235 6c-72.667 0 -128 -2 -166 -6v41c34 6.66699 64.667 27.167 92 61.5s56.666 87.166 87.999 158.499l433 988c21.333 -1.33301 37 -2 47 -2c11.333 0 27 0.666992 47 2l487 -1077c39.333 -85.333 82.333 -129 129 -131z
M498.001 936l-198 -449h394zM570.001 1721.5c34.667 -13 73.665 -32.166 116.998 -57.499c40 -22.667 73.833 -39.5 101.5 -50.5s58.5 -16.5 92.5 -16.5c75.333 0 134.333 37.333 177 112l31 -12c-22 -90.667 -57.167 -159.167 -105.5 -205.5s-104.166 -69.5 -167.499 -69.5
c-44.667 0 -84.167 6.66699 -118.5 20s-73.833 32.666 -118.5 57.999c-40 22.667 -73.833 39.5 -101.5 50.5s-58.5 16.5 -92.5 16.5c-74.667 0 -133.667 -38 -177 -114l-31 13c22 90.667 57.167 159.167 105.5 205.5s104.5 69.5 168.5 69.5
c44.667 0 84.334 -6.5 119.001 -19.5z" />
    <glyph glyph-name="adieresis" unicode="&#xe4;" horiz-adv-x="1284" 
d="M1300 41l0.000976562 -41c-64 4 -153.667 6 -269 6c-146 0 -253.667 -2 -323 -6v41c45.333 2 78.833 8.83301 100.5 20.5s32.5 30.834 32.5 57.501c0 24 -9 55.333 -27 94l-102 233h-430l-24 -55c-38.667 -88 -58 -158.333 -58 -211c0 -47.333 15 -81.5 45 -102.5
s74.333 -33.167 133 -36.5v-41c-78 4 -156.333 6 -235 6c-72.667 0 -128 -2 -166 -6v41c34 6.66699 64.667 27.167 92 61.5s56.666 87.166 87.999 158.499l433 988c21.333 -1.33301 37 -2 47 -2c11.333 0 27 0.666992 47 2l487 -1077c39.333 -85.333 82.333 -129 129 -131z
M498.001 936l-198 -449h394zM467.501 1718.5c23.667 -14.333 42.667 -33.334 57 -57.001s21.5 -48.834 21.5 -75.501c0 -28 -7.16699 -53.667 -21.5 -77s-33.333 -42 -57 -56s-48.834 -21 -75.501 -21c-28 0 -53.833 6.83301 -77.5 20.5s-42.5 32.334 -56.5 56.001
s-21 49.5 -21 77.5c0 26.667 7 51.834 21 75.501s32.833 42.667 56.5 57s49.5 21.5 77.5 21.5c26.667 0 51.834 -7.16699 75.501 -21.5zM958.001 1718.5c24 -14.333 43.168 -33.334 57.501 -57.001s21.5 -48.834 21.5 -75.501c0 -28 -7.16699 -53.667 -21.5 -77
s-33.5 -42 -57.5 -56s-49.333 -21 -76 -21c-28 0 -53.833 6.83301 -77.5 20.5s-42.334 32.334 -56.001 56.001s-20.5 49.5 -20.5 77.5c0 26.667 7 51.834 21 75.501s32.667 42.667 56 57s49 21.5 77 21.5c26.667 0 52 -7.16699 76 -21.5z" />
    <glyph glyph-name="aring" unicode="&#xe5;" horiz-adv-x="1284" 
d="M1300 41l0.000976562 -41c-64 4 -153.667 6 -269 6c-146 0 -253.667 -2 -323 -6v41c45.333 2 78.833 8.83301 100.5 20.5s32.5 30.834 32.5 57.501c0 24 -9 55.333 -27 94l-102 233h-430l-24 -55c-38.667 -88 -58 -158.333 -58 -211c0 -47.333 15 -81.5 45 -102.5
s74.333 -33.167 133 -36.5v-41c-78 4 -156.333 6 -235 6c-72.667 0 -128 -2 -166 -6v41c34 6.66699 64.667 27.167 92 61.5s56.666 87.166 87.999 158.499l433 988c21.333 -1.33301 37 -2 47 -2c11.333 0 27 0.666992 47 2l487 -1077c39.333 -85.333 82.333 -129 129 -131z
M498.001 936l-198 -449h394zM747.501 1759.5c34.333 -16.333 61.666 -39.666 81.999 -69.999s30.5 -65.166 30.5 -104.499c0 -40 -10.167 -75.333 -30.5 -106s-47.666 -54.167 -81.999 -70.5s-71.5 -24.5 -111.5 -24.5c-39.333 0 -75.833 8.33301 -109.5 25
s-60.667 40.167 -81 70.5s-30.5 65.5 -30.5 105.5c0 39.333 10.167 74.166 30.5 104.499s47.333 53.666 81 69.999s70.167 24.5 109.5 24.5c40 0 77.167 -8.16699 111.5 -24.5zM558.001 1722c-25.333 -12.667 -46 -30.8359 -62 -54.5029s-24 -51.834 -24 -84.501
c0 -33.333 8 -61.666 24 -84.999s36.5 -41 61.5 -53s51.167 -18 78.5 -18c28 0 54.667 5.83301 80 17.5s46 29.334 62 53.001s24 52.167 24 85.5c0 32.667 -8 60.834 -24 84.501s-36.833 41.834 -62.5 54.501s-52.167 19 -79.5 19c-26.667 0 -52.667 -6.33301 -78 -19z" />
    <glyph glyph-name="ae" unicode="&#xe6;" horiz-adv-x="1701" 
d="M1607 0c-85.333 4 -229.331 6.00586 -431.998 6.00586c-248.667 0 -437 -2 -565 -6v41c41.333 2 71.166 7.33301 89.499 16s30.833 24.667 37.5 48s10 60.666 10 111.999v389h-320l-231 -393c-24 -40.667 -36 -73.334 -36 -98.001s11.667 -42.667 35 -54
s59.333 -18 108 -20v-41c-40.667 4 -103 6 -187 6c-56 0 -101.667 -2 -137 -6v41c43.333 2 90.333 45.667 141 131l594 1003c-10.667 9.33301 -25.334 16.166 -44.001 20.499s-44 7.16602 -76 8.49902v41c50 -2 103 -3 159 -3l64 108h47l-64 -109c98 -1.33301 223 -2 375 -2
c183.333 0 313.666 2 390.999 6c-9.33301 -91.333 -14 -173.333 -14 -246c0 -53.333 2 -95.666 6 -126.999h-47c-11.333 81.333 -27.166 145.666 -47.499 192.999s-46.666 81.333 -78.999 102s-73.5 31 -123.5 31h-59c-38.667 0 -67.667 -4 -87 -12
s-33.333 -23.833 -42 -47.5s-13 -60.5 -13 -110.5v-381h76c35.333 0 63.166 8 83.499 24s35 35.167 44 57.5s17.5 51.5 25.5 87.5l9 40h47c-4.66699 -53.333 -7 -104 -7 -152l1 -77c0 -53.333 4 -130 12 -230h-47c-10.667 53.333 -20.167 92.666 -28.5 117.999
s-23.333 46.833 -45 64.5s-53.167 26.5 -94.5 26.5h-76v-389c0 -50 4.33301 -86.833 13 -110.5s22.667 -39.5 42 -47.5s48.333 -12 87 -12h80c61.333 0 109.166 11.5 143.499 34.5s60.833 60.167 79.5 111.5s34.334 125 47.001 221h47c-4 -38 -6 -87.333 -6 -148
c0 -78.667 4.66699 -167.334 14 -266.001zM747.002 1028.01c0 50 -3.33301 85.333 -10 106l-286 -487h296v381z" />
    <glyph glyph-name="ccedilla" unicode="&#xe7;" horiz-adv-x="1346" 
d="M1239 0l-47.001 -0.00390625c-6.66699 82.667 -23.667 124 -51 124c-10.667 0 -24.334 -6.66699 -41.001 -20c-48.667 -40.667 -99.167 -72.5 -151.5 -95.5s-114.5 -35.5 -186.5 -37.5l-32 -104c47.333 16 100 24 158 24c48.667 0 86.334 -9.83301 113.001 -29.5
s40 -46.167 40 -79.5c0 -55.333 -30.5 -97 -91.5 -125s-138.5 -42 -232.5 -42c-78 0 -141.333 8.33301 -190 25l10 37c40 -6 74.333 -9 103 -9c50 0 93.5 6.83301 130.5 20.5s55.5 34.834 55.5 63.501c0 35.333 -31 53 -93 53c-31.333 0 -58.333 -4.66699 -81 -14l54 181
c-122.667 5.33301 -230.667 33.833 -324 85.5s-166 124.5 -218 218.5s-78 205.333 -78 334c0 130 28.667 245.333 86 346s135.833 178.834 235.5 234.501s211.5 83.5 335.5 83.5c54.667 0 102.5 -5.83301 143.5 -17.5s76 -26.667 105 -45s60.5 -41.833 94.5 -70.5
c15.333 -13.333 28.666 -20 39.999 -20c28 0 45.333 41.333 52 124h47c-5.33301 -82 -8 -225.333 -8 -430h-47c-14.667 74.667 -28.667 128.834 -42 162.501s-33.666 66.834 -60.999 99.501c-38 45.333 -81 80.666 -129 105.999s-98.333 38 -151 38
c-75.333 0 -141 -24.167 -197 -72.5s-99.333 -117.833 -130 -208.5s-46 -198 -46 -322c0 -124.667 17 -231.667 51 -321s80.167 -157 138.5 -203s124.166 -69 197.499 -69c54 0 106.667 12.5 158 37.5s95 60.167 131 105.5c26.667 34 46.334 70.667 59.001 110
s24.334 97 35.001 173h47c0 -215.333 2.66699 -365.666 8 -450.999z" />
    <glyph glyph-name="egrave" unicode="&#xe8;" horiz-adv-x="1248" 
d="M1152 0c-88.667 4 -238.003 6.00293 -448.003 6.00293c-281.333 0 -493 -2 -635 -6v41c46 2 79.333 7.33301 100 16s34.834 24.667 42.501 48s11.5 60.666 11.5 111.999v811c0 51.333 -3.83301 88.666 -11.5 111.999s-21.834 39.333 -42.501 48s-54 14 -100 16v41
c142 -4 353.667 -6 635 -6c191.333 0 327 2 407 6c-9.33301 -91.333 -14 -173.333 -14 -246c0 -53.333 2 -95.666 6 -126.999h-47c-14 80 -34.667 143.833 -62 191.5s-61.666 82 -102.999 103s-91.333 31.5 -150 31.5h-76c-35.333 0 -61.833 -3.16699 -79.5 -9.5
s-30.334 -18.833 -38.001 -37.5s-11.5 -47.334 -11.5 -86.001v-418h96c64 0 111.833 22.167 143.5 66.5s52.834 95.833 63.501 154.5h47c-4.66699 -53.333 -7 -106.333 -7 -159l1 -82c0 -61.333 4 -142 12 -242h-47c-9.33301 64.667 -30.833 117.667 -64.5 159
s-83.167 62 -148.5 62h-96v-426c0 -38.667 3.83301 -67.334 11.5 -86.001s20.334 -31.167 38.001 -37.5s44.167 -9.5 79.5 -9.5h88c64.667 0 119.667 11.833 165 35.5s82.833 62.334 112.5 116.001s51.834 125.5 66.501 215.5h47c-4 -38 -6 -87.333 -6 -148
c0 -78.667 4.66699 -167.334 14 -266.001zM481.997 1702c18 -16.667 41.333 -40.333 70 -71c74 -78.667 141.333 -142.667 202 -192l-14 -26c-76 28.667 -165 56 -267 82c-43.333 11.333 -75.666 20.333 -96.999 27s-42 15.667 -62 27c-22 12 -39 27.167 -51 45.5
s-18 37.833 -18 58.5c0 17.333 4 33.333 12 48c10 18.667 24.167 33.167 42.5 43.5s38.166 15.5 59.499 15.5c22.667 0 43.667 -5.33301 63 -16c22 -11.333 42 -25.333 60 -42z" />
    <glyph glyph-name="eacute" unicode="&#xe9;" horiz-adv-x="1248" 
d="M1152 0c-88.667 4 -238.003 6.00293 -448.003 6.00293c-281.333 0 -493 -2 -635 -6v41c46 2 79.333 7.33301 100 16s34.834 24.667 42.501 48s11.5 60.666 11.5 111.999v811c0 51.333 -3.83301 88.666 -11.5 111.999s-21.834 39.333 -42.501 48s-54 14 -100 16v41
c142 -4 353.667 -6 635 -6c191.333 0 327 2 407 6c-9.33301 -91.333 -14 -173.333 -14 -246c0 -53.333 2 -95.666 6 -126.999h-47c-14 80 -34.667 143.833 -62 191.5s-61.666 82 -102.999 103s-91.333 31.5 -150 31.5h-76c-35.333 0 -61.833 -3.16699 -79.5 -9.5
s-30.334 -18.833 -38.001 -37.5s-11.5 -47.334 -11.5 -86.001v-418h96c64 0 111.833 22.167 143.5 66.5s52.834 95.833 63.501 154.5h47c-4.66699 -53.333 -7 -106.333 -7 -159l1 -82c0 -61.333 4 -142 12 -242h-47c-9.33301 64.667 -30.833 117.667 -64.5 159
s-83.167 62 -148.5 62h-96v-426c0 -38.667 3.83301 -67.334 11.5 -86.001s20.334 -31.167 38.001 -37.5s44.167 -9.5 79.5 -9.5h88c64.667 0 119.667 11.833 165 35.5s82.833 62.334 112.5 116.001s51.834 125.5 66.501 215.5h47c-4 -38 -6 -87.333 -6 -148
c0 -78.667 4.66699 -167.334 14 -266.001zM834.997 1760c22 0 42 -5.16699 60 -15.5s32 -24.833 42 -43.5c8 -16 12 -32 12 -48c0 -20.667 -6 -40.167 -18 -58.5s-28.667 -33.5 -50 -45.5c-20 -11.333 -40.667 -20.333 -62 -27s-53.666 -15.667 -96.999 -27
c-104.667 -26.667 -194 -54 -268 -82l-14 26c67.333 54.667 135 119 203 193c30 32 53.667 55.833 71 71.5s36.666 29.167 57.999 40.5c19.333 10.667 40.333 16 63 16z" />
    <glyph glyph-name="ecircumflex" unicode="&#xea;" horiz-adv-x="1248" 
d="M1152 0c-88.667 4 -238.003 6.00293 -448.003 6.00293c-281.333 0 -493 -2 -635 -6v41c46 2 79.333 7.33301 100 16s34.834 24.667 42.501 48s11.5 60.666 11.5 111.999v811c0 51.333 -3.83301 88.666 -11.5 111.999s-21.834 39.333 -42.501 48s-54 14 -100 16v41
c142 -4 353.667 -6 635 -6c191.333 0 327 2 407 6c-9.33301 -91.333 -14 -173.333 -14 -246c0 -53.333 2 -95.666 6 -126.999h-47c-14 80 -34.667 143.833 -62 191.5s-61.666 82 -102.999 103s-91.333 31.5 -150 31.5h-76c-35.333 0 -61.833 -3.16699 -79.5 -9.5
s-30.334 -18.833 -38.001 -37.5s-11.5 -47.334 -11.5 -86.001v-418h96c64 0 111.833 22.167 143.5 66.5s52.834 95.833 63.501 154.5h47c-4.66699 -53.333 -7 -106.333 -7 -159l1 -82c0 -61.333 4 -142 12 -242h-47c-9.33301 64.667 -30.833 117.667 -64.5 159
s-83.167 62 -148.5 62h-96v-426c0 -38.667 3.83301 -67.334 11.5 -86.001s20.334 -31.167 38.001 -37.5s44.167 -9.5 79.5 -9.5h88c64.667 0 119.667 11.833 165 35.5s82.833 62.334 112.5 116.001s51.834 125.5 66.501 215.5h47c-4 -38 -6 -87.333 -6 -148
c0 -78.667 4.66699 -167.334 14 -266.001zM813.997 1572c73.333 -57.333 153.001 -104.667 239.001 -142l-10 -30c-88 15.333 -174.333 35.166 -259 59.499s-152 48.5 -202 72.5c-41.333 -24 -96.833 -48.167 -166.5 -72.5s-140.5 -44.166 -212.5 -59.499l-10 30
c85.333 36 164.5 82.833 237.5 140.5s131.167 117.167 174.5 178.5h37c41.333 -60.667 98.666 -119.667 171.999 -177z" />
    <glyph glyph-name="edieresis" unicode="&#xeb;" horiz-adv-x="1248" 
d="M1152 0c-88.667 4 -238.003 6.00293 -448.003 6.00293c-281.333 0 -493 -2 -635 -6v41c46 2 79.333 7.33301 100 16s34.834 24.667 42.501 48s11.5 60.666 11.5 111.999v811c0 51.333 -3.83301 88.666 -11.5 111.999s-21.834 39.333 -42.501 48s-54 14 -100 16v41
c142 -4 353.667 -6 635 -6c191.333 0 327 2 407 6c-9.33301 -91.333 -14 -173.333 -14 -246c0 -53.333 2 -95.666 6 -126.999h-47c-14 80 -34.667 143.833 -62 191.5s-61.666 82 -102.999 103s-91.333 31.5 -150 31.5h-76c-35.333 0 -61.833 -3.16699 -79.5 -9.5
s-30.334 -18.833 -38.001 -37.5s-11.5 -47.334 -11.5 -86.001v-418h96c64 0 111.833 22.167 143.5 66.5s52.834 95.833 63.501 154.5h47c-4.66699 -53.333 -7 -106.333 -7 -159l1 -82c0 -61.333 4 -142 12 -242h-47c-9.33301 64.667 -30.833 117.667 -64.5 159
s-83.167 62 -148.5 62h-96v-426c0 -38.667 3.83301 -67.334 11.5 -86.001s20.334 -31.167 38.001 -37.5s44.167 -9.5 79.5 -9.5h88c64.667 0 119.667 11.833 165 35.5s82.833 62.334 112.5 116.001s51.834 125.5 66.501 215.5h47c-4 -38 -6 -87.333 -6 -148
c0 -78.667 4.66699 -167.334 14 -266.001zM451.497 1718.5c23.667 -14.333 42.667 -33.334 57 -57.001s21.5 -48.834 21.5 -75.501c0 -28 -7.16699 -53.667 -21.5 -77s-33.333 -42 -57 -56s-48.834 -21 -75.501 -21c-28 0 -53.833 6.83301 -77.5 20.5
s-42.5 32.334 -56.5 56.001s-21 49.5 -21 77.5c0 26.667 7 51.834 21 75.501s32.833 42.667 56.5 57s49.5 21.5 77.5 21.5c26.667 0 51.834 -7.16699 75.501 -21.5zM941.997 1718.5c24 -14.333 43.168 -33.334 57.501 -57.001s21.5 -48.834 21.5 -75.501
c0 -28 -7.16699 -53.667 -21.5 -77s-33.5 -42 -57.5 -56s-49.333 -21 -76 -21c-28 0 -53.833 6.83301 -77.5 20.5s-42.334 32.334 -56.001 56.001s-20.5 49.5 -20.5 77.5c0 26.667 7 51.834 21 75.501s32.667 42.667 56 57s49 21.5 77 21.5c26.667 0 52 -7.16699 76 -21.5z
" />
    <glyph glyph-name="igrave" unicode="&#xec;" horiz-adv-x="761" 
d="M589.5 1188c-20.333 -8.66699 -34.335 -24.499 -42.002 -47.499s-11.5 -60.5 -11.5 -112.5v-811c0 -51.333 3.83301 -88.666 11.5 -111.999s21.834 -39.333 42.501 -48s54 -14 100 -16v-41c-70.667 4 -172 6 -304 6c-144 0 -249.667 -2 -317 -6v41
c46 2 79.333 7.33301 100 16s34.834 24.667 42.501 48s11.5 60.666 11.5 111.999v811c0 51.333 -3.83301 88.666 -11.5 111.999s-21.834 39.333 -42.501 48s-54 14 -100 16v41c66.667 -4 172.334 -6 317.001 -6c132 0 233.333 2 304 6v-41
c-46.667 -2 -80.167 -7.33301 -100.5 -16zM241.998 1702c18 -16.667 41.333 -40.333 70 -71c74 -78.667 141.333 -142.667 202 -192l-14 -26c-76 28.667 -165 56 -267 82c-43.333 11.333 -75.666 20.333 -96.999 27s-42 15.667 -62 27c-22 12 -39 27.167 -51 45.5
s-18 37.833 -18 58.5c0 17.333 4 33.333 12 48c10 18.667 24.167 33.167 42.5 43.5s38.166 15.5 59.499 15.5c22.667 0 43.667 -5.33301 63 -16c22 -11.333 42 -25.333 60 -42z" />
    <glyph glyph-name="iacute" unicode="&#xed;" horiz-adv-x="761" 
d="M589.5 1188c-20.333 -8.66699 -34.335 -24.499 -42.002 -47.499s-11.5 -60.5 -11.5 -112.5v-811c0 -51.333 3.83301 -88.666 11.5 -111.999s21.834 -39.333 42.501 -48s54 -14 100 -16v-41c-70.667 4 -172 6 -304 6c-144 0 -249.667 -2 -317 -6v41
c46 2 79.333 7.33301 100 16s34.834 24.667 42.501 48s11.5 60.666 11.5 111.999v811c0 51.333 -3.83301 88.666 -11.5 111.999s-21.834 39.333 -42.501 48s-54 14 -100 16v41c66.667 -4 172.334 -6 317.001 -6c132 0 233.333 2 304 6v-41
c-46.667 -2 -80.167 -7.33301 -100.5 -16zM594.998 1760c22 0 42 -5.16699 60 -15.5s32 -24.833 42 -43.5c8 -16 12 -32 12 -48c0 -20.667 -6 -40.167 -18 -58.5s-28.667 -33.5 -50 -45.5c-20 -11.333 -40.667 -20.333 -62 -27s-53.666 -15.667 -96.999 -27
c-104.667 -26.667 -194 -54 -268 -82l-14 26c67.333 54.667 135 119 203 193c30 32 53.667 55.833 71 71.5s36.666 29.167 57.999 40.5c19.333 10.667 40.333 16 63 16z" />
    <glyph glyph-name="icircumflex" unicode="&#xee;" horiz-adv-x="761" 
d="M589.5 1188c-20.333 -8.66699 -34.335 -24.499 -42.002 -47.499s-11.5 -60.5 -11.5 -112.5v-811c0 -51.333 3.83301 -88.666 11.5 -111.999s21.834 -39.333 42.501 -48s54 -14 100 -16v-41c-70.667 4 -172 6 -304 6c-144 0 -249.667 -2 -317 -6v41
c46 2 79.333 7.33301 100 16s34.834 24.667 42.501 48s11.5 60.666 11.5 111.999v811c0 51.333 -3.83301 88.666 -11.5 111.999s-21.834 39.333 -42.501 48s-54 14 -100 16v41c66.667 -4 172.334 -6 317.001 -6c132 0 233.333 2 304 6v-41
c-46.667 -2 -80.167 -7.33301 -100.5 -16zM573.998 1572c73.333 -57.333 153.001 -104.667 239.001 -142l-10 -30c-88 15.333 -174.333 35.166 -259 59.499s-152 48.5 -202 72.5c-41.333 -24 -96.833 -48.167 -166.5 -72.5s-140.5 -44.166 -212.5 -59.499l-10 30
c85.333 36 164.5 82.833 237.5 140.5s131.167 117.167 174.5 178.5h37c41.333 -60.667 98.666 -119.667 171.999 -177z" />
    <glyph glyph-name="idieresis" unicode="&#xef;" horiz-adv-x="761" 
d="M589.5 1188c-20.333 -8.66699 -34.335 -24.499 -42.002 -47.499s-11.5 -60.5 -11.5 -112.5v-811c0 -51.333 3.83301 -88.666 11.5 -111.999s21.834 -39.333 42.501 -48s54 -14 100 -16v-41c-70.667 4 -172 6 -304 6c-144 0 -249.667 -2 -317 -6v41
c46 2 79.333 7.33301 100 16s34.834 24.667 42.501 48s11.5 60.666 11.5 111.999v811c0 51.333 -3.83301 88.666 -11.5 111.999s-21.834 39.333 -42.501 48s-54 14 -100 16v41c66.667 -4 172.334 -6 317.001 -6c132 0 233.333 2 304 6v-41
c-46.667 -2 -80.167 -7.33301 -100.5 -16zM211.498 1718.5c23.667 -14.333 42.667 -33.334 57 -57.001s21.5 -48.834 21.5 -75.501c0 -28 -7.16699 -53.667 -21.5 -77s-33.333 -42 -57 -56s-48.834 -21 -75.501 -21c-28 0 -53.833 6.83301 -77.5 20.5
s-42.5 32.334 -56.5 56.001s-21 49.5 -21 77.5c0 26.667 7 51.834 21 75.501s32.833 42.667 56.5 57s49.5 21.5 77.5 21.5c26.667 0 51.834 -7.16699 75.501 -21.5zM701.998 1718.5c24 -14.333 43.168 -33.334 57.501 -57.001s21.5 -48.834 21.5 -75.501
c0 -28 -7.16699 -53.667 -21.5 -77s-33.5 -42 -57.5 -56s-49.333 -21 -76 -21c-28 0 -53.833 6.83301 -77.5 20.5s-42.334 32.334 -56.001 56.001s-20.5 49.5 -20.5 77.5c0 26.667 7 51.834 21 75.501s32.667 42.667 56 57s49 21.5 77 21.5c26.667 0 52 -7.16699 76 -21.5z
" />
    <glyph glyph-name="eth" unicode="&#xf0;" horiz-adv-x="1497" 
d="M1226.5 1091c119 -102.667 178.499 -253.331 178.499 -451.998c0 -128.667 -28.833 -241 -86.5 -337s-141.667 -170.333 -252 -223s-241.833 -79 -394.5 -79c-36 0 -80.667 1 -134 3c-128 2 -191 3 -189 3c-124 0 -217 -2 -279 -6v41c46 2 79.333 7.33301 100 16
s34.834 24.667 42.501 48s11.5 60.666 11.5 111.999v389h-154v41h154v381c0 52 -3.83301 89.667 -11.5 113s-21.834 39.166 -42.501 47.499s-54 13.5 -100 15.5v41c79.333 -4.66699 152 -7 218 -7l56 1l96 2c118.667 2.66699 202.334 4 251.001 4
c238 0 416.5 -51.333 535.5 -154zM913.999 104.003c60 44.667 102.334 109.998 127.001 195.998s37 196.333 37 331c0 132.667 -13.333 241 -40 325s-70.167 147 -130.5 189s-141.5 63 -243.5 63c-36 0 -62.833 -4.83301 -80.5 -14.5s-29.834 -26.667 -36.501 -51
s-10 -61.166 -10 -110.499v-385h265v-41h-265v-393c0 -49.333 3.33301 -86.166 10 -110.499s19 -41.333 37 -51s45.333 -14.5 82 -14.5c105.333 0 188 22.333 248 67z" />
    <glyph glyph-name="ntilde" unicode="&#xf1;" horiz-adv-x="1413" 
d="M1253.5 1173.5c-21 -14.333 -35.3311 -36.499 -42.998 -66.499s-11.5 -75.333 -11.5 -136v-975c-12 0.666992 -30 1 -54 1c-24.667 0 -43 -0.333008 -55 -1l-819 1018v-740c0 -60.667 5.33301 -106 16 -136s30.667 -52.167 60 -66.5s74.333 -24.5 135 -30.5v-41
c-60 4 -138 6 -234 6c-75.333 0 -134.666 -2 -177.999 -6v41c44.667 6 77.667 16.167 99 30.5s35.833 36.5 43.5 66.5s11.5 75.333 11.5 136v754c0 51.333 -3.83301 88.666 -11.5 111.999s-21.834 39.333 -42.501 48s-54 14 -100 16v41c43.333 -4 102.666 -6 177.999 -6
c97.333 0 180.666 2 249.999 6l654 -811v537c0 60.667 -5.33301 106 -16 136s-30.667 52.167 -60 66.5s-74.333 24.5 -135 30.5v41c60 -4 137.667 -6 233 -6c76.667 0 136 2 178 6v-41c-44.667 -6 -77.5 -16.167 -98.5 -30.5zM694.002 1721.5
c34.667 -13 73.665 -32.166 116.998 -57.499c40 -22.667 73.833 -39.5 101.5 -50.5s58.5 -16.5 92.5 -16.5c75.333 0 134.333 37.333 177 112l31 -12c-22 -90.667 -57.167 -159.167 -105.5 -205.5s-104.166 -69.5 -167.499 -69.5c-44.667 0 -84.167 6.66699 -118.5 20
s-73.833 32.666 -118.5 57.999c-40 22.667 -73.833 39.5 -101.5 50.5s-58.5 16.5 -92.5 16.5c-74.667 0 -133.667 -38 -177 -114l-31 13c22 90.667 57.167 159.167 105.5 205.5s104.5 69.5 168.5 69.5c44.667 0 84.334 -6.5 119.001 -19.5z" />
    <glyph glyph-name="ograve" unicode="&#xf2;" horiz-adv-x="1555" 
d="M1141 1198.5c104 -50.333 184.5 -123.501 241.5 -219.501s85.5 -210.667 85.5 -344c0 -130.667 -29.333 -246.167 -88 -346.5s-140.5 -178.333 -245.5 -234s-224.5 -83.5 -358.5 -83.5c-138 0 -259 25.167 -363 75.5s-184.667 123.5 -242 219.5s-86 210.667 -86 344
c0 130.667 29.333 246.334 88 347.001s140.667 178.667 246 234s225 83 359 83c138 0 259 -25.167 363 -75.5zM581.5 1158.5c-53.667 -52.333 -95.165 -125.333 -124.498 -219s-44 -200.834 -44 -321.501c0 -121.333 16.5 -228.333 49.5 -321s77.667 -164 134 -214
s118.833 -75 187.5 -75c71.333 0 133.833 26.167 187.5 78.5s95.167 125.333 124.5 219s44 200.834 44 321.501c0 121.333 -16.333 228.333 -49 321s-77.334 164 -134.001 214s-119.334 75 -188.001 75c-71.333 0 -133.833 -26.167 -187.5 -78.5zM636.002 1702
c18 -16.667 41.333 -40.333 70 -71c74 -78.667 141.333 -142.667 202 -192l-14 -26c-76 28.667 -165 56 -267 82c-43.333 11.333 -75.666 20.333 -96.999 27s-42 15.667 -62 27c-22 12 -39 27.167 -51 45.5s-18 37.833 -18 58.5c0 17.333 4 33.333 12 48
c10 18.667 24.167 33.167 42.5 43.5s38.166 15.5 59.499 15.5c22.667 0 43.667 -5.33301 63 -16c22 -11.333 42 -25.333 60 -42z" />
    <glyph glyph-name="oacute" unicode="&#xf3;" horiz-adv-x="1555" 
d="M1141 1198.5c104 -50.333 184.5 -123.501 241.5 -219.501s85.5 -210.667 85.5 -344c0 -130.667 -29.333 -246.167 -88 -346.5s-140.5 -178.333 -245.5 -234s-224.5 -83.5 -358.5 -83.5c-138 0 -259 25.167 -363 75.5s-184.667 123.5 -242 219.5s-86 210.667 -86 344
c0 130.667 29.333 246.334 88 347.001s140.667 178.667 246 234s225 83 359 83c138 0 259 -25.167 363 -75.5zM581.5 1158.5c-53.667 -52.333 -95.165 -125.333 -124.498 -219s-44 -200.834 -44 -321.501c0 -121.333 16.5 -228.333 49.5 -321s77.667 -164 134 -214
s118.833 -75 187.5 -75c71.333 0 133.833 26.167 187.5 78.5s95.167 125.333 124.5 219s44 200.834 44 321.501c0 121.333 -16.333 228.333 -49 321s-77.334 164 -134.001 214s-119.334 75 -188.001 75c-71.333 0 -133.833 -26.167 -187.5 -78.5zM989.002 1760
c22 0 42 -5.16699 60 -15.5s32 -24.833 42 -43.5c8 -16 12 -32 12 -48c0 -20.667 -6 -40.167 -18 -58.5s-28.667 -33.5 -50 -45.5c-20 -11.333 -40.667 -20.333 -62 -27s-53.666 -15.667 -96.999 -27c-104.667 -26.667 -194 -54 -268 -82l-14 26
c67.333 54.667 135 119 203 193c30 32 53.667 55.833 71 71.5s36.666 29.167 57.999 40.5c19.333 10.667 40.333 16 63 16z" />
    <glyph glyph-name="ocircumflex" unicode="&#xf4;" horiz-adv-x="1555" 
d="M1141 1198.5c104 -50.333 184.5 -123.501 241.5 -219.501s85.5 -210.667 85.5 -344c0 -130.667 -29.333 -246.167 -88 -346.5s-140.5 -178.333 -245.5 -234s-224.5 -83.5 -358.5 -83.5c-138 0 -259 25.167 -363 75.5s-184.667 123.5 -242 219.5s-86 210.667 -86 344
c0 130.667 29.333 246.334 88 347.001s140.667 178.667 246 234s225 83 359 83c138 0 259 -25.167 363 -75.5zM581.5 1158.5c-53.667 -52.333 -95.165 -125.333 -124.498 -219s-44 -200.834 -44 -321.501c0 -121.333 16.5 -228.333 49.5 -321s77.667 -164 134 -214
s118.833 -75 187.5 -75c71.333 0 133.833 26.167 187.5 78.5s95.167 125.333 124.5 219s44 200.834 44 321.501c0 121.333 -16.333 228.333 -49 321s-77.334 164 -134.001 214s-119.334 75 -188.001 75c-71.333 0 -133.833 -26.167 -187.5 -78.5zM968.002 1572
c73.333 -57.333 153.001 -104.667 239.001 -142l-10 -30c-88 15.333 -174.333 35.166 -259 59.499s-152 48.5 -202 72.5c-41.333 -24 -96.833 -48.167 -166.5 -72.5s-140.5 -44.166 -212.5 -59.499l-10 30c85.333 36 164.5 82.833 237.5 140.5s131.167 117.167 174.5 178.5
h37c41.333 -60.667 98.666 -119.667 171.999 -177z" />
    <glyph glyph-name="otilde" unicode="&#xf5;" horiz-adv-x="1555" 
d="M1141 1198.5c104 -50.333 184.5 -123.501 241.5 -219.501s85.5 -210.667 85.5 -344c0 -130.667 -29.333 -246.167 -88 -346.5s-140.5 -178.333 -245.5 -234s-224.5 -83.5 -358.5 -83.5c-138 0 -259 25.167 -363 75.5s-184.667 123.5 -242 219.5s-86 210.667 -86 344
c0 130.667 29.333 246.334 88 347.001s140.667 178.667 246 234s225 83 359 83c138 0 259 -25.167 363 -75.5zM581.5 1158.5c-53.667 -52.333 -95.165 -125.333 -124.498 -219s-44 -200.834 -44 -321.501c0 -121.333 16.5 -228.333 49.5 -321s77.667 -164 134 -214
s118.833 -75 187.5 -75c71.333 0 133.833 26.167 187.5 78.5s95.167 125.333 124.5 219s44 200.834 44 321.501c0 121.333 -16.333 228.333 -49 321s-77.334 164 -134.001 214s-119.334 75 -188.001 75c-71.333 0 -133.833 -26.167 -187.5 -78.5zM708.002 1721.5
c34.667 -13 73.665 -32.166 116.998 -57.499c40 -22.667 73.833 -39.5 101.5 -50.5s58.5 -16.5 92.5 -16.5c75.333 0 134.333 37.333 177 112l31 -12c-22 -90.667 -57.167 -159.167 -105.5 -205.5s-104.166 -69.5 -167.499 -69.5c-44.667 0 -84.167 6.66699 -118.5 20
s-73.833 32.666 -118.5 57.999c-40 22.667 -73.833 39.5 -101.5 50.5s-58.5 16.5 -92.5 16.5c-74.667 0 -133.667 -38 -177 -114l-31 13c22 90.667 57.167 159.167 105.5 205.5s104.5 69.5 168.5 69.5c44.667 0 84.334 -6.5 119.001 -19.5z" />
    <glyph glyph-name="odieresis" unicode="&#xf6;" horiz-adv-x="1555" 
d="M1141 1198.5c104 -50.333 184.5 -123.501 241.5 -219.501s85.5 -210.667 85.5 -344c0 -130.667 -29.333 -246.167 -88 -346.5s-140.5 -178.333 -245.5 -234s-224.5 -83.5 -358.5 -83.5c-138 0 -259 25.167 -363 75.5s-184.667 123.5 -242 219.5s-86 210.667 -86 344
c0 130.667 29.333 246.334 88 347.001s140.667 178.667 246 234s225 83 359 83c138 0 259 -25.167 363 -75.5zM581.5 1158.5c-53.667 -52.333 -95.165 -125.333 -124.498 -219s-44 -200.834 -44 -321.501c0 -121.333 16.5 -228.333 49.5 -321s77.667 -164 134 -214
s118.833 -75 187.5 -75c71.333 0 133.833 26.167 187.5 78.5s95.167 125.333 124.5 219s44 200.834 44 321.501c0 121.333 -16.333 228.333 -49 321s-77.334 164 -134.001 214s-119.334 75 -188.001 75c-71.333 0 -133.833 -26.167 -187.5 -78.5zM605.502 1718.5
c23.667 -14.333 42.667 -33.334 57 -57.001s21.5 -48.834 21.5 -75.501c0 -28 -7.16699 -53.667 -21.5 -77s-33.333 -42 -57 -56s-48.834 -21 -75.501 -21c-28 0 -53.833 6.83301 -77.5 20.5s-42.5 32.334 -56.5 56.001s-21 49.5 -21 77.5c0 26.667 7 51.834 21 75.501
s32.833 42.667 56.5 57s49.5 21.5 77.5 21.5c26.667 0 51.834 -7.16699 75.501 -21.5zM1096 1718.5c24 -14.333 43.168 -33.334 57.501 -57.001s21.5 -48.834 21.5 -75.501c0 -28 -7.16699 -53.667 -21.5 -77s-33.5 -42 -57.5 -56s-49.333 -21 -76 -21
c-28 0 -53.833 6.83301 -77.5 20.5s-42.334 32.334 -56.001 56.001s-20.5 49.5 -20.5 77.5c0 26.667 7 51.834 21 75.501s32.667 42.667 56 57s49 21.5 77 21.5c26.667 0 52 -7.16699 76 -21.5z" />
    <glyph glyph-name="divide" unicode="&#xf7;" horiz-adv-x="1297" 
d="M730.5 1101.5c22.333 -22.333 33.5 -48.833 33.5 -79.5c0 -32 -11.167 -58.833 -33.5 -80.5s-49.5 -32.5 -81.5 -32.5c-30.667 0 -57.167 11 -79.5 33s-33.5 48.667 -33.5 80c0 30.667 11.167 57.167 33.5 79.5s48.833 33.5 79.5 33.5c32 0 59.167 -11.167 81.5 -33.5z
M137 696v62h1026v-62h-1026zM730.5 512c22.333 -22 33.5 -48.667 33.5 -80s-11.167 -58.333 -33.5 -81s-49.5 -34 -81.5 -34c-30.667 0 -57.167 11.333 -79.5 34s-33.5 49.667 -33.5 81c0 30.667 11.167 57.167 33.5 79.5s48.833 33.5 79.5 33.5c32 0 59.167 -11 81.5 -33z
" />
    <glyph glyph-name="oslash" unicode="&#xf8;" horiz-adv-x="1555" 
d="M1397 955.5c48 -91 72 -197.834 72 -320.501c0 -130.667 -29.333 -246.167 -88 -346.5s-140.5 -178.333 -245.5 -234s-224.5 -83.5 -358.5 -83.5c-138 0 -258.333 24.667 -361 74l-141 -192l-40 28l137 188c-91.333 52.667 -161.833 125 -211.5 217s-74.5 200 -74.5 324
c0 130.667 29.333 246.334 88 347.001s140.667 178.667 246 234s225 83 359 83c142 0 265 -26.333 369 -79l136 198l39 -27l-132 -194c89.333 -53.333 158 -125.5 206 -216.5zM582.5 1158.5c-53.667 -52.333 -95.167 -125.332 -124.5 -218.999s-44 -200.834 -44 -321.501
c0 -156.667 27 -288.334 81 -395.001l549 831c-34 58.667 -74.667 103.834 -122 135.501s-98 47.5 -152 47.5c-71.333 0 -133.833 -26.167 -187.5 -78.5zM972.5 86.5c53.667 52.333 95.168 125.332 124.501 218.999s44 200.834 44 321.501c0 146.667 -24 272.667 -72 378
l-546 -833c33.333 -52.667 72.666 -93.167 117.999 -121.5s93.333 -42.5 144 -42.5c71.333 0 133.833 26.167 187.5 78.5z" />
    <glyph glyph-name="ugrave" unicode="&#xf9;" 
d="M1231.5 1169.5c-23 -17 -38.501 -42.998 -46.501 -77.998s-12 -87.5 -12 -157.5v-379c0 -93.333 -6.5 -173.333 -19.5 -240s-34.5 -124.667 -64.5 -174c-33.333 -52 -82.5 -93.333 -147.5 -124s-138.167 -46 -219.5 -46c-153.333 0 -273.666 30 -360.999 90
c-47.333 36 -83.5 74.667 -108.5 116s-42.5 90.666 -52.5 147.999s-15 132 -15 224v479c0 51.333 -3.83301 88.666 -11.5 111.999s-21.667 39.333 -42 48s-53.5 14 -99.5 16v41c66.667 -4 170.334 -6 311.001 -6c133.333 0 236.333 2 309 6v-41
c-46 -2 -79.167 -7.33301 -99.5 -16s-34.333 -24.5 -42 -47.5s-11.5 -60.5 -11.5 -112.5v-514c0 -98.667 6.66699 -180.167 20 -244.5s41.166 -116.166 83.499 -155.499s104.833 -59 187.5 -59c123.333 0 210 41.833 260 125.5s75 200.834 75 351.501v377
c0 79.333 -4.66699 138.166 -14 176.499s-27.666 66.166 -54.999 83.499s-70.333 29 -129 35v41c53.333 -4 127 -6 221 -6c81.333 0 144.666 2 189.999 6v-41c-48 -6 -83.5 -17.5 -106.5 -34.5zM561.999 1702c18 -16.667 41.333 -40.333 70 -71
c74 -78.667 141.333 -142.667 202 -192l-14 -26c-76 28.667 -165 56 -267 82c-43.333 11.333 -75.666 20.333 -96.999 27s-42 15.667 -62 27c-22 12 -39 27.167 -51 45.5s-18 37.833 -18 58.5c0 17.333 4 33.333 12 48c10 18.667 24.167 33.167 42.5 43.5
s38.166 15.5 59.499 15.5c22.667 0 43.667 -5.33301 63 -16c22 -11.333 42 -25.333 60 -42z" />
    <glyph glyph-name="uacute" unicode="&#xfa;" 
d="M1231.5 1169.5c-23 -17 -38.501 -42.998 -46.501 -77.998s-12 -87.5 -12 -157.5v-379c0 -93.333 -6.5 -173.333 -19.5 -240s-34.5 -124.667 -64.5 -174c-33.333 -52 -82.5 -93.333 -147.5 -124s-138.167 -46 -219.5 -46c-153.333 0 -273.666 30 -360.999 90
c-47.333 36 -83.5 74.667 -108.5 116s-42.5 90.666 -52.5 147.999s-15 132 -15 224v479c0 51.333 -3.83301 88.666 -11.5 111.999s-21.667 39.333 -42 48s-53.5 14 -99.5 16v41c66.667 -4 170.334 -6 311.001 -6c133.333 0 236.333 2 309 6v-41
c-46 -2 -79.167 -7.33301 -99.5 -16s-34.333 -24.5 -42 -47.5s-11.5 -60.5 -11.5 -112.5v-514c0 -98.667 6.66699 -180.167 20 -244.5s41.166 -116.166 83.499 -155.499s104.833 -59 187.5 -59c123.333 0 210 41.833 260 125.5s75 200.834 75 351.501v377
c0 79.333 -4.66699 138.166 -14 176.499s-27.666 66.166 -54.999 83.499s-70.333 29 -129 35v41c53.333 -4 127 -6 221 -6c81.333 0 144.666 2 189.999 6v-41c-48 -6 -83.5 -17.5 -106.5 -34.5zM914.999 1760c22 0 42 -5.16699 60 -15.5s32 -24.833 42 -43.5
c8 -16 12 -32 12 -48c0 -20.667 -6 -40.167 -18 -58.5s-28.667 -33.5 -50 -45.5c-20 -11.333 -40.667 -20.333 -62 -27s-53.666 -15.667 -96.999 -27c-104.667 -26.667 -194 -54 -268 -82l-14 26c67.333 54.667 135 119 203 193c30 32 53.667 55.833 71 71.5
s36.666 29.167 57.999 40.5c19.333 10.667 40.333 16 63 16z" />
    <glyph glyph-name="ucircumflex" unicode="&#xfb;" 
d="M1231.5 1169.5c-23 -17 -38.501 -42.998 -46.501 -77.998s-12 -87.5 -12 -157.5v-379c0 -93.333 -6.5 -173.333 -19.5 -240s-34.5 -124.667 -64.5 -174c-33.333 -52 -82.5 -93.333 -147.5 -124s-138.167 -46 -219.5 -46c-153.333 0 -273.666 30 -360.999 90
c-47.333 36 -83.5 74.667 -108.5 116s-42.5 90.666 -52.5 147.999s-15 132 -15 224v479c0 51.333 -3.83301 88.666 -11.5 111.999s-21.667 39.333 -42 48s-53.5 14 -99.5 16v41c66.667 -4 170.334 -6 311.001 -6c133.333 0 236.333 2 309 6v-41
c-46 -2 -79.167 -7.33301 -99.5 -16s-34.333 -24.5 -42 -47.5s-11.5 -60.5 -11.5 -112.5v-514c0 -98.667 6.66699 -180.167 20 -244.5s41.166 -116.166 83.499 -155.499s104.833 -59 187.5 -59c123.333 0 210 41.833 260 125.5s75 200.834 75 351.501v377
c0 79.333 -4.66699 138.166 -14 176.499s-27.666 66.166 -54.999 83.499s-70.333 29 -129 35v41c53.333 -4 127 -6 221 -6c81.333 0 144.666 2 189.999 6v-41c-48 -6 -83.5 -17.5 -106.5 -34.5zM893.999 1572c73.333 -57.333 153.001 -104.667 239.001 -142l-10 -30
c-88 15.333 -174.333 35.166 -259 59.499s-152 48.5 -202 72.5c-41.333 -24 -96.833 -48.167 -166.5 -72.5s-140.5 -44.166 -212.5 -59.499l-10 30c85.333 36 164.5 82.833 237.5 140.5s131.167 117.167 174.5 178.5h37c41.333 -60.667 98.666 -119.667 171.999 -177z" />
    <glyph glyph-name="udieresis" unicode="&#xfc;" 
d="M1231.5 1169.5c-23 -17 -38.501 -42.998 -46.501 -77.998s-12 -87.5 -12 -157.5v-379c0 -93.333 -6.5 -173.333 -19.5 -240s-34.5 -124.667 -64.5 -174c-33.333 -52 -82.5 -93.333 -147.5 -124s-138.167 -46 -219.5 -46c-153.333 0 -273.666 30 -360.999 90
c-47.333 36 -83.5 74.667 -108.5 116s-42.5 90.666 -52.5 147.999s-15 132 -15 224v479c0 51.333 -3.83301 88.666 -11.5 111.999s-21.667 39.333 -42 48s-53.5 14 -99.5 16v41c66.667 -4 170.334 -6 311.001 -6c133.333 0 236.333 2 309 6v-41
c-46 -2 -79.167 -7.33301 -99.5 -16s-34.333 -24.5 -42 -47.5s-11.5 -60.5 -11.5 -112.5v-514c0 -98.667 6.66699 -180.167 20 -244.5s41.166 -116.166 83.499 -155.499s104.833 -59 187.5 -59c123.333 0 210 41.833 260 125.5s75 200.834 75 351.501v377
c0 79.333 -4.66699 138.166 -14 176.499s-27.666 66.166 -54.999 83.499s-70.333 29 -129 35v41c53.333 -4 127 -6 221 -6c81.333 0 144.666 2 189.999 6v-41c-48 -6 -83.5 -17.5 -106.5 -34.5zM531.499 1718.5c23.667 -14.333 42.667 -33.334 57 -57.001
s21.5 -48.834 21.5 -75.501c0 -28 -7.16699 -53.667 -21.5 -77s-33.333 -42 -57 -56s-48.834 -21 -75.501 -21c-28 0 -53.833 6.83301 -77.5 20.5s-42.5 32.334 -56.5 56.001s-21 49.5 -21 77.5c0 26.667 7 51.834 21 75.501s32.833 42.667 56.5 57s49.5 21.5 77.5 21.5
c26.667 0 51.834 -7.16699 75.501 -21.5zM1022 1718.5c24 -14.333 43.168 -33.334 57.501 -57.001s21.5 -48.834 21.5 -75.501c0 -28 -7.16699 -53.667 -21.5 -77s-33.5 -42 -57.5 -56s-49.333 -21 -76 -21c-28 0 -53.833 6.83301 -77.5 20.5s-42.334 32.334 -56.001 56.001
s-20.5 49.5 -20.5 77.5c0 26.667 7 51.834 21 75.501s32.667 42.667 56 57s49 21.5 77 21.5c26.667 0 52 -7.16699 76 -21.5z" />
    <glyph glyph-name="yacute" unicode="&#xfd;" horiz-adv-x="1228" 
d="M1213 1245l0.00292969 -41.999c-28.667 -11.333 -56.834 -33.833 -84.501 -67.5s-60.167 -84.167 -97.5 -151.5l-235 -432v-323c0 -54.667 4.83301 -94.5 14.5 -119.5s27.5 -42.167 53.5 -51.5s67 -15 123 -17v-41c-70.667 4 -188.334 6 -353.001 6s-278.667 -2 -342 -6
v41c56 2 97 7.66699 123 17s43.833 26.5 53.5 51.5s14.5 64.833 14.5 119.5v221l-367 637c-23.333 40.667 -43.833 69.167 -61.5 85.5s-36.834 26.166 -57.501 29.499v43c85.333 -6.66699 166 -10 242 -10c108.667 0 228.667 3.33301 360 10v-43
c-40 0 -71.5 -3.66699 -94.5 -11s-34.5 -22.333 -34.5 -45c0 -16.667 7.33301 -37.667 22 -63l276 -484l132 239c53.333 100 80 178.667 80 236c0 81.333 -51.667 124.333 -155 129v42c78.667 -4.66699 155.667 -7 231 -7c70 0 122.333 2.33301 157 7zM843.003 1760
c22 0 42 -5.16699 60 -15.5s32 -24.833 42 -43.5c8 -16 12 -32 12 -48c0 -20.667 -6 -40.167 -18 -58.5s-28.667 -33.5 -50 -45.5c-20 -11.333 -40.667 -20.333 -62 -27s-53.666 -15.667 -96.999 -27c-104.667 -26.667 -194 -54 -268 -82l-14 26
c67.333 54.667 135 119 203 193c30 32 53.667 55.833 71 71.5s36.666 29.167 57.999 40.5c19.333 10.667 40.333 16 63 16z" />
    <glyph glyph-name="thorn" unicode="&#xfe;" horiz-adv-x="1230" 
d="M536 217c0 -51.333 3.83203 -88.665 11.499 -111.998s21.834 -39.333 42.501 -48s54 -14 100 -16v-41c-70.667 4 -172 6 -304 6c-144 0 -249.667 -2 -317 -6v41c46 2 79.333 7.33301 100 16s34.834 24.667 42.501 48s11.5 60.666 11.5 111.999v811
c0 51.333 -3.83301 88.666 -11.5 111.999s-21.834 39.333 -42.501 48s-54 14 -100 16v41c67.333 -4 173 -6 317 -6c132 0 233.333 2 304 6v-41c-46.667 -2 -80.167 -7.33301 -100.5 -16s-34.333 -24.5 -42 -47.5s-11.5 -60.5 -11.5 -112.5v-26l123 2
c114.667 0 211.5 -14.333 290.5 -43s138.167 -68.667 177.5 -120s59 -111 59 -179c0 -66 -18.333 -129 -55 -189s-99 -109.833 -187 -149.5s-204.667 -59.5 -350 -59.5h-58v-47zM535.999 965.001v-660h37c100 0 172.5 31 217.5 93s67.5 142.333 67.5 241
c0 107.333 -21.167 188.5 -63.5 243.5s-104.5 82.5 -186.5 82.5h-72z" />
    <glyph glyph-name="ydieresis" unicode="&#xff;" horiz-adv-x="1228" 
d="M1213 1245l0.00292969 -41.999c-28.667 -11.333 -56.834 -33.833 -84.501 -67.5s-60.167 -84.167 -97.5 -151.5l-235 -432v-323c0 -54.667 4.83301 -94.5 14.5 -119.5s27.5 -42.167 53.5 -51.5s67 -15 123 -17v-41c-70.667 4 -188.334 6 -353.001 6s-278.667 -2 -342 -6
v41c56 2 97 7.66699 123 17s43.833 26.5 53.5 51.5s14.5 64.833 14.5 119.5v221l-367 637c-23.333 40.667 -43.833 69.167 -61.5 85.5s-36.834 26.166 -57.501 29.499v43c85.333 -6.66699 166 -10 242 -10c108.667 0 228.667 3.33301 360 10v-43
c-40 0 -71.5 -3.66699 -94.5 -11s-34.5 -22.333 -34.5 -45c0 -16.667 7.33301 -37.667 22 -63l276 -484l132 239c53.333 100 80 178.667 80 236c0 81.333 -51.667 124.333 -155 129v42c78.667 -4.66699 155.667 -7 231 -7c70 0 122.333 2.33301 157 7zM459.503 1718.5
c23.667 -14.333 42.667 -33.334 57 -57.001s21.5 -48.834 21.5 -75.501c0 -28 -7.16699 -53.667 -21.5 -77s-33.333 -42 -57 -56s-48.834 -21 -75.501 -21c-28 0 -53.833 6.83301 -77.5 20.5s-42.5 32.334 -56.5 56.001s-21 49.5 -21 77.5c0 26.667 7 51.834 21 75.501
s32.833 42.667 56.5 57s49.5 21.5 77.5 21.5c26.667 0 51.834 -7.16699 75.501 -21.5zM950.003 1718.5c24 -14.333 43.168 -33.334 57.501 -57.001s21.5 -48.834 21.5 -75.501c0 -28 -7.16699 -53.667 -21.5 -77s-33.5 -42 -57.5 -56s-49.333 -21 -76 -21
c-28 0 -53.833 6.83301 -77.5 20.5s-42.334 32.334 -56.001 56.001s-20.5 49.5 -20.5 77.5c0 26.667 7 51.834 21 75.501s32.667 42.667 56 57s49 21.5 77 21.5c26.667 0 52 -7.16699 76 -21.5z" />
    <glyph glyph-name="Amacron" unicode="&#x100;" horiz-adv-x="1366" 
d="M1311.5 73.5c23 -20.333 45.834 -31.1709 68.501 -32.5039v-41c-81.333 4 -185 6 -311 6c-140 0 -244 -2 -312 -6v41c51.333 2 88.166 8.33301 110.499 19s33.5 29.334 33.5 56.001c0 24 -8 56.333 -24 97l-123 336h-445l-55 -142c-37.333 -96 -56 -171.667 -56 -227
c0 -50.667 15.167 -86.167 45.5 -106.5s75.833 -31.166 136.5 -32.499v-41c-93.333 4 -178.333 6 -255 6c-64 0 -116.333 -2 -157 -6v41c68.667 12.667 128 84.334 178 215.001l466 1198c22 -2 45.667 -3 71 -3s49 1 71 3l497 -1282
c17.333 -45.333 37.5 -78.166 60.5 -98.499zM536.001 1141l-212 -551h415zM270.001 1677v52h819v-52h-819z" />
    <glyph glyph-name="amacron" unicode="&#x101;" horiz-adv-x="1284" 
d="M1300 41l0.000976562 -41c-64 4 -153.667 6 -269 6c-146 0 -253.667 -2 -323 -6v41c45.333 2 78.833 8.83301 100.5 20.5s32.5 30.834 32.5 57.501c0 24 -9 55.333 -27 94l-102 233h-430l-24 -55c-38.667 -88 -58 -158.333 -58 -211c0 -47.333 15 -81.5 45 -102.5
s74.333 -33.167 133 -36.5v-41c-78 4 -156.333 6 -235 6c-72.667 0 -128 -2 -166 -6v41c34 6.66699 64.667 27.167 92 61.5s56.666 87.166 87.999 158.499l433 988c21.333 -1.33301 37 -2 47 -2c11.333 0 27 0.666992 47 2l487 -1077c39.333 -85.333 82.333 -129 129 -131z
M498.001 936l-198 -449h394zM223.001 1530v51h819v-51h-819z" />
    <glyph glyph-name="Abreve" unicode="&#x102;" horiz-adv-x="1366" 
d="M1311.5 73.5c23 -20.333 45.834 -31.1709 68.501 -32.5039v-41c-81.333 4 -185 6 -311 6c-140 0 -244 -2 -312 -6v41c51.333 2 88.166 8.33301 110.499 19s33.5 29.334 33.5 56.001c0 24 -8 56.333 -24 97l-123 336h-445l-55 -142c-37.333 -96 -56 -171.667 -56 -227
c0 -50.667 15.167 -86.167 45.5 -106.5s75.833 -31.166 136.5 -32.499v-41c-93.333 4 -178.333 6 -255 6c-64 0 -116.333 -2 -157 -6v41c68.667 12.667 128 84.334 178 215.001l466 1198c22 -2 45.667 -3 71 -3s49 1 71 3l497 -1282
c17.333 -45.333 37.5 -78.166 60.5 -98.499zM536.001 1141l-212 -551h415zM1031 1721.5c-40.667 -41.667 -91.8281 -76 -153.495 -103s-131.834 -40.5 -210.501 -40.5c-78 0 -147.833 13.5 -209.5 40.5s-112.834 61.333 -153.501 103s-71.667 85.5 -93 131.5l25 21
c45.333 -34 103.666 -63 174.999 -87s156.666 -36 255.999 -36c177.333 0 321.666 41.333 432.999 124l24 -22c-21.333 -46 -52.333 -89.833 -93 -131.5z" />
    <glyph glyph-name="abreve" unicode="&#x103;" horiz-adv-x="1284" 
d="M1300 41l0.000976562 -41c-64 4 -153.667 6 -269 6c-146 0 -253.667 -2 -323 -6v41c45.333 2 78.833 8.83301 100.5 20.5s32.5 30.834 32.5 57.501c0 24 -9 55.333 -27 94l-102 233h-430l-24 -55c-38.667 -88 -58 -158.333 -58 -211c0 -47.333 15 -81.5 45 -102.5
s74.333 -33.167 133 -36.5v-41c-78 4 -156.333 6 -235 6c-72.667 0 -128 -2 -166 -6v41c34 6.66699 64.667 27.167 92 61.5s56.666 87.166 87.999 158.499l433 988c21.333 -1.33301 37 -2 47 -2c11.333 0 27 0.666992 47 2l487 -1077c39.333 -85.333 82.333 -129 129 -131z
M498.001 936l-198 -449h394zM992.001 1543c-40 -41.333 -90.167 -75.5 -150.5 -102.5s-129.166 -40.5 -206.499 -40.5s-146.333 13.5 -207 40.5s-110.834 61.167 -150.501 102.5s-70.167 85 -91.5 131l26 22c44 -34 101 -63.167 171 -87.5s154 -36.5 252 -36.5
c97.333 0 181 12.167 251 36.5s127.667 53.833 173 88.5l24 -23c-20.667 -46 -51 -89.667 -91 -131z" />
    <glyph glyph-name="Aogonek" unicode="&#x104;" horiz-adv-x="1366" 
d="M1182.5 -86c-33.667 -34.667 -50.501 -69.0049 -50.501 -103.005c0 -55.333 28 -83 84 -83c23.333 0 47.333 5.33301 72 16s44.334 23.667 59.001 39l29 -29c-36.667 -48.667 -77.334 -84 -122.001 -106s-97.667 -33 -159 -33c-59.333 0 -105.166 12.333 -137.499 37
s-48.5 59 -48.5 103c0 55.333 31.167 104.333 93.5 147s150.5 76.667 264.5 102c-82.667 1.33301 -148.667 2 -198 2c-140 0 -244 -2 -312 -6v41c51.333 2 88.166 8.33301 110.499 19s33.5 29.334 33.5 56.001c0 24 -8 56.333 -24 97l-123 336h-445l-55 -142
c-37.333 -96 -56 -171.667 -56 -227c0 -50.667 15.167 -86.167 45.5 -106.5s75.833 -31.166 136.5 -32.499v-41c-92.667 4 -177.667 6 -255 6c-63.333 0 -115.666 -2 -156.999 -6v41c68.667 12.667 128 84.334 178 215.001l466 1198c22 -2 45.667 -3 71 -3s49 1 71 3
l497 -1282c17.333 -45.333 37.5 -78.166 60.5 -98.499s45.833 -31.166 68.5 -32.499v-41l-39 2c-72 -24 -124.833 -53.333 -158.5 -88zM535.999 1141l-212 -551h415z" />
    <glyph glyph-name="aogonek" unicode="&#x105;" horiz-adv-x="1284" 
d="M1054 -84.5c-34.667 -35 -51.998 -69.832 -51.998 -104.499c0 -55.333 28.333 -83 85 -83c22.667 0 46.5 5.33301 71.5 16s44.833 23.667 59.5 39l28 -29c-36.667 -48.667 -77.334 -84 -122.001 -106s-97.667 -33 -159 -33c-59.333 0 -105.166 12.333 -137.499 37
s-48.5 59 -48.5 103c0 56 31.833 105.5 95.5 148.5s153.5 76.833 269.5 101.5l-113 1c-146.667 0 -254.334 -2 -323.001 -6v41c45.333 2 78.833 8.83301 100.5 20.5s32.5 30.834 32.5 57.501c0 24 -9 55.333 -27 94l-102 233h-430l-24 -55
c-38.667 -88 -58 -158.333 -58 -211c0 -47.333 15 -81.5 45 -102.5s74.333 -33.167 133 -36.5v-41c-78 4 -156.333 6 -235 6c-72.667 0 -128 -2 -166 -6v41c34 6.66699 64.667 27.167 92 61.5s56.666 87.166 87.999 158.499l433 988c10 -1.33301 25.667 -2 47 -2
c20.667 0 36.334 0.666992 47.001 2l487 -1077c39.333 -85.333 82.333 -129 129 -131v-41c-76.667 3.33301 -104.334 4.66602 -83.001 3.99902c-74 -24 -128.333 -53.5 -163 -88.5zM498.002 936.001l-198 -449h394z" />
    <glyph glyph-name="Cacute" unicode="&#x106;" horiz-adv-x="1445" 
d="M1020 1444c57.333 -23.333 113.334 -56.002 168.001 -98.002c14.667 -12 28 -18 40 -18c27.333 0 45 40.667 53 122h47c-5.33301 -93.333 -8 -258.666 -8 -495.999h-48c-8 68.667 -17.167 124.334 -27.5 167.001s-25.333 80.5 -45 113.5s-46.834 63.167 -81.501 90.5
c-33.333 32.667 -72.5 57.667 -117.5 75s-92.167 26 -141.5 26c-93.333 0 -170.5 -32.333 -231.5 -97s-105.667 -150.167 -134 -256.5s-42.5 -223.5 -42.5 -351.5s14.833 -244.833 44.5 -350.5s75.667 -190.334 138 -254.001s140.166 -95.5 233.499 -95.5
c46.667 0 92.834 8.5 138.501 25.5s84.5 41.5 116.5 73.5c34.667 26.667 61.667 57.667 81 93s34 76.333 44 123s18.333 106.667 25 180h48c0 -247.333 2.66699 -419.333 8 -516h-47c-4 42.667 -9.83301 73.5 -17.5 92.5s-18.5 28.5 -32.5 28.5
c-11.333 0 -25.666 -5.66699 -42.999 -17c-40 -28.667 -77.167 -52.167 -111.5 -70.5s-73.5 -33.333 -117.5 -45s-93.667 -17.5 -149 -17.5c-144.667 0 -271.5 29.333 -380.5 88s-193.333 143.834 -253 255.501s-89.5 244.5 -89.5 398.5c0 150.667 30.667 284 92 400
s147 206 257 270s235.333 96 376 96c81.333 0 150.666 -11.667 207.999 -35zM1021 1928c21.333 0 41.167 -5.16699 59.5 -15.5s32.5 -24.833 42.5 -43.5c7.33301 -14 11 -29.667 11 -47c0 -20.667 -6 -40.334 -18 -59.001s-28.667 -34 -50 -46
c-20 -11.333 -40.667 -20.333 -62 -27s-53.666 -15.667 -96.999 -27c-102 -26 -191 -53.333 -267 -82l-15 25c67.333 54.667 135.333 119.334 204 194.001c30 32 53.5 55.833 70.5 71.5s36.167 29.167 57.5 40.5c19.333 10.667 40.666 16 63.999 16z" />
    <glyph glyph-name="cacute" unicode="&#x107;" horiz-adv-x="1346" 
d="M886.5 1256.5c41 -11.667 76.002 -26.6689 105.002 -45.002s60.5 -41.833 94.5 -70.5c15.333 -13.333 28.666 -20 39.999 -20c28 0 45.333 41.333 52 124h47c-5.33301 -82 -8 -225.333 -8 -430h-47c-14.667 74.667 -28.667 128.834 -42 162.501
s-33.666 66.834 -60.999 99.501c-38 45.333 -81 80.666 -129 105.999s-98.333 38 -151 38c-75.333 0 -141 -24.167 -197 -72.5s-99.333 -117.833 -130 -208.5s-46 -198 -46 -322c0 -124.667 17 -231.667 51 -321s80.167 -157 138.5 -203s124.166 -69 197.499 -69
c54 0 106.667 12.5 158 37.5s95 60.167 131 105.5c26.667 34 46.334 70.667 59.001 110s24.334 97 35.001 173h47c0 -215.333 2.66699 -365.666 8 -450.999h-47c-6.66699 82.667 -23.667 124 -51 124c-10.667 0 -24.334 -6.66699 -41.001 -20
c-50.667 -42 -103.334 -74.667 -158.001 -98s-120 -35 -196 -35c-129.333 0 -243.833 25.167 -343.5 75.5s-177.334 123.666 -233.001 219.999s-83.5 210.833 -83.5 343.5c0 130 28.667 245.333 86 346s135.833 178.834 235.5 234.501s211.5 83.5 335.5 83.5
c54.667 0 102.5 -5.83301 143.5 -17.5zM935.002 1760c22 0 42 -5.16699 60 -15.5s32 -24.833 42 -43.5c8 -16 12 -32 12 -48c0 -20.667 -6 -40.167 -18 -58.5s-28.667 -33.5 -50 -45.5c-20 -11.333 -40.667 -20.333 -62 -27s-53.666 -15.667 -96.999 -27
c-104.667 -26.667 -194 -54 -268 -82l-14 26c67.333 54.667 135 119 203 193c30 32 53.667 55.833 71 71.5s36.666 29.167 57.999 40.5c19.333 10.667 40.333 16 63 16z" />
    <glyph glyph-name="Ccircumflex" unicode="&#x108;" horiz-adv-x="1445" 
d="M1020 1444c57.333 -23.333 113.334 -56.002 168.001 -98.002c14.667 -12 28 -18 40 -18c27.333 0 45 40.667 53 122h47c-5.33301 -93.333 -8 -258.666 -8 -495.999h-48c-8 68.667 -17.167 124.334 -27.5 167.001s-25.333 80.5 -45 113.5s-46.834 63.167 -81.501 90.5
c-33.333 32.667 -72.5 57.667 -117.5 75s-92.167 26 -141.5 26c-93.333 0 -170.5 -32.333 -231.5 -97s-105.667 -150.167 -134 -256.5s-42.5 -223.5 -42.5 -351.5s14.833 -244.833 44.5 -350.5s75.667 -190.334 138 -254.001s140.166 -95.5 233.499 -95.5
c46.667 0 92.834 8.5 138.501 25.5s84.5 41.5 116.5 73.5c34.667 26.667 61.667 57.667 81 93s34 76.333 44 123s18.333 106.667 25 180h48c0 -247.333 2.66699 -419.333 8 -516h-47c-4 42.667 -9.83301 73.5 -17.5 92.5s-18.5 28.5 -32.5 28.5
c-11.333 0 -25.666 -5.66699 -42.999 -17c-40 -28.667 -77.167 -52.167 -111.5 -70.5s-73.5 -33.333 -117.5 -45s-93.667 -17.5 -149 -17.5c-144.667 0 -271.5 29.333 -380.5 88s-193.333 143.834 -253 255.501s-89.5 244.5 -89.5 398.5c0 150.667 30.667 284 92 400
s147 206 257 270s235.333 96 376 96c81.333 0 150.666 -11.667 207.999 -35zM970.001 1748c74.667 -57.333 156.002 -104.666 244.002 -141.999l-10 -30c-88 15.333 -175.333 35.166 -262 59.499s-155.667 48.5 -207 72.5c-42.667 -24 -99.834 -48.167 -171.501 -72.5
s-143.5 -44.166 -215.5 -59.499l-10 30c87.333 36.667 168.166 83.667 242.499 141s133.5 116.666 177.5 177.999h37c42 -60.667 100.333 -119.667 175 -177z" />
    <glyph glyph-name="ccircumflex" unicode="&#x109;" horiz-adv-x="1346" 
d="M886.5 1256.5c41 -11.667 76.002 -26.6689 105.002 -45.002s60.5 -41.833 94.5 -70.5c15.333 -13.333 28.666 -20 39.999 -20c28 0 45.333 41.333 52 124h47c-5.33301 -82 -8 -225.333 -8 -430h-47c-14.667 74.667 -28.667 128.834 -42 162.501
s-33.666 66.834 -60.999 99.501c-38 45.333 -81 80.666 -129 105.999s-98.333 38 -151 38c-75.333 0 -141 -24.167 -197 -72.5s-99.333 -117.833 -130 -208.5s-46 -198 -46 -322c0 -124.667 17 -231.667 51 -321s80.167 -157 138.5 -203s124.166 -69 197.499 -69
c54 0 106.667 12.5 158 37.5s95 60.167 131 105.5c26.667 34 46.334 70.667 59.001 110s24.334 97 35.001 173h47c0 -215.333 2.66699 -365.666 8 -450.999h-47c-6.66699 82.667 -23.667 124 -51 124c-10.667 0 -24.334 -6.66699 -41.001 -20
c-50.667 -42 -103.334 -74.667 -158.001 -98s-120 -35 -196 -35c-129.333 0 -243.833 25.167 -343.5 75.5s-177.334 123.666 -233.001 219.999s-83.5 210.833 -83.5 343.5c0 130 28.667 245.333 86 346s135.833 178.834 235.5 234.501s211.5 83.5 335.5 83.5
c54.667 0 102.5 -5.83301 143.5 -17.5zM914.002 1572c73.333 -57.333 153.001 -104.667 239.001 -142l-10 -30c-88 15.333 -174.333 35.166 -259 59.499s-152 48.5 -202 72.5c-41.333 -24 -96.833 -48.167 -166.5 -72.5s-140.5 -44.166 -212.5 -59.499l-10 30
c85.333 36 164.5 82.833 237.5 140.5s131.167 117.167 174.5 178.5h37c41.333 -60.667 98.666 -119.667 171.999 -177z" />
    <glyph glyph-name="Cdotaccent" unicode="&#x10a;" horiz-adv-x="1445" 
d="M1020 1444c57.333 -23.333 113.334 -56.002 168.001 -98.002c14.667 -12 28 -18 40 -18c27.333 0 45 40.667 53 122h47c-5.33301 -93.333 -8 -258.666 -8 -495.999h-48c-8 68.667 -17.167 124.334 -27.5 167.001s-25.333 80.5 -45 113.5s-46.834 63.167 -81.501 90.5
c-33.333 32.667 -72.5 57.667 -117.5 75s-92.167 26 -141.5 26c-93.333 0 -170.5 -32.333 -231.5 -97s-105.667 -150.167 -134 -256.5s-42.5 -223.5 -42.5 -351.5s14.833 -244.833 44.5 -350.5s75.667 -190.334 138 -254.001s140.166 -95.5 233.499 -95.5
c46.667 0 92.834 8.5 138.501 25.5s84.5 41.5 116.5 73.5c34.667 26.667 61.667 57.667 81 93s34 76.333 44 123s18.333 106.667 25 180h48c0 -247.333 2.66699 -419.333 8 -516h-47c-4 42.667 -9.83301 73.5 -17.5 92.5s-18.5 28.5 -32.5 28.5
c-11.333 0 -25.666 -5.66699 -42.999 -17c-40 -28.667 -77.167 -52.167 -111.5 -70.5s-73.5 -33.333 -117.5 -45s-93.667 -17.5 -149 -17.5c-144.667 0 -271.5 29.333 -380.5 88s-193.333 143.834 -253 255.501s-89.5 244.5 -89.5 398.5c0 150.667 30.667 284 92 400
s147 206 257 270s235.333 96 376 96c81.333 0 150.666 -11.667 207.999 -35zM914.001 1840.5c31.333 -28.333 47 -67.166 47 -116.499c0 -48.667 -15.667 -87.167 -47 -115.5s-73.666 -42.5 -126.999 -42.5s-95.666 14.167 -126.999 42.5s-47 66.833 -47 115.5
c0 49.333 15.667 88.166 47 116.499s73.666 42.5 126.999 42.5s95.666 -14.167 126.999 -42.5z" />
    <glyph glyph-name="cdotaccent" unicode="&#x10b;" horiz-adv-x="1346" 
d="M886.5 1256.5c41 -11.667 76.002 -26.6689 105.002 -45.002s60.5 -41.833 94.5 -70.5c15.333 -13.333 28.666 -20 39.999 -20c28 0 45.333 41.333 52 124h47c-5.33301 -82 -8 -225.333 -8 -430h-47c-14.667 74.667 -28.667 128.834 -42 162.501
s-33.666 66.834 -60.999 99.501c-38 45.333 -81 80.666 -129 105.999s-98.333 38 -151 38c-75.333 0 -141 -24.167 -197 -72.5s-99.333 -117.833 -130 -208.5s-46 -198 -46 -322c0 -124.667 17 -231.667 51 -321s80.167 -157 138.5 -203s124.166 -69 197.499 -69
c54 0 106.667 12.5 158 37.5s95 60.167 131 105.5c26.667 34 46.334 70.667 59.001 110s24.334 97 35.001 173h47c0 -215.333 2.66699 -365.666 8 -450.999h-47c-6.66699 82.667 -23.667 124 -51 124c-10.667 0 -24.334 -6.66699 -41.001 -20
c-50.667 -42 -103.334 -74.667 -158.001 -98s-120 -35 -196 -35c-129.333 0 -243.833 25.167 -343.5 75.5s-177.334 123.666 -233.001 219.999s-83.5 210.833 -83.5 343.5c0 130 28.667 245.333 86 346s135.833 178.834 235.5 234.501s211.5 83.5 335.5 83.5
c54.667 0 102.5 -5.83301 143.5 -17.5zM844.002 1702c31.333 -28 47 -66.667 47 -116s-15.667 -88 -47 -116s-73.666 -42 -126.999 -42c-54 0 -96.5 14 -127.5 42s-46.5 66.667 -46.5 116s15.5 88 46.5 116s73.5 42 127.5 42c53.333 0 95.666 -14 126.999 -42z" />
    <glyph glyph-name="Ccaron" unicode="&#x10c;" horiz-adv-x="1445" 
d="M1020 1444c57.333 -23.333 113.334 -56.002 168.001 -98.002c14.667 -12 28 -18 40 -18c27.333 0 45 40.667 53 122h47c-5.33301 -93.333 -8 -258.666 -8 -495.999h-48c-8 68.667 -17.167 124.334 -27.5 167.001s-25.333 80.5 -45 113.5s-46.834 63.167 -81.501 90.5
c-33.333 32.667 -72.5 57.667 -117.5 75s-92.167 26 -141.5 26c-93.333 0 -170.5 -32.333 -231.5 -97s-105.667 -150.167 -134 -256.5s-42.5 -223.5 -42.5 -351.5s14.833 -244.833 44.5 -350.5s75.667 -190.334 138 -254.001s140.166 -95.5 233.499 -95.5
c46.667 0 92.834 8.5 138.501 25.5s84.5 41.5 116.5 73.5c34.667 26.667 61.667 57.667 81 93s34 76.333 44 123s18.333 106.667 25 180h48c0 -247.333 2.66699 -419.333 8 -516h-47c-4 42.667 -9.83301 73.5 -17.5 92.5s-18.5 28.5 -32.5 28.5
c-11.333 0 -25.666 -5.66699 -42.999 -17c-40 -28.667 -77.167 -52.167 -111.5 -70.5s-73.5 -33.333 -117.5 -45s-93.667 -17.5 -149 -17.5c-144.667 0 -271.5 29.333 -380.5 88s-193.333 143.834 -253 255.501s-89.5 244.5 -89.5 398.5c0 150.667 30.667 284 92 400
s147 206 257 270s235.333 96 376 96c81.333 0 150.666 -11.667 207.999 -35zM965.501 1750c-74.333 -57.333 -133.168 -116.666 -176.501 -177.999h-37c-42 60.667 -100.5 119.667 -175.5 177s-156.5 104.666 -244.5 141.999l10 30
c88.667 -15.333 176.167 -35.166 262.5 -59.499s155.166 -48.5 206.499 -72.5c42.667 24 99.834 48.167 171.501 72.5s143.5 44.166 215.5 59.499l10 -30c-87.333 -36.667 -168.166 -83.667 -242.499 -141z" />
    <glyph glyph-name="ccaron" unicode="&#x10d;" horiz-adv-x="1346" 
d="M886.5 1256.5c41 -11.667 76.002 -26.6689 105.002 -45.002s60.5 -41.833 94.5 -70.5c15.333 -13.333 28.666 -20 39.999 -20c28 0 45.333 41.333 52 124h47c-5.33301 -82 -8 -225.333 -8 -430h-47c-14.667 74.667 -28.667 128.834 -42 162.501
s-33.666 66.834 -60.999 99.501c-38 45.333 -81 80.666 -129 105.999s-98.333 38 -151 38c-75.333 0 -141 -24.167 -197 -72.5s-99.333 -117.833 -130 -208.5s-46 -198 -46 -322c0 -124.667 17 -231.667 51 -321s80.167 -157 138.5 -203s124.166 -69 197.499 -69
c54 0 106.667 12.5 158 37.5s95 60.167 131 105.5c26.667 34 46.334 70.667 59.001 110s24.334 97 35.001 173h47c0 -215.333 2.66699 -365.666 8 -450.999h-47c-6.66699 82.667 -23.667 124 -51 124c-10.667 0 -24.334 -6.66699 -41.001 -20
c-50.667 -42 -103.334 -74.667 -158.001 -98s-120 -35 -196 -35c-129.333 0 -243.833 25.167 -343.5 75.5s-177.334 123.666 -233.001 219.999s-83.5 210.833 -83.5 343.5c0 130 28.667 245.333 86 346s135.833 178.834 235.5 234.501s211.5 83.5 335.5 83.5
c54.667 0 102.5 -5.83301 143.5 -17.5zM911.502 1562c-73 -57.333 -130.833 -117.001 -173.5 -179.001h-37c-42 60.667 -99.667 119.834 -173 177.501s-153 105.167 -239 142.5l10 30c88.667 -16 175.167 -36.167 259.5 -60.5s151.5 -48.5 201.5 -72.5
c42 24 97.667 48.167 167 72.5s140 44.5 212 60.5l10 -30c-85.333 -36.667 -164.5 -83.667 -237.5 -141z" />
    <glyph glyph-name="Dcaron" unicode="&#x10e;" horiz-adv-x="1589" 
d="M1298.5 1269c132.333 -120.667 198.5 -296.664 198.5 -527.997c0 -148.667 -32.333 -278.834 -97 -390.501s-158.167 -198 -280.5 -259s-268.166 -91.5 -437.499 -91.5c-33.333 0 -74.666 1 -123.999 3c-120 2 -178.333 3 -175 3c-140.667 0 -245.667 -2 -315 -6v41
c46 2 79.167 7.33301 99.5 16s34.333 24.667 42 48s11.5 60.666 11.5 111.999v1016c0 51.333 -3.83301 88.666 -11.5 111.999s-21.834 39.333 -42.501 48s-53.667 14 -99 16v41c87.333 -4.66699 169.666 -7 246.999 -7l64 1l88 2c110.667 2.66699 188.667 4 234 4
c266 0 465.167 -60.333 597.5 -181zM603 1398.5c-21.333 -9.66699 -36.001 -26.833 -44.001 -51.5s-12 -61.334 -12 -110.001v-1024c0 -49.333 4 -86.166 12 -110.499s22.833 -41.333 44.5 -51s54.167 -14.5 97.5 -14.5c112.667 0 202.5 26.5 269.5 79.5
s114.833 130.333 143.5 232s43 229.834 43 384.501c0 156 -15.333 283.667 -46 383s-79.667 173.666 -147 222.999s-155.666 74 -264.999 74c-42.667 0 -74.667 -4.83301 -96 -14.5zM891.499 1750c-74.333 -57.333 -133.168 -116.666 -176.501 -177.999h-37
c-42 60.667 -100.5 119.667 -175.5 177s-156.5 104.666 -244.5 141.999l10 30c88.667 -15.333 176.167 -35.166 262.5 -59.499s155.166 -48.5 206.499 -72.5c42.667 24 99.834 48.167 171.501 72.5s143.5 44.166 215.5 59.499l10 -30
c-87.333 -36.667 -168.166 -83.667 -242.499 -141z" />
    <glyph glyph-name="dcaron" unicode="&#x10f;" horiz-adv-x="1496" 
d="M1225.5 1091c119 -102.667 178.499 -253.331 178.499 -451.998c0 -128.667 -28.833 -241 -86.5 -337s-141.667 -170.333 -252 -223s-241.833 -79 -394.5 -79c-36 0 -80.667 1 -134 3c-128 2 -191 3 -189 3c-124 0 -217 -2 -279 -6v41c46 2 79.333 7.33301 100 16
s34.834 24.667 42.501 48s11.5 60.666 11.5 111.999v811c0 52 -3.83301 89.667 -11.5 113s-21.834 39.166 -42.501 47.499s-54 13.5 -100 15.5v41c79.333 -4.66699 152 -7 218 -7l56 1l96 2c118.667 2.66699 202.334 4 251.001 4c238 0 416.5 -51.333 535.5 -154z
M582.499 1193.5c-17.667 -9.66699 -29.833 -26.6689 -36.5 -51.002s-10 -61.166 -10 -110.499v-819c0 -49.333 3.33301 -86.166 10 -110.499s19 -41.333 37 -51s45.333 -14.5 82 -14.5c105.333 0 188 22.333 248 67s102.333 110 127 196s37 196.333 37 331
c0 132.667 -13.333 241 -40 325s-70.167 147 -130.5 189s-141.5 63 -243.5 63c-36 0 -62.833 -4.83301 -80.5 -14.5zM881.5 1562c-73 -57.333 -130.833 -117.001 -173.5 -179.001h-37c-42 60.667 -99.667 119.834 -173 177.501s-153 105.167 -239 142.5l10 30
c88.667 -16 175.167 -36.167 259.5 -60.5s151.5 -48.5 201.5 -72.5c42 24 97.667 48.167 167 72.5s140 44.5 212 60.5l10 -30c-85.333 -36.667 -164.5 -83.667 -237.5 -141z" />
    <glyph glyph-name="Dcroat" unicode="&#x110;" horiz-adv-x="1590" 
d="M1299.5 1269c132.333 -120.667 198.5 -296.664 198.5 -527.997c0 -148.667 -32.333 -278.834 -97 -390.501s-158.167 -198 -280.5 -259s-268.166 -91.5 -437.499 -91.5c-33.333 0 -74.666 1 -123.999 3c-120 2 -178.333 3 -175 3c-140.667 0 -245.667 -2 -315 -6v41
c46 2 79.167 7.33301 99.5 16s34.333 24.667 42 48s11.5 60.666 11.5 111.999v492h-153v41h153v483c0 51.333 -3.83301 88.666 -11.5 111.999s-21.834 39.333 -42.501 48s-53.667 14 -99 16v41c87.333 -4.66699 169.666 -7 246.999 -7l64 1l88 2
c110.667 2.66699 188.667 4 234 4c266 0 465.167 -60.333 597.5 -181zM971.5 116.503c67 53 114.832 130.334 143.499 232.001s43 229.834 43 384.501c0 156 -15.333 283.667 -46 383s-79.667 173.666 -147 222.999s-155.666 74 -264.999 74
c-42.667 0 -74.667 -4.83301 -96 -14.5s-36 -26.834 -44 -51.501s-12 -61.334 -12 -110.001v-487h254v-41h-254v-496c0 -49.333 4 -86.166 12 -110.499s22.833 -41.333 44.5 -51s54.167 -14.5 97.5 -14.5c112.667 0 202.5 26.5 269.5 79.5z" />
    <glyph glyph-name="dcroat" unicode="&#x111;" horiz-adv-x="1497" 
d="M1226.5 1091c119 -102.667 178.499 -253.331 178.499 -451.998c0 -128.667 -28.833 -241 -86.5 -337s-141.667 -170.333 -252 -223s-241.833 -79 -394.5 -79c-36 0 -80.667 1 -134 3c-128 2 -191 3 -189 3c-124 0 -217 -2 -279 -6v41c46 2 79.333 7.33301 100 16
s34.834 24.667 42.501 48s11.5 60.666 11.5 111.999v389h-154v41h154v381c0 52 -3.83301 89.667 -11.5 113s-21.834 39.166 -42.501 47.499s-54 13.5 -100 15.5v41c79.333 -4.66699 152 -7 218 -7l56 1l96 2c118.667 2.66699 202.334 4 251.001 4
c238 0 416.5 -51.333 535.5 -154zM913.999 104.003c60 44.667 102.334 109.998 127.001 195.998s37 196.333 37 331c0 132.667 -13.333 241 -40 325s-70.167 147 -130.5 189s-141.5 63 -243.5 63c-36 0 -62.833 -4.83301 -80.5 -14.5s-29.834 -26.667 -36.501 -51
s-10 -61.166 -10 -110.499v-385h265v-41h-265v-393c0 -49.333 3.33301 -86.166 10 -110.499s19 -41.333 37 -51s45.333 -14.5 82 -14.5c105.333 0 188 22.333 248 67z" />
    <glyph glyph-name="Emacron" unicode="&#x112;" horiz-adv-x="1298" 
d="M1204 0c-92.667 4 -248.999 5.99902 -468.999 5.99902c-296 0 -518.333 -2 -667 -6v41c46 2 79.167 7.33301 99.5 16s34.333 24.667 42 48s11.5 60.666 11.5 111.999v1016c0 51.333 -3.83301 88.666 -11.5 111.999s-21.834 39.333 -42.501 48s-53.667 14 -99 16v41
c148.667 -4 371 -6 667 -6c201.333 0 344 2 428 6c-9.33301 -112.667 -14 -213.667 -14 -303c0 -59.333 2 -105.666 6 -138.999h-47c-13.333 98.667 -34.333 176.834 -63 234.501s-65.167 98.834 -109.5 123.501s-98.833 37 -163.5 37h-84c-42 0 -72.5 -3.33301 -91.5 -10
s-32 -20 -39 -40s-10.5 -52 -10.5 -96v-507h66c73.333 0 128.666 26.667 165.999 80s63.333 116.666 78 189.999h47c-4.66699 -67.333 -7 -131.666 -7 -192.999l1 -98c0 -69.333 4 -166.333 12 -291h-47c-26.667 180.667 -110 271 -250 271h-66v-516c0 -44 3.5 -76 10.5 -96
s20 -33.333 39 -40s49.5 -10 91.5 -10h101c64 0 119.5 13.833 166.5 41.5s86.833 73.5 119.5 137.5s57.334 149.667 74.001 257h47c-4 -44 -6 -101.333 -6 -172c0 -111.333 4.66699 -215 14 -311zM234.001 1677v52h819v-52h-819z" />
    <glyph glyph-name="emacron" unicode="&#x113;" horiz-adv-x="1248" 
d="M1152 0c-88.667 4 -238.003 6.00293 -448.003 6.00293c-281.333 0 -493 -2 -635 -6v41c46 2 79.333 7.33301 100 16s34.834 24.667 42.501 48s11.5 60.666 11.5 111.999v811c0 51.333 -3.83301 88.666 -11.5 111.999s-21.834 39.333 -42.501 48s-54 14 -100 16v41
c142 -4 353.667 -6 635 -6c191.333 0 327 2 407 6c-9.33301 -91.333 -14 -173.333 -14 -246c0 -53.333 2 -95.666 6 -126.999h-47c-14 80 -34.667 143.833 -62 191.5s-61.666 82 -102.999 103s-91.333 31.5 -150 31.5h-76c-35.333 0 -61.833 -3.16699 -79.5 -9.5
s-30.334 -18.833 -38.001 -37.5s-11.5 -47.334 -11.5 -86.001v-418h96c64 0 111.833 22.167 143.5 66.5s52.834 95.833 63.501 154.5h47c-4.66699 -53.333 -7 -106.333 -7 -159l1 -82c0 -61.333 4 -142 12 -242h-47c-9.33301 64.667 -30.833 117.667 -64.5 159
s-83.167 62 -148.5 62h-96v-426c0 -38.667 3.83301 -67.334 11.5 -86.001s20.334 -31.167 38.001 -37.5s44.167 -9.5 79.5 -9.5h88c64.667 0 119.667 11.833 165 35.5s82.833 62.334 112.5 116.001s51.834 125.5 66.501 215.5h47c-4 -38 -6 -87.333 -6 -148
c0 -78.667 4.66699 -167.334 14 -266.001zM206.997 1530v51h819v-51h-819z" />
    <glyph glyph-name="Ebreve" unicode="&#x114;" horiz-adv-x="1298" 
d="M1204 0c-92.667 4 -248.999 5.99902 -468.999 5.99902c-296 0 -518.333 -2 -667 -6v41c46 2 79.167 7.33301 99.5 16s34.333 24.667 42 48s11.5 60.666 11.5 111.999v1016c0 51.333 -3.83301 88.666 -11.5 111.999s-21.834 39.333 -42.501 48s-53.667 14 -99 16v41
c148.667 -4 371 -6 667 -6c201.333 0 344 2 428 6c-9.33301 -112.667 -14 -213.667 -14 -303c0 -59.333 2 -105.666 6 -138.999h-47c-13.333 98.667 -34.333 176.834 -63 234.501s-65.167 98.834 -109.5 123.501s-98.833 37 -163.5 37h-84c-42 0 -72.5 -3.33301 -91.5 -10
s-32 -20 -39 -40s-10.5 -52 -10.5 -96v-507h66c73.333 0 128.666 26.667 165.999 80s63.333 116.666 78 189.999h47c-4.66699 -67.333 -7 -131.666 -7 -192.999l1 -98c0 -69.333 4 -166.333 12 -291h-47c-26.667 180.667 -110 271 -250 271h-66v-516c0 -44 3.5 -76 10.5 -96
s20 -33.333 39 -40s49.5 -10 91.5 -10h101c64 0 119.5 13.833 166.5 41.5s86.833 73.5 119.5 137.5s57.334 149.667 74.001 257h47c-4 -44 -6 -101.333 -6 -172c0 -111.333 4.66699 -215 14 -311zM995.001 1721.5c-40.667 -41.667 -91.8281 -76 -153.495 -103
s-131.834 -40.5 -210.501 -40.5c-78 0 -147.833 13.5 -209.5 40.5s-112.834 61.333 -153.501 103s-71.667 85.5 -93 131.5l25 21c45.333 -34 103.666 -63 174.999 -87s156.666 -36 255.999 -36c177.333 0 321.666 41.333 432.999 124l24 -22
c-21.333 -46 -52.333 -89.833 -93 -131.5z" />
    </font>
</defs>
</svg>
