<svg xmlns="http://www.w3.org/2000/svg" width="2383" height="376" viewBox="0 0 2383 376">
  <g fill="#1E1E26">
    <path d="M78.861,178.782 C78.861,188.616 79.364,198.584 80.38,208.675 C81.386,218.766 83.788,227.789 87.566,235.734 C91.354,243.68 96.836,250.177 104.032,255.218 C111.218,260.268 121.124,262.783 133.74,262.783 C142.815,262.783 150.822,261.212 157.771,258.061 C164.7,254.909 170.757,250.68 175.93,245.383 C181.094,240.086 185.518,233.967 189.173,227.029 C192.827,220.09 196.05,212.832 198.822,205.266 L202.61,205.646 C199.079,215.737 195.23,225.078 191.072,233.65 C186.905,242.232 181.423,249.674 174.606,255.977 C167.79,262.28 159.342,267.207 149.251,270.738 C139.16,274.259 126.668,276.035 111.793,276.035 C104.977,276.035 98.92,275.902 93.623,275.655 C88.326,275.399 82.968,274.577 77.538,273.192 C72.118,271.806 66.379,269.732 60.323,266.95 C54.266,264.179 47.204,260.134 39.135,254.837 C28.541,248.277 19.518,238.063 12.075,224.185 C4.633,210.316 0.906,193.533 0.906,173.854 C0.906,158.476 2.99,145.224 7.158,134.126 C11.315,123.029 16.807,113.688 23.613,106.122 C30.429,98.546 37.995,92.5 46.32,87.953 C54.645,83.415 63.032,79.946 71.491,77.544 C79.939,75.152 87.885,73.571 95.327,72.822 C102.769,72.062 109.011,71.682 114.061,71.682 C124.655,71.682 135.628,72.699 146.982,74.71 C158.336,76.732 168.611,80.264 177.819,85.304 C187.027,90.354 194.592,97.222 200.526,105.927 C206.449,114.632 209.426,125.801 209.426,139.423 C209.426,147.502 207.086,153.805 202.425,158.342 C197.744,162.879 191.944,166.287 185.015,168.556 C178.076,170.825 170.572,172.221 162.493,172.723 C154.424,173.226 146.848,173.483 139.796,173.483 L78.861,173.483 L78.861,178.782 Z M106.115,75.472 C99.802,75.729 94.885,78.243 91.353,83.037 C87.811,87.831 85.112,93.888 83.213,101.197 C81.324,108.527 80.123,116.523 79.62,125.228 C79.117,133.933 78.861,142.197 78.861,150.019 L78.861,170.077 L112.162,170.077 C113.425,170.077 116.012,169.831 119.922,169.318 C123.833,168.815 127.17,167.306 129.951,164.78 C131.471,163.261 132.661,161.31 133.544,158.908 C134.427,156.516 135.063,154.124 135.443,151.722 C135.813,149.33 136.069,147.175 136.193,145.286 C136.316,143.397 136.388,142.073 136.388,141.313 C136.388,127.691 135.567,116.594 133.924,108.012 C132.282,99.44 130.075,92.747 127.303,87.953 C124.521,83.169 121.442,79.884 118.033,78.119 C114.624,76.354 111.155,75.471 107.624,75.471 L106.115,75.471 L106.115,75.472 Z"/>
    <path d="M331.943,64.498 C328.669,64.498 324.121,64.303 318.321,63.923 C312.521,63.553 306.844,62.352 301.291,60.33 C295.748,58.318 290.892,55.228 286.725,51.06 C282.567,46.903 280.483,41.031 280.483,33.465 C280.483,29.677 281.489,26.218 283.511,23.056 C285.523,19.905 286.539,16.815 286.539,13.786 C286.539,12.267 285.718,11.076 284.076,10.193 C282.433,9.31 280.349,8.869 277.834,8.869 L275.945,8.869 C270.895,8.869 267.24,10.44 264.961,13.591 C262.692,16.753 261.563,20.725 261.563,25.519 C261.563,34.594 263.195,42.354 266.48,48.79 C269.755,55.227 274.241,60.585 279.918,64.876 C285.595,69.167 292.216,72.318 299.782,74.331 C307.347,76.353 315.55,77.359 324.378,77.359 L324.378,80.387 L291.077,80.387 L291.077,269.98 L319.461,269.98 L319.461,273.008 L193.063,273.008 L193.063,269.98 L221.826,269.98 L221.826,80.389 L193.063,80.389 L193.063,77.36 L221.826,77.36 C221.826,61.972 223.838,49.551 227.883,40.087 C231.917,30.623 237.215,23.314 243.774,18.14 C250.333,12.966 257.714,9.496 265.916,7.731 C274.108,5.965 282.372,5.083 290.697,5.083 C308.866,5.083 323.433,10.072 334.407,20.029 C345.381,29.997 350.872,44.82 350.872,64.499 L331.943,64.499 L331.943,64.498 Z"/>
    <path d="M467.271,64.498 C463.986,64.498 459.449,64.303 453.649,63.923 C447.839,63.553 442.162,62.352 436.619,60.33 C431.066,58.318 426.21,55.228 422.053,51.06 C417.886,46.903 415.802,41.031 415.802,33.465 C415.802,29.677 416.808,26.218 418.83,23.056 C420.852,19.905 421.858,16.815 421.858,13.786 C421.858,12.267 421.037,11.076 419.404,10.193 C417.751,9.31 415.677,8.869 413.153,8.869 L411.264,8.869 C406.214,8.869 402.559,10.44 400.29,13.591 C398.021,16.753 396.882,20.725 396.882,25.519 C396.882,34.594 398.524,42.354 401.799,48.79 C405.084,55.227 409.56,60.585 415.236,64.876 C420.913,69.167 427.534,72.318 435.1,74.331 C442.676,76.353 450.868,77.359 459.706,77.359 L459.706,80.387 L426.405,80.387 L426.405,269.98 L454.779,269.98 L454.779,273.008 L317.879,273.008 L317.879,269.98 L357.144,269.98 L357.144,80.389 L323.135,80.389 L323.135,77.36 L357.144,77.36 C357.144,61.972 359.166,49.551 363.201,40.087 C367.235,30.623 372.532,23.314 379.102,18.14 C385.651,12.966 393.032,9.496 401.234,7.731 C409.426,5.965 417.7,5.083 426.025,5.083 C444.185,5.083 458.751,10.072 469.735,20.029 C480.709,29.997 486.191,44.82 486.191,64.499 L467.271,64.499 L467.271,64.498 Z"/>
    <path d="M628.93,92.872 C639.524,99.688 648.537,109.974 655.99,123.719 C663.422,137.475 667.148,154.177 667.148,173.856 C667.148,193.535 663.422,210.318 655.99,224.187 C648.537,238.065 639.524,248.28 628.93,254.839 C620.851,260.136 613.984,264.18 608.307,266.952 C602.63,269.734 597.333,271.807 592.406,273.194 C587.489,274.58 582.572,275.401 577.655,275.657 C572.727,275.904 566.866,276.037 560.06,276.037 L556.272,276.037 C549.456,276.037 543.461,275.904 538.297,275.657 C533.123,275.401 527.888,274.579 522.591,273.194 C517.294,271.808 511.679,269.734 505.756,266.952 C499.823,264.181 492.822,260.136 484.753,254.839 C474.149,248.279 465.126,238.065 457.694,224.187 C450.252,210.318 446.525,193.535 446.525,173.856 C446.525,154.177 450.252,137.475 457.694,123.719 C465.126,109.974 474.149,99.688 484.753,92.872 C492.822,87.575 499.751,83.551 505.561,80.769 C511.361,77.998 516.729,75.914 521.647,74.528 C526.564,73.142 531.481,72.321 536.408,72.064 C541.325,71.818 547.187,71.684 554.003,71.684 L560.06,71.684 C566.866,71.684 572.727,71.818 577.655,72.064 C582.572,72.321 587.489,73.142 592.406,74.528 C597.334,75.914 602.631,77.998 608.307,80.769 C613.984,83.551 620.851,87.575 628.93,92.872 Z M578.219,261.655 C580.488,258.38 582.377,253.771 583.896,247.838 C585.405,241.915 586.606,235.109 587.489,227.409 C588.372,219.71 588.937,211.324 589.193,202.239 C589.44,193.155 589.573,183.7 589.573,173.856 C589.573,164.022 589.378,154.557 589.009,145.482 C588.629,136.397 587.992,128.01 587.11,120.312 C586.227,112.623 584.903,105.879 583.137,100.068 C581.371,94.268 579.103,89.854 576.331,86.826 C570.777,80.769 566.548,77.238 563.653,76.222 C560.748,75.226 558.541,74.713 557.032,74.713 C555.512,74.713 553.244,75.227 550.216,76.222 C547.188,77.238 543.03,80.769 537.733,86.826 C534.951,89.854 532.683,94.268 530.917,100.068 C529.151,105.879 527.755,112.623 526.749,120.312 C525.743,128.011 525.107,136.397 524.86,145.482 C524.603,154.557 524.48,164.022 524.48,173.856 C524.48,183.7 524.603,193.155 524.86,202.239 C525.107,211.324 525.743,219.711 526.749,227.409 C527.755,235.108 529.151,241.852 530.917,247.653 C532.683,253.453 534.951,258 537.733,261.275 C541.254,265.063 544.858,267.958 548.512,269.98 C552.166,272.002 555.01,273.008 557.033,273.008 L560.061,273.008 C566.866,273.008 572.922,269.221 578.219,261.655 Z"/>
    <path d="M790.969,81.898 C794.244,81.898 798.278,82.35 803.072,83.222 C807.866,84.115 812.403,85.942 816.694,88.714 C820.985,91.496 824.639,95.53 827.668,100.827 C830.697,106.124 832.216,113.063 832.216,121.635 C832.216,129.2 831.015,135.77 828.623,141.314 C826.221,146.867 823.193,151.477 819.539,155.131 C815.874,158.786 811.84,161.506 807.426,163.261 C803.012,165.027 798.916,165.909 795.128,165.909 C786.3,165.909 780.182,163.261 776.774,157.964 C773.366,152.667 771.672,144.978 771.672,134.877 C771.672,131.356 772.103,127.876 772.996,124.478 C773.869,121.07 774.947,117.98 776.209,115.198 C777.471,112.427 778.601,109.973 779.617,107.827 C780.623,105.681 781.126,103.977 781.126,102.715 C781.126,95.899 779.36,92.501 775.829,92.501 C770.778,92.501 766.744,94.647 763.716,98.927 L760.318,103.854 C757.536,107.632 755.832,114.509 755.206,124.477 C754.569,134.445 754.261,146.229 754.261,159.852 L754.261,269.98 L782.645,269.98 L782.645,273.008 L651.329,273.008 L651.329,269.98 L680.082,269.98 L680.082,80.389 L651.329,80.389 L651.329,77.36 C658.381,77.36 666.778,77.237 676.49,76.981 C686.201,76.734 695.984,76.293 705.818,75.657 C715.662,75.031 724.86,74.209 733.442,73.203 C742.013,72.197 748.963,70.924 754.26,69.415 L754.26,111.041 C755.01,108.526 756.015,106.001 757.288,103.476 C758.54,100.951 760.183,98.549 762.205,96.28 L763.714,95.151 C769.268,89.854 774.123,86.323 778.291,84.547 C782.449,82.791 786.667,81.898 790.969,81.898 Z"/>
    <path d="M916.792,242.356 C919.307,249.162 922.592,254.654 926.626,258.812 C930.661,262.979 934.951,265.884 939.499,267.517 C944.036,269.159 948.45,269.98 952.741,269.98 L952.741,273.008 L910.355,273.008 C897.996,273.008 887.525,272.125 878.943,270.36 C870.372,268.594 863.432,265.566 858.135,261.275 C852.838,256.984 849.05,251.246 846.781,244.06 C844.512,236.864 843.373,227.727 843.373,216.621 L843.373,208.676 L843.373,80.389 L814.99,80.389 L814.99,77.36 L827.103,77.36 C837.697,77.36 847.973,74.712 857.94,69.415 C867.908,64.118 876.674,57.559 884.24,49.736 C891.816,41.924 897.924,33.651 902.594,24.945 C907.265,16.25 909.595,8.612 909.595,2.053 L913.003,2.053 L913.003,77.36 L946.304,77.36 L946.304,80.388 L913.003,80.388 L913.003,216.24 C913.003,226.835 914.266,235.54 916.792,242.356 Z"/>
    <path d="M1077.383,269.98 L1077.383,273.008 L944.18,273.008 L944.18,269.98 L972.943,269.98 L972.943,11.139 L944.18,11.139 L944.18,8.11 C951.242,8.11 959.752,7.987 969.73,7.73 C979.688,7.484 989.655,7.042 999.623,6.406 C1009.581,5.78 1018.983,4.959 1027.812,3.943 C1036.64,2.947 1043.713,1.674 1049.01,0.165 L1049.01,269.98 L1077.383,269.98 Z"/>
    <path d="M1142.394 178.782C1142.394 188.616 1142.897 198.584 1143.913 208.675 1144.919 218.766 1147.321 227.789 1151.099 235.734 1154.887 243.68 1160.369 250.177 1167.565 255.218 1174.751 260.268 1184.657 262.783 1197.27 262.783 1206.345 262.783 1214.352 261.212 1221.301 258.061 1228.231 254.909 1234.287 250.68 1239.461 245.383 1244.624 240.086 1249.049 233.967 1252.703 227.029 1256.357 220.09 1259.58 212.832 1262.352 205.266L1266.14 205.646C1262.609 215.737 1258.759 225.078 1254.601 233.65 1250.433 242.232 1244.953 249.674 1238.136 255.977 1231.319 262.28 1222.87 267.207 1212.781 270.738 1202.689 274.259 1190.199 276.035 1175.325 276.035 1168.509 276.035 1162.452 275.902 1157.155 275.655 1151.858 275.399 1146.5 274.577 1141.07 273.192 1135.65 271.806 1129.911 269.732 1123.855 266.95 1117.798 264.179 1110.736 260.134 1102.667 254.837 1092.073 248.277 1083.05 238.063 1075.607 224.185 1068.165 210.316 1064.438 193.533 1064.438 173.854 1064.438 158.476 1066.522 145.224 1070.69 134.126 1074.847 123.029 1080.339 113.688 1087.145 106.122 1093.961 98.546 1101.527 92.5 1109.852 87.953 1118.177 83.415 1126.564 79.946 1135.023 77.544 1143.471 75.152 1151.417 73.571 1158.859 72.822 1166.301 72.062 1172.543 71.682 1177.593 71.682 1188.187 71.682 1199.157 72.699 1210.511 74.71 1221.865 76.732 1232.14 80.264 1241.349 85.304 1250.557 90.354 1258.122 97.222 1264.056 105.927 1269.979 114.632 1272.956 125.801 1272.956 139.423 1272.956 147.502 1270.614 153.805 1265.954 158.342 1261.273 162.879 1255.474 166.287 1248.544 168.556 1241.605 170.825 1234.101 172.221 1226.023 172.723 1217.955 173.226 1210.378 173.483 1203.326 173.483L1142.394 173.483 1142.394 178.782 1142.394 178.782zM1169.648 75.472C1163.335 75.729 1158.418 78.243 1154.886 83.037 1151.344 87.831 1148.645 93.888 1146.746 101.197 1144.857 108.527 1143.656 116.523 1143.153 125.228 1142.65 133.933 1142.394 142.197 1142.394 150.019L1142.394 170.077 1175.695 170.077C1176.958 170.077 1179.545 169.831 1183.455 169.318 1187.366 168.815 1190.703 167.306 1193.484 164.78 1195.002 163.261 1196.191 161.31 1197.074 158.908 1197.957 156.516 1198.594 154.124 1198.974 151.722 1199.343 149.33 1199.599 147.175 1199.722 145.286 1199.846 143.397 1199.917 142.073 1199.917 141.313 1199.917 127.691 1199.097 116.594 1197.454 108.012 1195.811 99.44 1193.606 92.747 1190.835 87.953 1188.053 83.169 1184.974 79.884 1181.565 78.119 1178.156 76.354 1174.687 75.471 1171.156 75.471L1169.648 75.471 1169.648 75.472zM1413.489 157.964C1416.763 160.233 1420.428 163.138 1424.463 166.669 1428.498 170.2 1432.285 174.234 1435.817 178.782 1439.348 183.32 1442.254 188.308 1444.522 193.728 1446.791 199.159 1447.93 205.02 1447.93 211.323 1447.93 221.157 1445.784 230.119 1441.493 238.188 1437.202 246.267 1431.145 253.134 1423.334 258.811 1415.512 264.488 1406.304 268.912 1395.709 272.063 1385.105 275.214 1373.383 276.785 1360.51 276.785 1350.676 276.785 1340.831 275.142 1330.996 271.868 1321.152 268.593 1311.441 264.435 1301.853 259.385 1300.343 258.882 1299.328 258.625 1298.825 258.625 1295.047 258.625 1291.763 259.385 1288.99 260.894 1286.209 262.413 1283.817 264.056 1281.804 265.811 1279.526 268.089 1277.636 270.481 1276.128 273.007L1271.96 273.007 1271.96 184.458 1276.497 184.458C1277.257 190.258 1278.395 196.058 1279.905 201.858 1281.168 206.908 1282.809 212.267 1284.822 217.943 1286.844 223.62 1289.37 228.979 1292.397 234.029 1296.175 240.332 1300.025 245.885 1303.936 250.679 1307.847 255.473 1312.2 259.127 1316.993 261.653 1322.794 264.938 1329.229 267.391 1336.293 269.034 1343.355 270.676 1350.295 271.488 1357.11 271.488 1361.894 271.488 1366.76 271.364 1371.676 271.108 1376.594 270.861 1381.07 270.164 1385.104 269.034 1389.138 267.894 1392.485 266.324 1395.133 264.302 1397.781 262.28 1399.106 259.385 1399.106 255.597 1399.106 249.541 1396.139 243.935 1390.216 238.762 1384.282 233.589 1376.974 228.538 1368.269 223.621 1359.564 218.704 1350.161 213.53 1340.081 208.11 1329.979 202.68 1320.648 196.562 1312.077 189.756 1306.266 185.209 1301.154 180.857 1296.751 176.699 1292.326 172.532 1288.548 168.25 1285.397 163.826 1282.235 159.422 1279.843 154.689 1278.201 149.639 1276.558 144.598 1275.747 138.799 1275.747 132.229 1275.747 121.892 1277.883 113.002 1282.174 105.549 1286.465 98.117 1291.956 91.999 1298.64 87.205 1305.323 82.411 1312.579 78.88 1320.402 76.601 1328.214 74.332 1335.657 73.203 1342.73 73.203 1348.787 73.203 1353.95 73.521 1358.241 74.147 1362.532 74.773 1366.762 75.851 1370.919 77.36 1375.086 78.88 1379.563 80.768 1384.356 83.037 1389.14 85.306 1395.197 88.088 1402.516 91.362 1403.019 91.619 1403.902 91.742 1405.164 91.742 1408.695 91.742 1411.785 90.983 1414.434 89.473 1417.082 87.954 1419.166 86.199 1420.686 84.176 1422.441 81.897 1423.96 79.382 1425.223 76.6L1429.01 76.6 1437.336 148.129 1433.168 148.129C1432.408 145.101 1431.279 141.693 1429.76 137.905 1428.497 134.63 1426.732 130.904 1424.463 126.746 1422.194 122.579 1419.289 118.103 1415.758 113.309 1413.992 111.04 1411.159 107.889 1407.248 103.854 1403.337 99.819 1398.984 96.278 1394.19 93.25 1392.424 92.244 1390.084 90.858 1387.189 89.092 1384.284 87.326 1380.948 85.622 1377.16 83.98 1373.383 82.348 1369.276 80.952 1364.862 79.822 1360.448 78.683 1355.839 78.118 1351.054 78.118 1348.53 78.118 1345.686 78.241 1342.534 78.498 1339.383 78.745 1336.477 79.319 1333.829 80.202 1331.181 81.085 1328.974 82.348 1327.208 83.98 1325.442 85.622 1324.56 87.829 1324.56 90.601 1324.56 99.439 1327.331 106.246 1332.885 111.039 1338.439 115.833 1345.624 120.504 1354.452 125.041 1364.297 130.092 1374.572 135.45 1385.3 141.127 1396.017 146.806 1405.41 152.421 1413.489 157.964zM1592.712 157.964C1595.985 160.233 1599.64 163.138 1603.685 166.669 1607.72 170.2 1611.497 174.234 1615.039 178.782 1618.57 183.32 1621.465 188.308 1623.744 193.728 1626.014 199.159 1627.142 205.02 1627.142 211.323 1627.142 221.157 1624.996 230.119 1620.716 238.188 1616.425 246.267 1610.368 253.134 1602.546 258.811 1594.724 264.488 1585.515 268.912 1574.921 272.063 1564.327 275.214 1552.595 276.785 1539.732 276.785 1529.888 276.785 1520.054 275.142 1510.209 271.868 1500.375 268.593 1490.664 264.435 1481.076 259.385 1479.556 258.882 1478.551 258.625 1478.049 258.625 1474.26 258.625 1470.986 259.385 1468.214 260.894 1465.432 262.413 1463.04 264.056 1461.018 265.811 1458.749 268.089 1456.861 270.481 1455.342 273.007L1451.184 273.007 1451.184 184.458 1455.721 184.458C1456.481 190.258 1457.61 196.058 1459.129 201.858 1460.381 206.908 1462.024 212.267 1464.047 217.943 1466.059 223.62 1468.584 228.979 1471.611 234.029 1475.4 240.332 1479.238 245.885 1483.16 250.679 1487.06 255.473 1491.414 259.127 1496.207 261.653 1502.008 264.938 1508.443 267.391 1515.517 269.034 1522.569 270.676 1529.508 271.488 1536.325 271.488 1541.12 271.488 1545.975 271.364 1550.891 271.108 1555.819 270.861 1560.295 270.164 1564.329 269.034 1568.364 267.894 1571.71 266.324 1574.358 264.302 1577.006 262.28 1578.331 259.385 1578.331 255.597 1578.331 249.541 1575.364 243.935 1569.441 238.762 1563.508 233.589 1556.188 228.538 1547.494 223.621 1538.789 218.704 1529.386 213.53 1519.296 208.11 1509.204 202.68 1499.862 196.562 1491.292 189.756 1485.491 185.209 1480.38 180.857 1475.966 176.699 1471.552 172.532 1467.763 168.25 1464.612 163.826 1461.46 159.422 1459.057 154.689 1457.425 149.639 1455.783 144.598 1454.961 138.799 1454.961 132.229 1454.961 121.892 1457.107 113.002 1461.399 105.549 1465.689 98.117 1471.17 91.999 1477.864 87.205 1484.536 82.411 1491.794 78.88 1499.616 76.601 1507.438 74.332 1514.882 73.203 1521.944 73.203 1528.001 73.203 1533.164 73.521 1537.465 74.147 1541.745 74.773 1545.976 75.851 1550.143 77.36 1554.3 78.88 1558.777 80.768 1563.57 83.037 1568.365 85.306 1574.422 88.088 1581.74 91.362 1582.244 91.619 1583.116 91.742 1584.388 91.742 1587.919 91.742 1591.009 90.983 1593.658 89.473 1596.306 87.954 1598.39 86.199 1599.9 84.176 1601.666 81.897 1603.174 79.382 1604.447 76.6L1608.224 76.6 1616.55 148.129 1612.392 148.129C1611.632 145.101 1610.494 141.693 1608.984 137.905 1607.722 134.63 1605.957 130.904 1603.687 126.746 1601.419 122.579 1598.513 118.103 1594.982 113.309 1593.216 111.04 1590.373 107.889 1586.472 103.854 1582.55 99.82 1578.199 96.278 1573.415 93.25 1571.638 92.244 1569.308 90.858 1566.413 89.092 1563.509 87.326 1560.161 85.622 1556.384 83.98 1552.597 82.348 1548.49 80.952 1544.087 79.822 1539.661 78.683 1535.064 78.118 1530.269 78.118 1527.744 78.118 1524.912 78.241 1521.759 78.498 1518.597 78.745 1515.702 79.319 1513.054 80.202 1510.406 81.085 1508.189 82.348 1506.433 83.98 1504.667 85.622 1503.785 87.829 1503.785 90.601 1503.785 99.439 1506.556 106.246 1512.11 111.039 1517.654 115.833 1524.839 120.504 1533.677 125.041 1543.511 130.092 1553.798 135.45 1564.515 141.127 1575.24 146.806 1584.632 152.421 1592.712 157.964zM1861.007 260.238C1861.007 284.638 1857.455 304.358 1850.362 319.407 1843.268 334.446 1834.399 346.087 1823.754 354.32 1813.108 362.543 1801.683 368.086 1789.487 370.919 1777.282 373.753 1766.206 375.18 1756.28 375.18 1746.342 375.18 1736.622 374.256 1727.116 372.408 1717.599 370.56 1708.596 367.871 1700.087 364.319 1691.567 360.767 1683.837 356.446 1676.877 351.343 1669.927 346.232 1663.892 340.411 1658.79 333.882L1678.796 315.148C1687.882 327.928 1699.235 337.291 1712.857 343.254 1726.48 349.208 1740.955 352.195 1756.281 352.195 1769.328 352.195 1780.332 350.491 1789.273 347.083 1798.214 343.675 1805.595 339.21 1811.416 333.677 1817.227 328.134 1821.764 322.036 1825.038 315.364 1828.292 308.691 1830.705 302.019 1832.275 295.357 1833.825 288.685 1834.749 282.371 1835.037 276.417 1835.313 270.453 1835.468 265.628 1835.468 261.933L1835.468 234.689 1834.615 234.689C1827.224 246.607 1817.226 255.98 1804.599 262.786 1791.962 269.602 1777.139 273.01 1760.109 273.01 1745.634 273.01 1732.013 270.382 1719.243 265.136 1706.472 259.88 1695.324 252.643 1685.818 243.414 1676.313 234.196 1668.789 223.478 1663.256 211.273 1657.723 199.078 1654.961 186.02 1654.961 172.111 1654.961 158.212 1657.723 145.154 1663.256 132.938 1668.789 120.743 1676.314 110.097 1685.818 101.013 1695.324 91.938 1706.472 84.701 1719.243 79.302 1732.014 73.913 1745.635 71.213 1760.109 71.213 1777.139 71.213 1791.963 74.621 1804.599 81.427 1817.226 88.243 1827.224 97.605 1834.615 109.533L1835.468 109.533 1835.468 76.324 1861.008 76.324 1861.008 260.238 1861.007 260.238zM1836.319 172.11C1836.319 161.321 1834.256 151.178 1830.139 141.672 1826.023 132.167 1820.49 123.934 1813.54 116.974 1806.58 110.025 1798.357 104.492 1788.852 100.375 1779.335 96.258 1769.194 94.205 1758.405 94.205 1747.617 94.205 1737.474 96.258 1727.968 100.375 1718.452 104.491 1710.23 110.024 1703.28 116.974 1696.32 123.934 1690.787 132.167 1686.671 141.672 1682.555 151.178 1680.502 161.32 1680.502 172.11 1680.502 182.899 1682.555 193.041 1686.671 202.547 1690.787 212.063 1696.32 220.285 1703.28 227.245 1710.23 234.195 1718.453 239.728 1727.968 243.845 1737.474 247.961 1747.616 250.014 1758.405 250.014 1769.194 250.014 1779.336 247.961 1788.852 243.845 1798.358 239.728 1806.581 234.195 1813.54 227.245 1820.489 220.285 1826.022 212.062 1830.139 202.547 1834.255 193.041 1836.319 182.899 1836.319 172.11zM2066.91 235.971C2056.963 251.01 2044.696 261.799 2030.078 268.327 2015.461 274.846 1999.353 278.11 1981.76 278.11 1966.711 278.11 1953.088 275.564 1940.893 270.452 1928.688 265.34 1918.186 258.175 1909.389 248.956 1900.591 239.727 1893.847 228.805 1889.166 216.168 1884.484 203.542 1882.145 189.56 1882.145 174.234 1882.145 159.483 1884.547 145.86 1889.381 133.367 1894.206 120.885 1901.012 110.024 1909.809 100.796 1918.608 91.577 1928.975 84.34 1940.893 79.084 1952.811 73.839 1966.012 71.211 1980.487 71.211 1995.526 71.211 2008.799 73.839 2020.286 79.084 2031.783 84.34 2041.432 91.29 2049.234 99.943 2057.046 108.607 2062.928 118.462 2066.911 129.538 2070.874 140.604 2072.865 151.814 2072.865 163.167L2072.865 181.049 1907.685 181.049C1907.685 186.439 1908.752 193.327 1910.877 201.693 1913.002 210.069 1916.902 218.231 1922.59 226.176 1928.256 234.121 1935.853 240.938 1945.359 246.604 1954.864 252.292 1967.142 255.125 1982.191 255.125 1995.239 255.125 2007.876 252.004 2020.081 245.763 2032.276 239.522 2041.638 231.002 2048.177 220.213L2066.91 235.971zM2047.324 158.057C2047.324 149.27 2045.549 141.027 2041.996 133.369 2038.444 125.701 2033.63 118.967 2027.522 113.146 2021.424 107.336 2014.187 102.716 2005.81 99.309 1997.445 95.901 1988.576 94.207 1979.203 94.207 1965.293 94.207 1953.734 97.04 1944.506 102.717 1935.288 108.394 1927.969 114.923 1922.59 122.304 1917.19 129.685 1913.361 136.85 1911.092 143.799 1908.814 150.759 1907.685 155.502 1907.685 158.058L2047.324 158.058 2047.324 158.057zM2094.863 131.665C2094.863 127.98 2094.709 123.514 2094.431 118.258 2094.144 113.002 2093.928 107.685 2093.794 102.285 2093.651 96.906 2093.435 91.855 2093.158 87.174 2092.87 82.493 2092.727 78.88 2092.727 76.324L2118.266 76.324C2118.554 83.704 2118.759 90.798 2118.912 97.604 2119.047 104.42 2119.406 108.824 2119.971 110.805L2121.254 110.805C2126.356 100.026 2134.875 90.726 2146.793 82.925 2158.711 75.113 2172.621 71.212 2188.512 71.212 2203.838 71.212 2216.331 73.624 2225.981 78.449 2235.62 83.274 2243.227 89.587 2248.76 97.399 2254.293 105.201 2258.121 114.214 2260.246 124.428 2262.381 134.642 2263.439 145.154 2263.439 155.932L2263.439 273.009 2237.9 273.009 2237.9 157.205C2237.9 149.27 2237.192 141.53 2235.775 134.005 2234.348 126.491 2231.865 119.746 2228.323 113.782 2224.771 107.828 2219.812 103.075 2213.418 99.523 2207.033 95.982 2198.738 94.206 2188.514 94.206 2179.153 94.206 2170.284 95.838 2161.907 99.093 2153.541 102.367 2146.294 107.336 2140.196 113.998 2134.088 120.67 2129.273 129.047 2125.721 139.117 2122.169 149.198 2120.404 161.044 2120.404 174.666L2120.404 273.008 2094.864 273.008 2094.864 131.665 2094.863 131.665zM2380.506 99.308L2324.304 99.308 2324.304 227.451C2324.304 236.259 2326.716 243.065 2331.54 247.889 2336.364 252.714 2343.038 255.126 2351.558 255.126 2356.372 255.126 2361.269 254.489 2366.238 253.206 2371.207 251.934 2375.959 250.301 2380.507 248.31L2382.632 271.305C2377.807 273.009 2372.264 274.559 2366.033 275.986 2359.781 277.403 2354.248 278.111 2349.424 278.111 2340.339 278.111 2332.537 276.766 2326.008 274.066 2319.48 271.377 2314.235 267.753 2310.262 263.215 2306.279 258.678 2303.373 253.361 2301.535 247.253 2299.678 241.145 2298.764 234.555 2298.764 227.451L2298.764 99.308 2271.961 99.308 2271.961 76.324 2298.764 76.324 2298.764 19.7 2324.305 19.7 2324.305 76.324 2380.507 76.324 2380.507 99.308 2380.506 99.308z"/>
  </g>
</svg>
